<?xml version="1.0" encoding="UTF-8"?>
<!DOCTYPE svg PUBLIC "-//W3C//DTD SVG 1.1//EN" "http://www.w3.org/Graphics/SVG/1.1/DTD/svg11.dtd">
<!-- Creator: CorelDRAW -->
<svg xmlns="http://www.w3.org/2000/svg" xml:space="preserve" width="200px" height="287px" version="1.1" style="shape-rendering:geometricPrecision; text-rendering:geometricPrecision; image-rendering:optimizeQuality; fill-rule:evenodd; clip-rule:evenodd"
viewBox="0 0 85.88 123.23"
 xmlns:xlink="http://www.w3.org/1999/xlink"
 xmlns:xodm="http://www.corel.com/coreldraw/odm/2003">
 <defs>
  <style type="text/css">
   <![CDATA[
    .fil0 {fill:#f86624;fill-rule:nonzero}
   ]]>
  </style>
 </defs>
 <g id="Capa_x0020_1">
  <metadata id="CorelCorpID_0Corel-Layer"/>
  <path class="fil0" d="M33.35 105.63c2.47,4.7 3.49,7.87 5.32,13.55 1.08,3.11 2.1,4.05 4.25,4.05 2.34,0 3.42,-1.58 4.24,-4.05 1.72,-5.33 3.04,-9.38 5.14,-13.25 8.08,-15.24 21.27,-26.08 28.69,-40.93 0,0 4.89,-9.06 4.89,-21.76 0,-23.62 -18.69,-43.24 -43.07,-43.24 -23.85,0 -42.81,19.74 -42.81,43.14 0,15.85 6.24,26.14 15.67,38.29 6.13,7.9 12.91,15.71 17.68,24.2zm9.56 -46.26c-9.07,0 -16.46,-7.23 -16.46,-16.35 0,-9.41 6.93,-16.47 16.49,-16.47 8.49,0 16.35,7.04 16.35,16.36 0,9.05 -7.21,16.46 -16.38,16.46z"/>
 </g>
</svg>
