<?xml version="1.0" encoding="UTF-8"?>
<!DOCTYPE svg PUBLIC "-//W3C//DTD SVG 1.1//EN" "http://www.w3.org/Graphics/SVG/1.1/DTD/svg11.dtd">
<!-- Creator: CorelDRAW -->
<svg xmlns="http://www.w3.org/2000/svg" xml:space="preserve" width="200px" height="200px" version="1.1" style="shape-rendering:geometricPrecision; text-rendering:geometricPrecision; image-rendering:optimizeQuality; fill-rule:evenodd; clip-rule:evenodd"
viewBox="0 0 51.97 51.97"
 xmlns:xlink="http://www.w3.org/1999/xlink"
 xmlns:xodm="http://www.corel.com/coreldraw/odm/2003">
 <defs>
  <style type="text/css">
   <![CDATA[
    .fil0 {fill:#f86624}
   ]]>
  </style>
 </defs>
 <g id="Capa_x0020_1">
  <metadata id="CorelCorpID_0Corel-Layer"/>
  <path class="fil0" d="M9.98 25.76c-0.65,-1.39 -0.06,-2.55 1.55,-3.71 0.76,-0.55 1.62,-1.11 2.62,-1.52 2.18,-0.9 2.17,-2.12 1.4,-3.35 -1.88,-2.97 -3.48,-6.35 -5.12,-9.85 -3.67,-0.22 -7.04,1.1 -9.1,4.78 -2.41,4.32 -1.32,10.25 1.44,16.33 4.32,9.51 11.25,16.44 20.76,20.76 6.08,2.76 12.01,3.85 16.33,1.44 3.68,-2.05 5,-5.42 4.78,-9.1 -3.5,-1.64 -6.88,-3.24 -9.85,-5.12 -1.23,-0.77 -2.45,-0.78 -3.34,1.4 -0.42,1.01 -0.98,1.86 -1.53,2.62 -1.16,1.61 -2.31,2.21 -3.71,1.55 -7.97,-3.76 -12.47,-8.26 -16.23,-16.23zm17.43 -22.64c-0.86,-0.07 -1.5,-0.83 -1.43,-1.69 0.07,-0.86 0.83,-1.5 1.69,-1.42 3.08,0.25 6.13,1.03 8.99,2.36 2.76,1.28 5.35,3.05 7.62,5.32 2.27,2.27 4.05,4.86 5.32,7.62 1.33,2.86 2.11,5.91 2.37,9 0.07,0.85 -0.57,1.61 -1.43,1.68 -0.86,0.07 -1.62,-0.57 -1.69,-1.43 -0.22,-2.72 -0.91,-5.41 -2.08,-7.94 -1.13,-2.43 -2.69,-4.71 -4.7,-6.72 -2.01,-2.01 -4.29,-3.57 -6.72,-4.7 -2.53,-1.17 -5.22,-1.86 -7.94,-2.08zm16.13 23.63c-0.02,0.86 -0.73,1.55 -1.59,1.54 -0.86,-0.02 -1.55,-0.72 -1.54,-1.59 0.03,-1.99 -0.33,-3.98 -1.08,-5.84 -0.73,-1.79 -1.82,-3.47 -3.28,-4.93 -1.47,-1.47 -3.15,-2.56 -4.94,-3.29 -1.86,-0.75 -3.85,-1.11 -5.84,-1.08 -0.86,0.01 -1.57,-0.68 -1.58,-1.54 -0.02,-0.86 0.67,-1.57 1.53,-1.58 2.4,-0.04 4.8,0.4 7.07,1.31 2.18,0.89 4.21,2.21 5.97,3.96 1.75,1.76 3.07,3.79 3.96,5.98 0.91,2.26 1.35,4.66 1.32,7.06zm-20.21 -6.3c-0.81,0.29 -1.7,-0.13 -1.99,-0.95 -0.29,-0.81 0.13,-1.7 0.94,-1.99 1.71,-0.62 3.56,-0.73 5.31,-0.33 1.71,0.38 3.32,1.23 4.65,2.55 1.32,1.33 2.17,2.95 2.56,4.65 0.39,1.75 0.28,3.6 -0.34,5.31 -0.29,0.81 -1.18,1.24 -1.99,0.94 -0.82,-0.29 -1.24,-1.18 -0.95,-1.99 0.41,-1.15 0.49,-2.39 0.22,-3.58 -0.25,-1.14 -0.83,-2.22 -1.72,-3.11 -0.89,-0.89 -1.97,-1.47 -3.11,-1.72 -1.19,-0.27 -2.43,-0.19 -3.58,0.22z"/>
 </g>
</svg>
