<?xml version="1.0" encoding="UTF-8"?>
<!DOCTYPE svg PUBLIC "-//W3C//DTD SVG 1.1//EN" "http://www.w3.org/Graphics/SVG/1.1/DTD/svg11.dtd">
<!-- Creator: CorelDRAW -->
<svg xmlns="http://www.w3.org/2000/svg" xml:space="preserve" width="18.4756mm" height="17.9018mm" version="1.1" style="shape-rendering:geometricPrecision; text-rendering:geometricPrecision; image-rendering:optimizeQuality; fill-rule:evenodd; clip-rule:evenodd"
viewBox="0 0 709.24 687.21"
 xmlns:xlink="http://www.w3.org/1999/xlink"
 xmlns:xodm="http://www.corel.com/coreldraw/odm/2003">
 <defs>
  <style type="text/css">
   <![CDATA[
    .fil1 {fill:#20160D}
    .fil0 {fill:#00A8C7;fill-rule:nonzero}
    .fil2 {fill:#CC9933;fill-rule:nonzero}
   ]]>
  </style>
 </defs>
 <g id="Capa_x0020_1">
  <metadata id="CorelCorpID_0Corel-Layer"/>
  <path class="fil0" d="M100.1 152.82c-13.37,12.56 -26.74,25.13 -40.11,37.7 4.46,-4.19 9.25,-1.14 0.15,-3.12 -6.76,-1.47 -13.52,-2.93 -20.28,-4.4 -9.05,-1.97 -18.1,-3.93 -27.14,-5.89 -1.9,-0.42 -10.03,0.87 -8.31,4.53 7.82,16.6 15.64,33.21 23.47,49.8 1.82,3.87 -23.02,39.09 -27.47,46.71 -1.64,2.81 2.28,3.9 4.31,3.64 18.2,-2.31 36.41,-4.62 54.61,-6.93 -4.59,0.58 -2.88,-0.28 0.96,4.02 4.61,5.16 9.22,10.33 13.83,15.49 6.17,6.9 12.33,13.81 18.5,20.71 2.38,2.66 9.37,0.87 10.04,-2.69 3.43,-18.02 6.86,-36.05 10.28,-54.08 -0.66,3.48 -2.74,2.51 3.44,-0.21 6.34,-2.79 12.68,-5.58 19.01,-8.36 8.48,-3.73 16.95,-7.46 25.42,-11.19 1.81,-0.8 4.79,-3.72 1.91,-5.31 -16.08,-8.83 -32.17,-17.67 -48.25,-26.5 -3.25,-1.78 -4.05,-45.81 -4.89,-54.16 -0.41,-4.07 -10.86,-1.66 -10.41,2.79 0.93,9.21 1.86,18.42 2.79,27.64 0.6,6.02 -0.89,23.57 3.19,28.39 4.37,5.17 15.21,8.55 21.02,11.74 9.46,5.2 18.92,10.39 28.38,15.59 0.64,-1.77 1.28,-3.54 1.92,-5.31 -9.88,4.35 -19.76,8.69 -29.64,13.05 -6.64,2.93 -18,5.39 -23.29,10.73 -4.4,4.45 -4.21,18.73 -5.31,24.46 -2.02,10.61 -4.03,21.21 -6.05,31.81 3.35,-0.9 6.69,-1.79 10.04,-2.69 -7.19,-8.05 -14.38,-16.1 -21.57,-24.15 -3.94,-4.41 -11.02,-16.59 -17.12,-18.26 -7.19,-1.97 -18.36,1.84 -25.49,2.74 -10.71,1.36 -21.42,2.72 -32.12,4.07 1.43,1.21 2.87,2.43 4.31,3.64 4.66,-8 9.32,-16 13.99,-24 4.03,-6.91 12.87,-16.85 14.31,-24.86 0.94,-5.21 -7.77,-17.28 -9.9,-21.81 -4.61,-9.77 -9.21,-19.53 -13.8,-29.3 -2.77,1.51 -5.54,3.02 -8.31,4.53 10.55,2.29 21.1,4.58 31.64,6.87 7.2,1.56 19.01,6.84 26.56,4.82 6.43,-1.73 12.52,-10.42 17.05,-14.67 8.95,-8.42 17.91,-16.84 26.87,-25.26 4.59,-4.31 -5.65,-5.03 -8.51,-2.33z"/>
 </g>
 <g id="Capa_x0020_1_0">
  <metadata id="CorelCorpID_1Corel-Layer"/>
  <path class="fil1" d="M365.63 0c189.77,0 343.6,153.84 343.6,343.6 0,189.77 -153.84,343.6 -343.6,343.6 -189.77,0 -343.6,-153.84 -343.6,-343.6 0,-189.77 153.84,-343.6 343.6,-343.6z"/>
  <path class="fil2" d="M372.26 265.11c0,18.7 -2.45,36.95 -7.35,54.88 -4.9,18.03 -12.46,34.51 -22.59,49.75 -10.02,15.25 -22.82,28.72 -38.29,40.3 -15.36,11.69 -33.73,20.48 -54.76,26.6 0.45,26.27 1,52.31 1.78,78.03 0.78,25.83 1.67,51.43 2.78,76.81l-79.59 0c3.45,-49.31 6.01,-98.62 7.68,-148.04 1.67,-49.31 2.45,-98.96 2.45,-149.04 0,-28.83 -0.22,-57.77 -0.67,-86.49 -0.45,-28.83 -1.34,-57.88 -2.56,-87.27 11.47,-3.45 23.15,-5.79 35.06,-6.9 11.8,-1 21.82,-1.56 30.17,-1.56 5.79,0 13.02,0.67 21.59,1.89 8.68,1.34 17.59,3.9 26.83,7.68 9.24,3.79 18.48,9.13 27.72,16.03 9.24,6.79 17.47,15.92 24.93,27.38 7.34,11.36 13.36,25.27 17.92,41.52 4.56,16.36 6.9,35.84 6.9,58.44zm-123 116.1c7.12,-2.67 13.47,-6.12 18.7,-10.46 5.34,-4.34 10.02,-9.13 14.03,-14.47 4.12,-5.34 7.46,-11.13 10.13,-17.14 2.78,-6.12 5.01,-12.13 6.68,-17.92 4.12,-13.69 6.57,-28.61 7.24,-44.75 0,-0.22 -0.11,-2.67 -0.22,-7.45 -0.11,-4.79 -0.67,-10.8 -1.56,-18.15 -1,-7.24 -2.56,-15.25 -4.79,-24.04 -2.12,-8.91 -5.12,-17.25 -8.9,-25.27 -3.9,-8.13 -8.79,-15.36 -14.69,-21.71 -6.01,-6.45 -13.36,-10.91 -22.04,-13.58 -1.78,33.73 -2.89,67.45 -3.56,101.29 -0.67,33.72 -1,67.9 -1,102.18l0 11.47zm344.73 -116.1c0,18.7 -2.45,36.95 -7.35,54.88 -4.9,18.03 -12.46,34.51 -22.59,49.75 -10.02,15.25 -22.82,28.72 -38.29,40.3 -15.36,11.69 -33.73,20.48 -54.76,26.6 0.45,26.27 1,52.31 1.78,78.03 0.78,25.83 1.67,51.43 2.78,76.81l-79.59 0c3.45,-49.31 6.01,-98.62 7.68,-148.04 1.67,-49.31 2.45,-98.96 2.45,-149.04 0,-28.83 -0.22,-57.77 -0.67,-86.49 -0.45,-28.83 -1.34,-57.88 -2.56,-87.27 11.47,-3.45 23.15,-5.79 35.06,-6.9 11.8,-1 21.82,-1.56 30.17,-1.56 5.79,0 13.02,0.67 21.59,1.89 8.68,1.34 17.59,3.9 26.83,7.68 9.24,3.79 18.48,9.13 27.72,16.03 9.24,6.79 17.47,15.92 24.93,27.38 7.34,11.36 13.36,25.27 17.92,41.52 4.56,16.36 6.9,35.84 6.9,58.44zm-123 116.1c7.12,-2.67 13.47,-6.12 18.7,-10.46 5.34,-4.34 10.02,-9.13 14.03,-14.47 4.12,-5.34 7.46,-11.13 10.13,-17.14 2.78,-6.12 5.01,-12.13 6.68,-17.92 4.12,-13.69 6.57,-28.61 7.24,-44.75 0,-0.22 -0.11,-2.67 -0.22,-7.45 -0.11,-4.79 -0.67,-10.8 -1.56,-18.15 -1,-7.24 -2.56,-15.25 -4.79,-24.04 -2.12,-8.91 -5.12,-17.25 -8.9,-25.27 -3.9,-8.13 -8.79,-15.36 -14.69,-21.71 -6.01,-6.45 -13.36,-10.91 -22.04,-13.58 -1.78,33.73 -2.89,67.45 -3.56,101.29 -0.67,33.72 -1,67.9 -1,102.18l0 11.47z"/>
 </g>
</svg>
