<?xml version="1.0" encoding="UTF-8"?>
<!DOCTYPE svg PUBLIC "-//W3C//DTD SVG 1.1//EN" "http://www.w3.org/Graphics/SVG/1.1/DTD/svg11.dtd">
<!-- Creator: CorelDRAW -->
<svg xmlns="http://www.w3.org/2000/svg" xml:space="preserve" width="48.519mm" height="11.9296mm" version="1.1" style="shape-rendering:geometricPrecision; text-rendering:geometricPrecision; image-rendering:optimizeQuality; fill-rule:evenodd; clip-rule:evenodd"
viewBox="0 0 5831.38 1433.79"
 xmlns:xlink="http://www.w3.org/1999/xlink"
 xmlns:xodm="http://www.corel.com/coreldraw/odm/2003">
 <defs>
  <style type="text/css">
   <![CDATA[
    .fil0 {fill:#f86624;fill-rule:nonzero}
    .fil1 {fill:#F7F7F7;fill-rule:nonzero}
   ]]>
  </style>
 </defs>
 <g id="Capa_x0020_1">
  <metadata id="CorelCorpID_0Corel-Layer"/>
  <path class="fil0" d="M37.81 598.51c123.36,-90.72 270.09,-119.84 379.95,-114.29 704.52,-255.36 1492.44,-327.69 2002.93,-367.88 137.54,-60.56 279.8,15.01 405.61,-40.88 230.93,12.28 441.62,6.33 610,-37.74 44,40.53 91.23,56.57 147.77,3.14 114.39,30.95 212.36,34.63 251.54,-40.86 309.77,8.2 612.58,42.56 889.83,172.94 70.21,23.28 153.66,31.06 210.66,88.04 158.84,158.8 180.23,327.38 -28.28,424.48 -212.85,99.13 -512.26,61.91 -801.81,40.88 -264.1,31.47 -584.08,-7.46 -845.81,21.86 -426.41,-44.13 -879.09,0.47 -1078.49,100.77 176.07,5.23 352.16,10.48 528.24,15.72 315.46,-1.41 537.32,32.39 685.45,113.19 70.2,38.28 84.58,120.9 34.27,190.49 -100.31,138.82 -341.31,209.84 -644.27,265.43 190.76,-73.78 396.31,-152.25 572.27,-320.71 32.65,-31.27 -17.63,-55.96 -44.02,-66.04 -201.83,-77.12 -420.64,-38.72 -578.55,-88.04 -267.9,16.33 -521.07,19.33 -707.46,-37.71 -102.72,-30.32 -133.66,-75.87 -84.91,-138.36 8.5,-58.29 102.14,-88.24 248.42,-100.62 388.35,-27.58 726.79,-87.91 1115.12,-115.49 408.18,-28.99 866.32,-25.3 1274.53,-54.31 141.73,-5.3 261.67,-35.44 320.72,-135.19 -966.19,-125.38 -1883.71,-130.86 -2745.85,-31.79 -236.23,27.14 -509.28,37.63 -728.6,85.24 -438.47,95.19 -1002.7,133.84 -1288.64,293.01 -113.91,63.42 -186.81,-61.87 -100.62,-125.26zm3239.2 639.13c-74.59,62.5 -156.47,93.51 -240.44,115.54 78.77,-38.5 158.56,-77.03 240.44,-115.54zm-1229.45 -494.03c-39.02,5.81 -53.41,40.77 -6.92,26.55 9.3,-2.86 52.34,-3.65 35.29,-25.61 -1.84,-2.36 -21.07,-2.02 -28.36,-0.94zm-1014.65 -287.57c-101.35,38.81 -197.22,47.44 -280.31,26.56 88.34,4.29 173.9,-12.51 258.32,-57.71 40.64,-21.75 52.76,19.36 21.99,31.15zm597.26 -115.43c-98.9,19.25 -205.52,50.68 -301.38,23.81 112.68,-6.09 183.2,-63.13 277.56,-84.26 53.53,-11.98 72.3,51.02 23.82,60.45zm482.26 -113.57c-69.93,3.87 -136.06,30.77 -200.06,41.02 -65.79,10.53 -130.99,5.19 -189.5,21.45 -19.39,5.38 -7.98,42.92 10.23,43.16 74.05,1 137.07,-36.73 210.11,-48.82 54.88,-9.07 120.86,2.37 173.77,-14.8 33.77,-10.96 24.42,-43.62 -4.54,-42.02zm321.42 25c-89.91,-15.88 -179.16,-11.51 -248.74,28.39 37.61,-42.75 80.95,-78.78 157.88,-65.87 75.15,12.61 133.89,7.78 160.15,-36.34 17.51,-29.43 93.61,-15.67 169.22,-2.28 -47.64,7.21 -110.8,1.66 -129.48,30.67 -23.09,35.86 -38.11,57.97 -109.03,45.44zm1192.71 -58.78c-218.73,-2.75 -497.02,5.31 -782.67,14.76 248.44,-29.22 499.94,-56.14 784.95,-57.93 34.46,7.67 26.13,35.17 -2.27,43.17zm862.03 14.18c64.59,-2.67 96.07,5.72 85.8,28.06 88.88,8.55 163.8,23.22 215.28,48.36 25.01,23.12 -3.12,32.47 -90.49,26.51 -83.34,-12.6 -154.31,-32.64 -216.83,-57.71 -113.29,-28.41 -244.41,-44.36 -399.35,-43.68 117.58,-14.99 242.13,-24.16 405.58,-1.55zm-567.81 -167.71c-23.1,-18.32 -94.9,-25.1 -59.41,5.74 0.87,0.72 51.78,17.34 52.77,13.89 2.39,-8.23 15.25,-12.8 6.63,-19.64zm28.09 106.87c-42.26,-64.85 -95.66,12.4 -18.74,9.35 15.3,-0.61 10.9,-21.39 18.74,-9.35zm-301.83 -73.28c-5.38,-2.06 -65.73,-1.83 -72.65,2.2 -6.39,3.69 -42.61,22.79 -42.5,24.39 0.94,13.77 102.5,12.51 103.16,7.94 3.04,-21.09 -55.53,-15.05 -31.45,-18.35 12.84,-1.78 36.04,4.64 39.54,-15.91 0.41,-2.4 3.29,-0.5 3.91,-0.26z"/>
  <path class="fil1" d="M1058.58 772.08c7.98,31.49 13.28,121.86 37.08,142.52 13.02,11.3 40.67,15.61 56.42,21.43 18.44,6.84 36.9,13.67 55.36,20.48 27.55,10.23 12.49,6.69 30.06,-4.37 -38.12,24.04 -99,47.26 -128.14,81.74 -20.26,24 -6.47,118.13 -7.75,150.26 15.25,-5.01 30.55,-10.02 45.8,-15.04 -28.38,-23.65 -81.72,-90.56 -118.37,-95.16 -46.9,-5.89 -111.99,28.2 -156.78,40.78 8.73,2.03 17.43,4.05 26.14,6.08 11.55,-28.94 61.62,-108.06 53.81,-137.1 -10.86,-40.65 -58.22,-87.38 -81.78,-122.69 -12.36,6.67 -24.71,13.32 -37.05,19.99 48.78,3.22 114.11,20.66 161.83,7.86 44.41,-11.87 81.9,-89.65 108.84,-123.76 11.48,-14.55 -35.36,-9.11 -43.53,1.25 -29.88,37.81 -59.76,75.65 -89.65,113.49 12.22,-3.99 24.46,-7.96 36.68,-11.92 -48.12,-3.18 -96.23,-6.37 -144.33,-9.53 -7.76,-0.52 -46.75,5.49 -37.08,19.99 26.36,39.54 52.73,79.06 79.07,118.6 5.99,8.95 -46.18,111.65 -53.89,130.92 -4.52,11.3 22.46,7.13 26.13,6.11 45.73,-12.86 91.49,-25.7 137.23,-38.53 -21.3,5.97 -26.96,-5.08 -9.59,9.39 14.15,11.77 28.32,23.54 42.46,35.34 18.52,15.43 37.05,30.84 55.59,46.27 10.3,8.59 45.23,-0.11 45.83,-15.01 1.9,-47.5 3.82,-94.97 5.73,-142.42 -0.32,8.28 -13.03,11.65 5.06,0.24 15.56,-9.81 31.14,-19.61 46.73,-29.45 20.38,-12.86 40.78,-25.72 61.19,-38.56 4.88,-3.09 15.65,-11.53 4.95,-15.47 -44.55,-16.51 -89.11,-33 -133.66,-49.48 -8.65,-3.21 -27.68,-115.96 -33,-136.93 -3.46,-13.71 -50.89,-1.24 -47.37,12.69z"/>
  <path class="fil0" d="M5631.62 713.77c-41.86,39.34 -83.71,78.69 -125.58,118.04 13.95,-13.11 28.95,-3.58 0.47,-9.77 -21.17,-4.59 -42.34,-9.17 -63.51,-13.76 -28.34,-6.15 -56.67,-12.31 -84.98,-18.44 -5.95,-1.31 -31.42,2.73 -26.03,14.17 24.49,51.98 48.98,103.96 73.47,155.93 5.7,12.1 -72.09,122.39 -86.01,146.23 -5.12,8.79 7.15,12.2 13.5,11.41 56.98,-7.24 113.99,-14.47 170.98,-21.69 -14.36,1.83 -9.03,-0.89 2.99,12.57 14.45,16.17 28.87,32.34 43.3,48.5 19.3,21.61 38.6,43.24 57.92,64.85 7.44,8.33 29.33,2.73 31.44,-8.43 10.73,-56.43 21.48,-112.88 32.2,-169.31 -2.07,10.89 -8.57,7.85 10.77,-0.67 19.84,-8.73 39.69,-17.46 59.5,-26.19 26.54,-11.67 53.06,-23.35 79.6,-35.02 5.66,-2.51 15.01,-11.65 5.97,-16.61 -50.35,-27.66 -100.72,-55.32 -151.06,-82.97 -10.18,-5.58 -12.67,-143.43 -15.31,-169.56 -1.29,-12.75 -34,-5.2 -32.59,8.73 2.91,28.85 5.82,57.68 8.74,86.52 1.89,18.86 -2.78,73.81 9.99,88.89 13.68,16.19 47.63,26.77 65.81,36.74 29.63,16.27 59.24,32.53 88.85,48.81 2.01,-5.54 4.01,-11.07 6,-16.61 -30.92,13.61 -61.87,27.22 -92.8,40.85 -20.8,9.16 -56.37,16.89 -72.91,33.59 -13.79,13.94 -13.2,58.64 -16.62,76.57 -6.31,33.21 -12.62,66.4 -18.94,99.6 10.49,-2.81 20.96,-5.61 31.44,-8.43 -22.51,-25.2 -45.02,-50.41 -67.55,-75.62 -12.33,-13.82 -34.52,-51.95 -53.6,-57.16 -22.52,-6.17 -57.49,5.76 -79.8,8.58 -33.54,4.25 -67.05,8.51 -100.57,12.75 4.48,3.8 8.98,7.6 13.49,11.39 14.59,-25.05 29.18,-50.09 43.8,-75.13 12.62,-21.62 40.3,-52.76 44.82,-77.83 2.96,-16.32 -24.31,-54.11 -30.98,-68.29 -14.42,-30.58 -28.82,-61.14 -43.22,-91.73 -8.67,4.74 -17.34,9.46 -26.02,14.18 33.03,7.18 66.06,14.35 99.07,21.5 22.55,4.89 59.5,21.42 83.15,15.1 20.12,-5.41 39.19,-32.62 53.38,-45.92 28.03,-26.36 56.08,-52.73 84.12,-79.07 14.36,-13.51 -17.69,-15.74 -26.66,-7.3z"/>
 </g>
</svg>
