<?xml version="1.0" encoding="UTF-8"?>
<!DOCTYPE svg PUBLIC "-//W3C//DTD SVG 1.1//EN" "http://www.w3.org/Graphics/SVG/1.1/DTD/svg11.dtd">
<!-- Creator: CorelDRAW -->
<svg xmlns="http://www.w3.org/2000/svg" xml:space="preserve" width="36.538mm" height="37.0165mm" version="1.1" style="shape-rendering:geometricPrecision; text-rendering:geometricPrecision; image-rendering:optimizeQuality; fill-rule:evenodd; clip-rule:evenodd"
viewBox="0 0 7269.88 7365.08"
 xmlns:xlink="http://www.w3.org/1999/xlink"
 xmlns:xodm="http://www.corel.com/coreldraw/odm/2003">
 <defs>
  <style type="text/css">
   <![CDATA[
    .fil2 {fill:none}
    .fil0 {fill:#00193f}
    .fil1 {fill:#00193f;fill-rule:nonzero}
   ]]>
  </style>
 </defs>
 <g id="Capa_x0020_1">
  <metadata id="CorelCorpID_0Corel-Layer"/>
  <g id="_2708241274080">
   <g>
    <path class="fil0" d="M5249.72 4814.2c42.68,-33.29 83.31,35.58 47.14,61.7 -162.6,117.45 -221.11,278.49 -102.05,395.69 206.09,202.85 390.75,80.62 486.71,-47.18 123.08,-163.93 70.12,-344.11 0,-493.68 -247.06,-526.83 -323.44,-1004.91 -263,-1452.08 73.54,-544.02 538.94,-715.47 832.16,-595.33 95.5,39.12 27.68,159.13 -82.45,101.63 -264.77,-138.26 -541.65,12.4 -624.1,373.9 -106.45,466.54 5.71,954.71 255.14,1491.98 107.52,231.64 100.14,477.58 -70.63,642.55 -214.88,207.6 -472.23,232.49 -643.78,36.31 -150.66,-172.27 -28.41,-364.53 164.86,-515.49zm803.61 -2326.65c77.46,74.31 170.81,-14.86 98.97,-85.42 -94.39,-92.64 -148.51,-235.56 -158.34,-420.98 -30.8,-581.54 236.49,-1188.95 -85.77,-1744.99 -149.54,-258 -413.79,-274.56 -653.13,-30.52 -185.76,189.4 -182.45,403.61 19.78,543.02 159.45,109.95 333.21,42.8 488.21,-164.71 53.1,-71.11 -28.17,-120.99 -79.13,-36.61 -92.04,152.47 -238.08,205.18 -382.67,85.42 -116.48,-96.48 -131.44,-253.15 6.61,-384.41 168.74,-160.47 400.36,-149.23 527.8,30.52 289.96,408.92 112.14,857.35 98.97,1287.38 -10.62,345.07 -123.22,689.18 118.72,921.28zm-5191.34 3915.64c-45.42,45.3 -40.53,1.39 -13.61,-53.08 54.24,-109.55 52.61,-216.72 -21.83,-318.31 -41.19,-56.25 -94.79,-103.84 -155.23,-146.68 -136.45,82.21 -274.16,160.94 -418.75,217.53 -68.44,26.76 -87.65,-47.59 -18.19,-75.75 127.28,-51.61 247.93,-117.97 366.16,-188.22 -206.81,-126.92 -461.76,-219.74 -582.6,-403.09 -58.52,-88.84 40.15,-134.44 95.6,-47.97 121.95,190.07 364.61,277.92 561.47,406.23 321.69,-195.62 631.48,-403.09 1015.39,-398.15 415.58,5.35 774.64,132.55 1028.32,412.42 57.78,63.73 -12.02,114.86 -90.97,46.26 -274.26,-238.42 -593.48,-355.65 -937.36,-366.08 -353.29,-10.68 -649.67,171.97 -947.42,353.33 51.51,39.34 97.93,83.09 135.46,134.62 102.37,140.59 103.12,307.58 -16.45,426.94zm2715.65 -555.22c-40.81,47.08 -86.39,28.53 -67.73,-35.02 49.58,-168.76 187.17,-244.67 347.32,-130.68 165.76,117.93 183.95,308.98 51.45,470.26 -238.9,290.83 -634.15,274.95 -1011.95,129.71 -384.19,-147.73 -794.02,-436.63 -1086.92,-483.71 -256.55,-41.21 -446.9,22.26 -509.48,169.64 -84.8,199.62 85.4,359.24 254.72,285.06 112,-49.07 244.15,99.72 15.28,146.02 -117.39,23.74 -225.69,-16 -300.58,-153.13 -66.38,-121.51 -60.17,-253.58 27.99,-400.48 95.92,-159.83 289.28,-216.28 555.34,-160.21 241.69,50.96 733.97,423.56 1132.94,519.11 393.32,94.21 704.88,67.45 882.04,-111.52 87.51,-88.38 100.78,-213.79 -33.15,-292.12 -89.93,-52.61 -186.61,-34.54 -257.28,47.08zm1342.43 -76.56c60.96,-40.33 91.62,-18.66 53.52,34.2 -94.93,131.6 -201.14,259.33 -519.66,244.99 -259.71,-11.72 -403.61,-316.66 -596.05,-492.37 -51.43,-46.94 35.2,-139.42 99.32,-68.35 127.72,141.47 202.61,325.83 389.78,419.34 126.07,62.99 272.98,79.21 399.9,23.56 74.04,-32.41 106.67,-117.33 173.18,-161.38z"/>
    <path class="fil1" d="M6435.11 824.86c11.4,10.8 11.12,28.17 -0.56,38.74 -11.7,10.55 -30.48,10.29 -41.88,-0.52 -55.11,-52.63 -103.5,-105.05 -149.64,-155.04 -79.37,-86.07 -152.35,-165.1 -240.97,-224.16 -13.23,-8.81 -16.22,-25.93 -6.69,-38.16 9.53,-12.24 28.05,-15 41.27,-6.19 94.67,63.07 169.74,144.35 251.36,232.89 45.38,49.18 93.12,100.86 147.12,152.43zm-661.37 -780.05c-10.43,-11.6 -8.69,-28.85 3.84,-38.48 12.53,-9.65 31.18,-8.04 41.6,3.54 80.64,89.83 165.38,167.05 253.27,234.14 87.61,66.83 178.71,123.9 272.21,173.52 14.21,7.48 19.12,24.29 11.02,37.45 -8.08,13.13 -26.26,17.67 -40.47,10.19 -95.84,-50.84 -189.62,-109.63 -280.35,-178.87 -90.41,-69.04 -177.82,-148.73 -261.12,-241.49zm-4192.43 6097.62c10.53,11.54 8.97,28.87 -3.5,38.6 -12.5,9.73 -31.24,8.3 -41.74,-3.24 -42.5,-46.46 -77.56,-96.06 -105.37,-148.41 -27.76,-52.39 -48.29,-107.34 -61.66,-164.53 -3.46,-14.78 6.74,-29.41 22.72,-32.61 16,-3.18 31.8,6.23 35.26,21.01 12.48,53.3 31.36,104.1 56.79,152.09 25.53,48.03 57.96,93.85 97.51,137.09zm331.62 265.34c3.82,14.66 -5.95,29.49 -21.79,33.03 -15.86,3.56 -31.87,-5.49 -35.71,-20.14 -29.59,-112.79 -73.72,-219.18 -128.93,-320.56 -55.25,-101.55 -121.77,-198.21 -195.96,-291.29 -9.67,-12.2 -6.82,-29.35 6.37,-38.3 13.19,-8.95 31.74,-6.31 41.43,5.87 75.95,95.33 144.19,194.59 201.1,299.07 57.02,104.8 102.75,215.04 133.51,332.32zm298.47 -14.86c10.37,11.68 8.56,28.93 -4.08,38.52 -12.61,9.59 -31.28,7.92 -41.64,-3.76 -84.62,-94.89 -153.46,-197.1 -210.73,-304.4 -56.98,-106.87 -102.75,-219.08 -141.37,-334.35 -4.76,-14.43 3.98,-29.79 19.6,-34.18 15.6,-4.42 32.19,3.66 36.97,18.11 37.72,112.54 82.31,222.03 137.9,326.23 55.33,103.7 121.81,202.41 203.34,293.84zm349.51 86.07c8,13.13 2.94,29.83 -11.26,37.23 -14.21,7.38 -32.25,2.73 -40.25,-10.43 -47.91,-78.41 -89.48,-157.88 -122.29,-238.32 -33.15,-81.28 -57.72,-163.93 -71.53,-247.93 -2.37,-14.96 8.79,-29.01 24.97,-31.22 16.18,-2.21 31.38,8.14 33.74,23.08 13.19,80.42 36.65,159.31 68.25,236.79 31.89,78.19 72.09,155.1 118.37,230.8zm332.28 -6.96c12.16,10.13 13.13,27.46 2.19,38.7 -10.94,11.24 -29.69,12.14 -41.82,2.03 -54.28,-45.09 -97.93,-97.35 -131.14,-156.33 -32.95,-58.58 -55.75,-123.98 -68.52,-195.82 -2.61,-14.92 8.32,-29.01 24.45,-31.44 16.12,-2.43 31.36,7.7 33.98,22.6 11.68,65.8 32.57,125.77 62.73,179.33 29.96,53.22 69.28,100.34 118.13,140.93zm332.26 29.83c10.66,11.42 9.31,28.75 -3.02,38.62 -12.36,9.85 -31.1,8.6 -41.74,-2.83 -28.95,-30.9 -54.32,-63.81 -73.78,-99.42 -19.76,-36.31 -33.61,-75.57 -38.98,-118.62 -1.83,-15 9.87,-28.67 26.08,-30.34 16.22,-1.69 31,9.11 32.81,24.11 4.5,36.27 16.22,69.44 33.01,100.22 17.15,31.38 39.73,60.61 65.62,88.26zm329.85 -3.8c10.6,11.46 9.15,28.79 -3.22,38.6 -12.4,9.83 -31.14,8.48 -41.74,-2.98 -19.4,-20.83 -36.51,-44.13 -50.54,-70.24 -13.89,-25.91 -24.81,-54.7 -32.07,-86.63 -3.3,-14.8 6.96,-29.33 22.96,-32.39 15.98,-3.06 31.7,6.45 35.02,21.23 6.17,27.2 15.46,51.71 27.2,73.58 11.64,21.71 26.04,41.25 42.4,58.83zm263.27 13.09c9.77,12.08 7.14,29.27 -5.89,38.32 -13.05,9.03 -31.66,6.61 -41.43,-5.45 -22.72,-27.97 -39.77,-56.11 -52.25,-84.22 -12.67,-28.49 -20.71,-56.63 -25.35,-84.38 -2.47,-14.96 8.66,-29.05 24.83,-31.34 16.18,-2.29 31.42,8 33.88,22.94 4.02,24.31 10.84,48.39 21.31,71.95 10.66,23.96 25.29,48.07 44.89,72.19zm300.58 -62.12c9.53,12.28 6.45,29.49 -6.82,38.3 -13.29,8.83 -31.89,5.97 -41.43,-6.31 -27.4,-35.36 -51.47,-75.87 -72.64,-120.4 -20.85,-43.75 -38.8,-91.56 -54.32,-142.32 -4.4,-14.52 4.82,-29.69 20.51,-33.76 15.72,-4.06 32.11,4.46 36.51,18.98 14.78,48.29 31.83,93.67 51.47,135.06 19.26,40.67 41.37,77.78 66.71,110.45zm286.83 -25.03c5.79,14.15 -1.87,30.04 -17.17,35.42 -15.28,5.35 -32.49,-1.73 -38.28,-15.88 -41.23,-99.76 -86.67,-193.97 -136.03,-282.59 -49.58,-89.1 -103.3,-172.96 -160.81,-251.34 -9.15,-12.46 -5.61,-29.49 7.86,-37.96 13.47,-8.48 31.87,-5.19 41.05,7.26 59.17,80.66 114.15,166.4 164.55,256.97 50.68,90.99 97.08,187.09 138.84,288.12zm308.66 24.43c9.91,12.02 7.38,29.23 -5.61,38.38 -12.99,9.17 -31.6,6.84 -41.52,-5.19 -44.25,-53.68 -82.11,-110.71 -111.24,-171.75 -29.23,-61.22 -49.74,-126.7 -59.41,-197.18 -2.01,-14.96 9.49,-28.71 25.67,-30.56 16.16,-1.85 31.04,8.77 33.05,23.74 8.87,64.84 27.9,125.33 54.92,181.96 27.12,56.81 62.56,110.15 104.16,160.61zm448.43 39.51c9.67,12.18 6.82,29.35 -6.37,38.3 -13.17,8.95 -31.74,6.31 -41.43,-5.89 -60.15,-75.43 -114.88,-153.17 -162.62,-233.71 -47.77,-80.54 -88.5,-163.93 -120.55,-250.7 -5.23,-14.31 3.08,-29.87 18.54,-34.7 15.48,-4.85 32.31,2.85 37.55,17.15 30.8,83.35 70.18,163.85 116.4,241.88 46.18,78.07 99.56,153.82 158.48,227.66zm276.62 -76.86c11.18,10.96 10.62,28.35 -1.25,38.68 -11.88,10.33 -30.66,9.81 -41.84,-1.17 -62.22,-61.38 -120.65,-126.88 -172.17,-199.25 -51.69,-72.62 -96.14,-151.91 -130.12,-240.39 -5.43,-14.27 2.67,-29.96 18.09,-34.98 15.42,-5.01 32.39,2.47 37.82,16.73 32.43,84.56 74.69,159.91 123.58,228.63 49.14,69.04 105.55,132.15 165.9,191.75zm151.69 -167.53c8.52,12.89 4.08,29.79 -9.85,37.66 -13.95,7.86 -32.21,3.76 -40.73,-9.13 -88.06,-133.19 -169.96,-268.17 -246.16,-404.42 -75.97,-135.84 -146.5,-273.34 -212.18,-412.04 -6.49,-13.83 0.34,-30 15.28,-36.01 14.96,-6.01 32.45,0.32 38.96,14.15 64.96,137.17 134.94,273.6 210.59,408.84 75.35,134.78 156.55,268.59 244.09,400.96zm423.14 22.78c11.26,10.94 10.8,28.31 -1.03,38.74 -11.82,10.43 -30.6,9.99 -41.88,-0.96 -110.55,-107.42 -209.37,-221.51 -291.07,-344.89 -82.05,-123.78 -146.98,-256.93 -189.56,-401.83 -4.26,-14.6 5.09,-29.75 20.89,-33.69 15.8,-3.92 32.15,4.72 36.41,19.34 41.09,139.85 103.72,268.29 182.83,387.65 79.33,119.8 175.57,230.9 283.41,335.64zm254.4 -67.87c7.42,13.49 1.59,30.04 -12.99,36.91 -14.6,6.88 -32.49,1.47 -39.93,-12.02 -69.66,-126.19 -144.67,-246.36 -226.48,-358.6 -81.76,-112.18 -170.44,-216.58 -267.33,-311.26 -11.26,-10.92 -10.8,-28.31 1.03,-38.72 11.82,-10.43 30.6,-9.99 41.88,0.96 99.52,97.18 190.25,204 273.6,318.35 83.35,114.35 159.59,236.47 230.23,364.39zm69.08 -458.98c7.44,13.39 1.63,29.9 -12.85,36.79 -14.48,6.86 -32.35,1.51 -39.77,-11.9 -55.45,-99.9 -119.2,-187.53 -189.83,-265 -70.59,-77.42 -148.15,-144.69 -231.16,-203.88 -12.91,-9.19 -15.28,-26.44 -5.33,-38.38 9.95,-11.94 28.61,-14.13 41.5,-4.93 86.35,61.56 166.93,131.48 240.23,211.84 73.24,80.32 139.5,171.45 197.22,275.47zm-3.5 -389.48c5.85,14.05 -1.73,29.96 -16.93,35.38 -15.18,5.39 -32.39,-1.61 -38.22,-15.66 -48.53,-116.38 -111.16,-223.8 -183.67,-324.62 -72.6,-100.86 -155.43,-195.33 -244.39,-285.72 -10.98,-11.2 -10.15,-28.57 1.97,-38.74 12.1,-10.15 30.9,-9.37 41.88,1.83 90.63,92.08 175.25,188.64 249.9,292.36 74.59,103.7 139.16,214.59 189.46,335.16zm-9.07 -537.17c10.74,11.32 9.49,28.65 -2.77,38.6 -12.24,9.95 -30.98,8.77 -41.74,-2.55 -118.49,-125.69 -233.87,-256.71 -346.1,-392.46 -111.86,-135.3 -221.61,-276.51 -329.07,-422.79 -9.17,-12.46 -5.61,-29.49 7.84,-37.96 13.47,-8.48 31.89,-5.19 41.05,7.26 105.97,144.21 215.08,284.54 327.32,420.3 111.9,135.36 226.39,265.38 343.48,389.6zm15.94 -425.97c11.18,10.98 10.62,28.37 -1.25,38.7 -11.88,10.33 -30.66,9.81 -41.84,-1.17 -128,-126.23 -250.94,-261.03 -369.06,-403.25 -117.93,-141.96 -231.42,-291.95 -340.85,-448.73 -8.79,-12.71 -4.82,-29.71 8.91,-37.84 13.75,-8.12 32.11,-4.44 40.91,8.26 108.36,155.25 220.97,304.04 338.17,445.11 117.05,140.99 238.68,274.3 365.03,398.93zm11.56 -304.2c10.23,11.76 8.18,29.05 -4.54,38.52 -12.71,9.45 -31.42,7.56 -41.66,-4.2 -53.52,-61.18 -104.8,-117.59 -155.93,-173.92 -185.88,-204.48 -371.87,-409.18 -523.64,-673.92 -7.58,-13.37 -2.01,-30 12.44,-37.01 14.43,-7 32.43,-1.87 40.01,11.5 148.73,259.37 332.73,461.92 516.54,664.23 53.46,58.97 107.08,117.99 156.79,174.79zm-101.39 -534.13c10.92,11.2 9.99,28.49 -2.11,38.62 -12.12,10.11 -30.8,9.23 -41.74,-1.95 -90.83,-93 -179.83,-187.67 -265.52,-284.8 -85.77,-97.2 -168.78,-197.53 -247.89,-301.79 -9.29,-12.38 -6.07,-29.45 7.3,-38.04 13.37,-8.62 31.83,-5.63 41.13,6.73 77.8,102.59 160.01,201.89 245.37,298.61 85.32,96.7 173.62,190.65 263.47,282.63zm84.5 -190.77c11.42,10.8 11.14,28.17 -0.56,38.74 -11.68,10.55 -30.48,10.29 -41.88,-0.52 -80.72,-76.88 -160.39,-157.24 -238.64,-241.15 -78.25,-83.86 -154.96,-171.15 -229.75,-261.84 -9.91,-12.04 -7.38,-29.23 5.61,-38.4 12.99,-9.17 31.6,-6.82 41.5,5.19 74.37,90.17 150.3,176.6 227.42,259.25 77.18,82.75 156.03,162.28 236.29,238.72zm47.41 -247.71c9.91,12.02 7.38,29.23 -5.61,38.38 -12.99,9.17 -31.6,6.84 -41.52,-5.17 -43.51,-52.85 -89.42,-103.84 -137.09,-153.09 -47.91,-49.42 -98.41,-97.87 -150.72,-145.27 -11.64,-10.59 -11.78,-27.92 -0.32,-38.68 11.44,-10.76 30.18,-10.9 41.82,-0.3 52.83,47.85 104.12,97.1 153.24,147.75 49.36,50.98 96.34,103.07 140.19,156.37zm-0.76 -597.72c11.84,10.43 12.3,27.8 1.03,38.74 -11.26,10.94 -30.06,11.38 -41.88,0.96 -59.09,-52.23 -112.89,-113.35 -162.64,-180.8 -49.13,-66.69 -94.61,-140.09 -137.53,-217.53 -7.42,-13.39 -1.63,-29.9 12.85,-36.79 14.5,-6.86 32.35,-1.51 39.79,11.9 41.64,75.17 85.85,146.54 133.79,211.56 47.43,64.33 98.59,122.52 154.58,171.97zm-343.44 -660.39c-13.09,-8.99 -15.84,-26.14 -6.13,-38.26 9.73,-12.1 28.29,-14.64 41.37,-5.65 56.39,38.56 109.07,83.31 157.44,134.52 48.43,51.23 92.8,109.07 132.53,173.62 8.04,13.15 3.08,29.92 -11.12,37.35 -14.23,7.44 -32.35,2.87 -40.39,-10.29 -37.86,-61.52 -79.89,-116.34 -125.51,-164.63 -45.62,-48.29 -95.19,-90.43 -148.19,-126.66zm373.58 -26.44c13.05,9.03 15.68,26.22 5.91,38.3 -9.79,12.06 -28.39,14.46 -41.43,5.43 -62.18,-43.1 -119.38,-95.11 -173.28,-152.51 -53.16,-56.55 -103.5,-119.06 -152.59,-183.83 -9.29,-12.36 -6.07,-29.43 7.3,-38.04 13.37,-8.6 31.83,-5.61 41.13,6.74 47.69,62.91 96.76,123.82 148.93,179.33 51.33,54.68 105.55,104 164.03,144.57zm-36.07 -346.42c12.38,9.81 13.83,27.16 3.22,38.6 -10.6,11.46 -29.37,12.81 -41.74,2.98 -45.9,-36.53 -92.46,-75.73 -140.01,-121.51 -47.53,-45.78 -96.14,-98.13 -146.3,-160.94 -9.73,-12.12 -6.96,-29.27 6.11,-38.26 13.09,-8.99 31.66,-6.45 41.39,5.65 48.47,60.7 95.5,111.32 141.45,155.59 45.9,44.19 91.11,82.27 135.89,117.89zm47.57 -311.64c9.17,12.53 5.57,29.61 -7.98,38.08 -13.57,8.48 -32.03,5.15 -41.19,-7.4 -45.9,-62.89 -97,-120.77 -151.79,-174.81 -55.57,-54.82 -114.8,-105.83 -176.23,-154.16 -12.4,-9.73 -13.89,-27.02 -3.36,-38.48 10.51,-11.46 29.21,-12.83 41.6,-3.1 63.71,50.18 124.67,102.59 181.08,158.22 57.26,56.51 110.47,116.67 157.86,181.66z"/>
   </g>
   <path class="fil1" d="M6568.2 909.8c0,-20.18 16.43,-36.61 36.61,-36.61 20.2,0 36.63,16.43 36.63,36.61l0 5790.21c0,20.2 -16.43,36.63 -36.63,36.63l-5790.21 0c-20.18,0 -36.61,-16.43 -36.61,-36.63 0,-20.18 16.43,-36.61 36.61,-36.61l5753.6 0 0 -5753.6z"/>
   <path class="fil1" d="M6784.61 345.65c0,-10.13 8.22,-18.32 18.32,-18.32 10.11,0 18.32,8.2 18.32,18.32l0 6552.5c0,10.11 -8.22,18.32 -18.32,18.32l-6552.5 0c-10.13,0 -18.32,-8.22 -18.32,-18.32 0,-10.11 8.2,-18.32 18.32,-18.32l6534.17 0 0 -6534.17z"/>
   <path class="fil2" d="M6802.94 6898.14l466.94 0m0 0l0 466.94m0 0l-466.94 0m0 0l0 -466.94"/>
  </g>
 </g>
</svg>
