<svg xmlns="http://www.w3.org/2000/svg" xmlns:xlink="http://www.w3.org/1999/xlink" width="1920" zoomAndPan="magnify" viewBox="0 0 1440 809.999993" height="1080" preserveAspectRatio="xMidYMid meet" version="1.0"><defs><clipPath id="dd3439d6d3"><path d="M 456 226.054688 L 541 226.054688 L 541 301 L 456 301 Z M 456 226.054688 " clip-rule="nonzero"/></clipPath><clipPath id="94c574ae72"><path d="M 456 228 L 811.953125 228 L 811.953125 505 L 456 505 Z M 456 228 " clip-rule="nonzero"/></clipPath></defs><path fill="#d9d9d9" d="M 683.746094 447.246094 C 684.671875 447.246094 685.601562 446.78125 686.0625 446.316406 C 687.457031 444.925781 687.457031 442.605469 686.0625 441.210938 L 462.945312 229.054688 C 461.550781 227.664062 459.234375 227.664062 457.839844 229.054688 C 456.449219 230.449219 456.449219 232.769531 457.839844 234.164062 L 680.960938 446.316406 C 681.890625 446.78125 682.816406 447.246094 683.746094 447.246094 Z M 683.746094 447.246094 " fill-opacity="1" fill-rule="nonzero"/><path fill="#d9d9d9" d="M 752.398438 340.9375 C 753.789062 340.9375 755.179688 340.007812 755.644531 338.617188 C 756.109375 336.757812 755.179688 334.902344 753.789062 333.972656 L 461.550781 228.128906 C 459.695312 227.664062 457.839844 228.59375 456.914062 229.984375 C 456.449219 231.84375 457.378906 233.699219 458.769531 234.628906 L 751.46875 340.9375 C 751.46875 340.9375 751.933594 340.9375 752.398438 340.9375 Z M 752.398438 340.9375 " fill-opacity="1" fill-rule="nonzero"/><g clip-path="url(#dd3439d6d3)"><path fill="#d9d9d9" d="M 460.625 300.546875 C 462.015625 300.546875 462.945312 299.621094 463.871094 298.691406 C 466.191406 294.511719 468.972656 291.726562 472.222656 290.335938 C 478.25 288.476562 485.210938 292.191406 485.210938 292.191406 C 486.136719 292.65625 487.066406 292.65625 487.992188 292.191406 C 488.921875 291.726562 489.847656 291.265625 489.847656 289.871094 C 491.238281 285.230469 494.023438 281.980469 497.269531 280.585938 C 501.910156 278.265625 507.011719 280.121094 507.476562 280.121094 C 508.402344 280.585938 509.792969 280.585938 510.722656 279.65625 C 511.648438 279.195312 512.113281 277.800781 512.113281 276.871094 C 512.113281 270.835938 513.503906 266.660156 516.753906 263.410156 C 521.855469 258.765625 528.8125 259.230469 529.277344 259.230469 C 530.203125 259.230469 531.597656 258.765625 532.058594 257.839844 C 532.988281 256.910156 532.988281 255.980469 532.523438 254.589844 C 528.347656 238.339844 538.554688 233.699219 538.554688 233.699219 C 540.410156 232.769531 541.335938 230.914062 540.410156 229.054688 C 539.480469 227.199219 537.625 226.269531 535.769531 227.199219 C 530.667969 229.054688 522.320312 236.949219 524.636719 252.269531 C 520.925781 252.730469 515.824219 254.125 511.648438 257.839844 C 507.9375 261.089844 505.621094 266.195312 504.691406 272.230469 C 501.910156 271.765625 497.734375 271.765625 493.558594 273.621094 C 489.382812 275.480469 486.136719 278.730469 484.28125 283.371094 C 480.570312 281.980469 475.003906 281.050781 469.4375 282.441406 C 463.871094 284.300781 459.695312 288.015625 456.914062 294.050781 C 455.984375 295.90625 456.914062 297.761719 458.304688 298.691406 C 459.695312 300.546875 460.160156 300.546875 460.625 300.546875 Z M 460.625 300.546875 " fill-opacity="1" fill-rule="nonzero"/></g><path fill="#d9d9d9" d="M 460.160156 370.648438 C 461.550781 370.648438 462.945312 369.71875 463.40625 368.328125 C 467.582031 357.183594 473.613281 349.757812 481.960938 346.972656 C 495.878906 341.863281 511.648438 350.222656 511.648438 350.222656 C 512.578125 350.6875 513.96875 350.6875 514.898438 350.222656 C 515.824219 349.757812 516.753906 348.828125 516.753906 347.4375 C 518.609375 337.222656 522.320312 330.257812 528.8125 327.007812 C 540.410156 320.511719 555.71875 327.007812 556.179688 327.007812 C 557.574219 327.472656 558.5 327.472656 559.890625 326.546875 C 560.820312 325.617188 561.285156 324.222656 561.285156 323.296875 C 558.964844 310.296875 560.355469 300.085938 566.386719 293.121094 C 574.734375 282.441406 590.042969 281.980469 590.042969 281.980469 C 590.972656 281.980469 592.363281 281.515625 592.828125 280.585938 C 593.289062 279.65625 593.753906 278.730469 593.289062 277.335938 C 590.042969 266.660156 590.042969 257.375 594.21875 249.945312 C 600.710938 238.339844 613.699219 235.089844 614.164062 235.089844 C 616.019531 234.628906 616.949219 232.769531 616.484375 230.914062 C 616.019531 229.054688 614.164062 228.128906 612.308594 228.59375 C 611.84375 228.59375 596.074219 232.769531 588.1875 246.699219 C 583.550781 255.054688 582.621094 264.339844 585.40625 275.480469 C 579.375 276.410156 568.242188 279.65625 560.820312 288.941406 C 554.789062 296.835938 552.46875 306.582031 553.863281 319.117188 C 547.367188 317.261719 535.769531 315.867188 526.03125 321.4375 C 518.609375 325.617188 513.96875 332.582031 511.1875 342.328125 C 504.691406 339.542969 492.167969 335.832031 479.644531 340.472656 C 469.4375 344.1875 462.015625 353.007812 456.914062 366.003906 C 456.449219 367.863281 457.378906 369.71875 458.769531 370.648438 C 459.234375 370.648438 459.695312 370.648438 460.160156 370.648438 Z M 460.160156 370.648438 " fill-opacity="1" fill-rule="nonzero"/><path fill="#d9d9d9" d="M 460.625 440.28125 C 462.015625 440.28125 463.40625 439.355469 463.871094 437.960938 C 469.902344 420.320312 479.179688 408.714844 491.703125 404.074219 C 513.96875 395.714844 539.019531 411.035156 539.480469 411.035156 C 540.410156 411.5 541.800781 411.5 542.730469 411.035156 C 543.65625 410.570312 544.585938 409.644531 544.585938 408.25 C 546.441406 392.003906 552.46875 380.859375 562.210938 374.824219 C 579.839844 364.148438 604.886719 373.433594 604.886719 373.433594 C 606.277344 373.898438 607.671875 373.433594 608.597656 372.96875 C 609.527344 372.039062 609.988281 370.648438 609.527344 369.71875 C 604.421875 350.222656 606.277344 334.902344 614.628906 323.761719 C 627.617188 306.121094 652.664062 304.726562 653.128906 304.726562 C 654.058594 304.726562 655.449219 304.261719 655.914062 303.332031 C 656.375 302.40625 656.839844 301.476562 656.375 300.085938 C 650.808594 283.835938 651.273438 269.910156 657.769531 258.765625 C 667.972656 240.199219 689.773438 234.628906 690.238281 234.628906 C 691.628906 234.628906 692.558594 232.769531 692.09375 230.914062 C 691.628906 229.054688 689.773438 227.664062 687.917969 228.128906 C 686.992188 228.59375 662.871094 234.628906 651.273438 255.519531 C 644.78125 267.585938 643.851562 281.980469 648.492188 298.226562 C 639.675781 299.621094 621.121094 303.796875 609.527344 319.582031 C 600.710938 331.1875 598.394531 346.507812 602.105469 365.539062 C 592.828125 363.21875 574.273438 359.96875 559.429688 369.253906 C 548.757812 375.753906 541.800781 386.894531 539.019531 402.679688 C 530.203125 398.5 509.332031 390.144531 489.847656 397.574219 C 475.003906 403.144531 464.335938 415.679688 457.839844 436.105469 C 457.378906 437.960938 458.304688 439.816406 460.160156 440.28125 C 459.695312 440.28125 460.160156 440.28125 460.625 440.28125 Z M 460.625 440.28125 " fill-opacity="1" fill-rule="nonzero"/><path fill="#d9d9d9" d="M 460.625 513.632812 C 462.015625 513.632812 463.40625 512.703125 463.871094 511.308594 C 471.757812 486.707031 484.28125 470.921875 501.445312 464.421875 C 532.058594 452.816406 567.777344 473.707031 568.242188 474.171875 C 569.167969 474.636719 570.5625 474.636719 571.488281 474.171875 C 572.417969 473.707031 573.34375 472.777344 573.34375 471.386719 C 575.199219 448.640625 583.550781 432.855469 597 424.5 C 620.660156 409.179688 654.058594 420.785156 654.058594 420.785156 C 655.449219 421.25 656.839844 420.785156 657.769531 419.855469 C 658.695312 418.929688 659.160156 417.535156 658.695312 416.140625 C 651.273438 390.144531 653.128906 369.253906 663.796875 354.398438 C 680.960938 330.257812 715.75 327.9375 716.214844 327.9375 C 717.144531 327.9375 718.070312 327.472656 719 326.546875 C 719.460938 325.617188 719.925781 324.222656 719.460938 323.296875 C 712.039062 301.941406 712.503906 283.371094 720.855469 268.515625 C 734.769531 242.984375 765.847656 235.089844 765.847656 235.089844 C 767.703125 234.628906 769.097656 232.769531 768.632812 230.914062 C 768.167969 229.054688 766.3125 227.664062 764.457031 228.128906 C 763.066406 228.59375 730.132812 236.949219 714.824219 264.800781 C 706.011719 280.585938 705.082031 299.621094 711.578125 321.4375 C 700.90625 322.832031 673.539062 328.402344 658.230469 350.6875 C 647.097656 366.46875 644.316406 387.359375 650.808594 412.429688 C 639.214844 409.644531 613.699219 405.464844 593.753906 418.464844 C 579.375 427.75 570.5625 443.53125 567.777344 465.351562 C 556.644531 459.78125 526.957031 447.246094 499.589844 457.921875 C 480.105469 465.351562 466.191406 482.527344 457.839844 508.988281 C 457.378906 510.847656 458.304688 512.703125 460.160156 513.167969 C 459.695312 513.632812 460.160156 513.632812 460.625 513.632812 Z M 460.625 513.632812 " fill-opacity="1" fill-rule="nonzero"/><g clip-path="url(#94c574ae72)"><path fill="#d9d9d9" d="M 584.011719 504.8125 C 584.476562 504.8125 584.941406 504.8125 585.40625 504.347656 C 587.261719 503.417969 587.722656 501.5625 587.261719 499.703125 L 465.726562 235.089844 L 808.523438 235.089844 C 810.84375 235.089844 812.234375 233.699219 812.234375 231.84375 C 812.234375 229.984375 810.84375 228.128906 808.523438 228.128906 L 460.160156 228.128906 C 458.769531 228.128906 457.839844 228.59375 457.378906 229.519531 C 456.914062 230.449219 456.449219 231.84375 456.914062 232.769531 L 580.765625 502.953125 C 581.230469 504.347656 582.621094 504.8125 584.011719 504.8125 Z M 584.011719 504.8125 " fill-opacity="1" fill-rule="nonzero"/></g><path fill="#d9d9d9" d="M 460.625 549.839844 C 462.480469 549.839844 464.335938 548.449219 464.335938 546.128906 L 464.335938 231.84375 C 464.335938 229.984375 462.945312 228.128906 460.625 228.128906 C 458.304688 228.128906 456.914062 229.519531 456.914062 231.84375 L 456.914062 546.59375 C 456.914062 548.449219 458.769531 549.839844 460.625 549.839844 Z M 460.625 549.839844 " fill-opacity="1" fill-rule="nonzero"/></svg>