<?xml version="1.0" encoding="UTF-8"?>
<!DOCTYPE svg PUBLIC "-//W3C//DTD SVG 1.1//EN" "http://www.w3.org/Graphics/SVG/1.1/DTD/svg11.dtd">
<!-- Creator: CorelDRAW -->
<svg xmlns="http://www.w3.org/2000/svg" xml:space="preserve" width="200px" height="202px" version="1.1" style="shape-rendering:geometricPrecision; text-rendering:geometricPrecision; image-rendering:optimizeQuality; fill-rule:evenodd; clip-rule:evenodd"
viewBox="0 0 176.35 177.93"
 xmlns:xlink="http://www.w3.org/1999/xlink"
 xmlns:xodm="http://www.corel.com/coreldraw/odm/2003">
 <defs>
  <style type="text/css">
   <![CDATA[
    .fil0 {fill:#f86624}
   ]]>
  </style>
 </defs>
 <g id="Capa_x0020_1">
  <metadata id="CorelCorpID_0Corel-Layer"/>
  <path class="fil0" d="M88.69 0c22.52,0.11 44.26,8.95 60.52,24.54 16.65,15.96 26.24,37.36 27.08,60.41 0.82,22.51 -7.04,44.62 -21.94,61.5 -16.35,18.52 -39.09,29.16 -63.65,29.86 -0.81,0.03 -1.67,0.04 -2.49,0.04 0,0 -0.03,0 -0.03,0 -13.24,0 -26.35,-2.99 -38.22,-8.7l-46.16 10.27c-0.03,0.01 -0.08,0.01 -0.12,0.01 -0.38,0 -0.68,-0.3 -0.68,-0.68 0,-0.03 0.01,-0.06 0.01,-0.09l7.8 -46.67c-6.66,-12.15 -10.37,-25.85 -10.77,-39.79 -0.68,-23.54 7.85,-45.93 24.03,-63.06 16.76,-17.75 39.65,-27.64 64.19,-27.64l0.43 0zm-0.49 15.3c-0.69,0 -1.43,0.01 -2.12,0.03 -40.16,1.15 -71.9,34.76 -70.75,74.93 0.35,12.27 3.81,24.3 9.99,34.82l1.34 2.27 -5.77 31.67 31.34 -7.4 2.36 1.24c10.33,5.37 21.9,8.18 33.59,8.18 0.69,0 1.39,-0.01 2.08,-0.03 40.17,-1.15 71.91,-34.76 70.76,-74.93 -1.13,-39.46 -33.59,-70.79 -72.82,-70.79l0 0.01zm-30.48 30.28c1.47,0.05 2.95,0.09 4.23,0.18 1.58,0.11 3.32,0.24 4.87,3.98 1.83,4.44 5.79,15.52 6.31,16.65 0.52,1.12 0.85,2.43 0.06,3.88 -0.78,1.46 -1.17,2.37 -2.32,3.63 -1.14,1.26 -2.41,2.81 -3.43,3.77 -1.15,1.07 -2.34,2.24 -1.11,4.49 1.22,2.26 5.44,9.64 11.83,15.72 8.23,7.8 14.82,10.38 17.44,11.6 0.94,0.44 1.73,0.65 2.42,0.65 0.94,0 1.69,-0.4 2.41,-1.13 1.38,-1.39 5.52,-6.23 7.27,-8.46 0.91,-1.16 1.74,-1.57 2.64,-1.57 0.72,0 1.48,0.26 2.37,0.61 2.01,0.81 12.72,6.5 14.9,7.67 2.18,1.18 3.64,1.78 4.16,2.72 0.53,0.94 0.39,5.37 -1.62,10.48 -2,5.12 -11.18,9.83 -15.25,10.07 -1.19,0.07 -2.37,0.24 -3.89,0.24 -3.69,0 -9.43,-0.97 -22.49,-6.59 -22.22,-9.57 -35.71,-33.08 -36.77,-34.59 -1.06,-1.51 -8.67,-12.28 -8.33,-23.18 0.33,-10.89 6.21,-16.08 8.31,-18.23 2.01,-2.06 4.31,-2.59 5.8,-2.59l0.18 0 0.01 0z"/>
 </g>
</svg>
