<?xml version="1.0" encoding="UTF-8"?>
<!DOCTYPE svg PUBLIC "-//W3C//DTD SVG 1.1//EN" "http://www.w3.org/Graphics/SVG/1.1/DTD/svg11.dtd">
<!-- Creator: CorelDRAW -->
<svg xmlns="http://www.w3.org/2000/svg" xml:space="preserve" width="252px" height="252px" version="1.1" style="shape-rendering:geometricPrecision; text-rendering:geometricPrecision; image-rendering:optimizeQuality; fill-rule:evenodd; clip-rule:evenodd"
viewBox="0 0 292.08 292.08"
 xmlns:xlink="http://www.w3.org/1999/xlink"
 xmlns:xodm="http://www.corel.com/coreldraw/odm/2003">
 <defs>
  <style type="text/css">
   <![CDATA[
    .fil0 {fill:#f86624;fill-rule:nonzero}
   ]]>
  </style>
 </defs>
 <g id="Capa_x0020_1">
  <metadata id="CorelCorpID_0Corel-Layer"/>
  <path class="fil0" d="M146.04 0c40.32,0 76.83,16.35 103.26,42.77 26.43,26.43 42.78,62.94 42.78,103.27 0,40.32 -16.35,76.83 -42.78,103.26 -26.43,26.43 -62.94,42.78 -103.26,42.78 -40.33,0 -76.84,-16.35 -103.27,-42.78 -26.42,-26.43 -42.77,-62.94 -42.77,-103.26 0,-40.33 16.35,-76.84 42.77,-103.27 26.43,-26.42 62.94,-42.77 103.27,-42.77zm-54.86 173.94c-1.85,-1.9 -1.81,-4.95 0.1,-6.8 1.9,-1.85 4.95,-1.81 6.8,0.09l43.34 44.76 0 -145.48c0,-2.66 2.16,-4.82 4.83,-4.82 2.66,0 4.82,2.16 4.82,4.82l0 145.48 43.35 -44.76c1.85,-1.9 4.89,-1.94 6.8,-0.09 1.9,1.85 1.94,4.9 0.09,6.8l-51.34 53.01c-0.89,1.07 -2.23,1.76 -3.72,1.76 -1.49,0 -2.82,-0.68 -3.7,-1.74l-51.37 -53.03zm151.3 -124.35c-24.68,-24.68 -58.78,-39.94 -96.44,-39.94 -37.66,0 -71.77,15.26 -96.45,39.94 -24.68,24.68 -39.94,58.78 -39.94,96.45 0,37.66 15.26,71.76 39.94,96.44 24.68,24.68 58.79,39.95 96.45,39.95 37.66,0 71.76,-15.27 96.44,-39.95 24.68,-24.68 39.95,-58.78 39.95,-96.44 0,-37.67 -15.27,-71.77 -39.95,-96.45z"/>
 </g>
</svg>
