<?xml version="1.0" encoding="UTF-8"?>
<!DOCTYPE svg PUBLIC "-//W3C//DTD SVG 1.1//EN" "http://www.w3.org/Graphics/SVG/1.1/DTD/svg11.dtd">
<!-- Creator: CorelDRAW -->
<svg xmlns="http://www.w3.org/2000/svg" xml:space="preserve" width="79.16mm" height="23.6394mm" version="1.1" style="shape-rendering:geometricPrecision; text-rendering:geometricPrecision; image-rendering:optimizeQuality; fill-rule:evenodd; clip-rule:evenodd"
viewBox="0 0 7916 2363.94"
 xmlns:xlink="http://www.w3.org/1999/xlink"
 xmlns:xodm="http://www.corel.com/coreldraw/odm/2003">
 <defs>
  <style type="text/css">
   <![CDATA[
    .fil1 {fill:#f86624;fill-rule:nonzero}
    .fil0 {fill:#F7F7F7;fill-rule:nonzero}
   ]]>
  </style>
 </defs>
 <g id="Capa_x0020_1">
  <metadata id="CorelCorpID_0Corel-Layer"/>
  <g id="_2708299058096">
   <g>
    <path class="fil0" d="M-0 29.33c166.01,126.84 348.42,235.1 529.67,337.66 475.42,269 983.66,480.36 1507.42,634.73 718.62,211.83 1470.05,304.34 2218.47,271.16 944.77,-41.88 1868.9,-300.52 2717.54,-712.82 326.08,-158.43 640.05,-341.12 942.9,-540.21l0 -19.84 -28.8 0c-885.02,582.24 -1870.73,1004.97 -2920.5,1171.04 -808.59,127.91 -1637.35,94.61 -2436.17,-80.51 -594.24,-130.24 -1170.96,-340.64 -1712.57,-617.19 -267.18,-136.41 -531.2,-288.2 -772.23,-467.63l-7.65 -5.71 -38.08 0 0 29.32z"/>
    <path class="fil1" d="M3703.11 1266.66c-7.51,6.47 -100.67,91.43 -56.84,91.56 21.95,0.05 40.85,-6.46 60.4,-16.19 16.05,-7.98 30.75,-18.67 45.48,-28.77 8.86,-6.2 17.73,-12.4 26.64,-18.55 20.04,-11.61 14.82,-11.66 -15.63,-0.18 -7.84,19.66 -111.97,117.75 -36.96,104.04 64.01,-11.7 83.51,-95.88 136.66,-114.18 -11.26,1.07 -22.5,2.16 -33.76,3.25 6.87,6.56 -178.66,167.88 -80.58,149.94 35.76,-6.55 64.02,-30.41 90.93,-53.21 25.26,-21.4 49.06,-44.59 73.7,-66.68 36.46,-32.64 -8.21,-6.87 -8.16,-7.1 -4.42,17.96 -26.44,33.05 -39.21,45.38 -18.02,17.43 -100.66,75.77 -81.57,110.14 9.14,16.46 55.79,-2.56 66.38,-7.77 51.36,-25.15 97.27,-60.46 143.9,-93.23 11.79,-8.28 23.7,-16.41 35.71,-24.41 36.89,-24.59 -7.64,-3.53 -6.39,-7.67 -6.44,21.22 -37.83,43.54 -53.17,58.25 -16.69,16 -191.2,177.83 -165.48,183.49 68.56,15.06 155.25,-107.14 193.08,-145.23 40.72,-40.98 80.99,-82.54 124.12,-121.03 27.83,-24.83 -5.57,-14.73 -16.54,6.78 -11.74,23 -28.47,43.98 -43.71,64.71 -41.76,56.91 -86.86,111.37 -130.53,166.79 -11.79,14.98 -64.65,65.79 -58.67,87.96 0.91,3.35 6.84,3.19 9.16,3.42 49.47,4.79 91.56,-56.09 120.35,-86.17 69.83,-72.98 135.59,-153.56 213.79,-217.9 -33.44,27.51 -19.63,-11.14 -35.55,20.64 -8.56,17.12 -20.07,32.97 -30.81,48.75 -32.1,47.2 -67.17,92.47 -101.57,137.99 -33.99,44.93 -68.23,89.73 -100.91,135.64 -12.2,17.13 -37.17,43.73 -37.05,66.44 0.04,8.03 52.62,0.52 52.54,-14.08 -0.16,-33.89 53.88,-86.43 72.41,-111.46 46.19,-62.42 93.89,-123.68 139.68,-186.37 19.41,-26.58 115.56,-156.89 13.75,-106.47 -36.25,17.95 -65.78,55.02 -93.51,83.31 -51.07,52.12 -100.25,106.06 -150.7,158.76 -16.36,17.1 -32.92,34 -50.29,50.08 -18.93,17.54 26.91,9.58 33.62,-4.06 3.7,-7.52 9.22,-14.49 13.99,-21.31 40.24,-57.61 86.72,-111.23 130.08,-166.53 15.43,-19.64 154.62,-181.77 50.87,-144.75 -34.4,12.27 -62.28,44.81 -87.76,69.27 -52.88,50.78 -103.35,104.02 -155.89,155.16 -17.83,17.38 -36.03,34.37 -55.42,49.97 31.72,-25.54 16.79,9.14 33.35,-14.22 8.71,-12.32 21.06,-23.19 31.72,-33.82 52.24,-52.05 109.61,-98.73 161.17,-151.51 77.84,-79.62 -52.9,-20.78 -82.9,-0.23 -35.78,24.5 -70.72,50.12 -107,73.92 -66.46,43.61 19.72,-46.39 38.56,-63.93 20,-18.62 103.83,-105.56 21.33,-79.03 -58.89,18.93 -105.01,84.67 -152.07,122.3 13.33,-10.64 126.69,-123.46 110.81,-138.62 -6.64,-6.35 -26.98,0.91 -33.77,3.25 -41.29,14.21 -70.83,59.24 -100.52,88.93 -43.07,43.09 15.96,-5.71 31.01,-24.77 11.63,-14.73 47.75,-45.72 42.6,-67.16 -0.76,-3.17 -7,-3.5 -9.16,-3.42 -32.79,1.08 -56.72,17.62 -83.04,35.9 -81.86,56.84 -7.11,-12.78 24.81,-40.35 10.88,-9.41 -38.14,-3.75 -47.48,4.34z"/>
    <path class="fil0" d="M3968.54 1249.41c-115.65,0 -231.3,0 -346.93,0 -10.66,0 -45.17,8.43 -34.57,25.41 115.63,185.39 231.28,370.77 346.93,556.14 8.63,13.86 42.47,0.61 48.87,-9.68 115.63,-185.37 231.28,-370.75 346.91,-556.13 6.48,-10.41 -5.46,-15.74 -14.32,-15.74 -115.63,0 -231.26,0 -346.89,0 -19.88,0 -55.9,30.16 -20.37,30.16 115.65,0 231.28,0 346.92,0 -4.78,-5.24 -9.55,-10.49 -14.32,-15.72 -115.63,185.35 -231.28,370.75 -346.91,556.13 16.29,-3.23 32.59,-6.46 48.88,-9.69 -115.63,-185.37 -231.28,-370.75 -346.93,-556.13 -11.52,8.45 -23.03,16.94 -34.55,25.41 115.63,0 231.28,0 346.91,0 19.87,0 55.9,-30.16 20.37,-30.16z"/>
    <path class="fil0" d="M3236.24 1209.67c-115.18,-10.37 -230.35,-20.72 -345.53,-31.08 -15.96,-1.45 -43.29,10.3 -33.33,30 98.56,194.98 197.11,389.98 295.67,584.98 7.64,15.09 38.38,5.97 45.98,-4.08 131.78,-174.27 263.57,-348.54 395.36,-522.82 9.18,-12.14 2.3,-24.55 -12.66,-25.91 -115.16,-10.35 -230.33,-20.73 -345.49,-31.09 -25.03,-2.24 -54.06,33.95 -18.48,37.17 115.18,10.37 230.33,20.72 345.51,31.08 -4.23,-8.64 -8.43,-17.27 -12.64,-25.9 -131.79,174.26 -263.58,348.54 -395.37,522.8 15.35,-1.34 30.67,-2.72 45.98,-4.08 -98.55,-194.99 -197.11,-390 -295.68,-584.99 -11.1,10 -22.21,19.99 -33.33,30 115.17,10.36 230.35,20.73 345.53,31.09 25.02,2.24 54.06,-33.97 18.48,-37.17z"/>
    <path class="fil1" d="M2220.83 1041.58c-8.74,4.68 -118.37,66.96 -75.66,76.76 21.39,4.9 41.28,2.73 62.5,-2.46 17.41,-4.22 34.11,-11.41 50.71,-18.01 10,-4.1 20.03,-8.17 30.06,-12.21 22.11,-6.88 17.03,-8.1 -15.2,-3.62 -11.98,17.43 -135.19,90.11 -59.01,93.3 65,2.72 102.61,-75.08 158.5,-81.19 -11.22,-1.43 -22.43,-2.86 -33.66,-4.28 5.26,7.91 -211.3,124.29 -111.67,128.44 36.32,1.52 69.13,-15.53 100.42,-31.81 29.37,-15.31 57.7,-32.66 86.61,-48.77 42.76,-23.79 -6.5,-8.5 -6.4,-8.7 -8.28,16.52 -33.09,26.38 -48.27,35.58 -21.43,13 -114.88,51.68 -103.87,89.42 5.29,18.07 54.99,9.82 66.47,7.1 55.63,-13.21 108.21,-37.51 160.92,-59.18 13.33,-5.49 26.76,-10.77 40.23,-15.92 41.4,-15.85 -6.67,-5.13 -4.55,-8.91 -10.94,19.28 -46.5,34.13 -64.71,45.07 -19.8,11.93 -225.75,131.24 -201.9,142.43 63.53,29.83 175.06,-70.22 220.36,-99 48.77,-30.99 97.21,-62.63 147.77,-90.64 32.64,-18.06 -2.18,-15.59 -17.61,2.94 -16.52,19.86 -37.49,36.62 -56.91,53.48 -53.3,46.26 -109.32,89.45 -164.14,133.88 -14.82,11.96 -77.6,49.87 -76.64,72.81 0.14,3.48 5.95,4.62 8.18,5.35 47.19,15.59 101.67,-34.48 136.39,-57.46 84.22,-55.76 166.16,-119.83 256.63,-165.33 -38.69,19.46 -16.68,-15.18 -39.22,12.29 -12.14,14.8 -26.86,27.73 -40.81,40.75 -41.74,38.92 -85.92,75.35 -129.56,112.15 -43.06,36.32 -86.32,72.47 -128.35,110.01 -15.69,14.02 -45.9,34.45 -50.8,56.61 -1.74,7.86 51.21,12.14 54.35,-2.11 7.31,-33.11 71.63,-72.4 95.23,-92.73 58.83,-50.67 118.89,-99.89 177.38,-150.94 24.79,-21.65 147.35,-127.49 36.9,-100.8 -39.31,9.51 -76.29,39.14 -109.57,60.61 -61.31,39.56 -121.2,81.3 -182.04,121.58 -19.75,13.06 -39.61,25.9 -60.1,37.72 -22.34,12.93 24.12,15.31 33.68,3.47 5.28,-6.52 12.18,-12.08 18.33,-17.7 52,-47.3 109.15,-89.36 163.67,-133.68 19.37,-15.76 190.93,-143.16 81.57,-129.97 -36.27,4.38 -70.63,29.96 -100.9,48.2 -62.79,37.85 -123.77,78.61 -186.31,116.92 -21.2,12.98 -42.7,25.55 -65.08,36.48 36.58,-17.89 14.36,12.63 35.67,-6.5 11.23,-10.09 25.66,-17.96 38.41,-25.99 62.46,-39.23 128.69,-72.09 190.64,-112.15 93.5,-60.5 -47.01,-31.97 -80.79,-18.55 -40.3,15.99 -80.05,33.26 -120.69,48.47 -74.46,27.86 29.47,-40.89 51.72,-53.82 23.63,-13.77 124.57,-80.05 38.26,-72.4 -61.62,5.46 -121.1,59.39 -175.31,85.73 15.36,-7.46 150.81,-92.46 138.68,-110.75 -5.08,-7.66 -26.53,-5.07 -33.68,-4.29 -43.4,4.75 -82.15,42.13 -117.66,64.55 -51.52,32.52 16.81,-2.05 35.71,-17.32 14.6,-11.79 56.68,-34.06 56.38,-56.11 -0.03,-3.25 -6.05,-4.93 -8.18,-5.35 -32.2,-6.17 -59.21,4.68 -88.91,16.7 -92.4,37.36 -4.12,-14.04 33.1,-33.9 12.69,-6.76 -36.37,-12.06 -47.27,-6.25z"/>
    <path class="fil0" d="M2486.13 1080.73c-112.78,-25.53 -225.58,-51.06 -338.36,-76.58 -10.25,-2.32 -48.44,4.06 -42.15,22.12 71.85,206.35 143.72,412.67 215.57,619.01 6.1,17.5 38.67,7.09 47.57,-1.9 153.72,-155.28 307.41,-310.57 461.12,-465.82 7.82,-7.89 6.01,-17.65 -5.4,-20.22 -112.78,-25.54 -225.57,-51.07 -338.35,-76.61 -18.08,-4.08 -62.2,23.29 -31.74,30.18 112.79,25.53 225.55,51.07 338.35,76.6 -1.81,-6.74 -3.62,-13.47 -5.42,-20.22 -153.71,155.28 -307.43,310.55 -461.14,465.82 15.85,-0.63 31.72,-1.27 47.57,-1.9 -71.85,-206.34 -143.72,-412.67 -215.57,-619.03 -14.06,7.39 -28.1,14.76 -42.15,22.14 112.78,25.54 225.58,51.07 338.36,76.59 18.07,4.1 62.21,-23.27 31.74,-30.18z"/>
    <path class="fil0" d="M1780.24 881.74c-110.05,-35.55 -220.1,-71.09 -330.14,-106.62 -13.97,-4.52 -46.65,3.99 -41.56,24.32 53.07,211.95 106.14,423.89 159.23,635.84 4.35,17.39 33.62,12.82 43.55,4.44 167.02,-140.88 334.04,-281.75 501.05,-422.62 10.25,-8.63 13.89,-23.61 -2.02,-28.75 -110.04,-35.54 -220.08,-71.09 -330.11,-106.61 -21.78,-7.04 -62,24.41 -30.57,34.56 110.04,35.53 220.08,71.08 330.13,106.62 -0.68,-9.59 -1.34,-19.17 -2.02,-28.76 -167,140.87 -334.03,281.73 -501.03,422.6 14.52,1.49 29.04,2.98 43.56,4.44 -53.07,-211.94 -106.14,-423.89 -159.22,-635.83 -13.85,8.1 -27.7,16.21 -41.56,24.32 110.05,35.52 220.1,71.09 330.14,106.61 21.79,7.02 62.01,-24.42 30.57,-34.56z"/>
    <path class="fil1" d="M845.06 509.91c-9.53,2.78 -129.59,41.26 -89.79,59.61 19.93,9.2 39.85,11.14 61.67,10.41 17.91,-0.58 35.73,-4.15 53.31,-7.23 10.65,-1.96 21.31,-3.88 31.95,-5.79 23.05,-2.21 18.33,-4.44 -14.14,-6.67 -15.3,14.63 -150.81,60.51 -76.89,79.25 63.07,15.97 115.82,-52.49 171.79,-46.99 -10.69,-3.7 -21.38,-7.4 -32.06,-11.1 3.51,8.83 -232.32,78.34 -135.65,102.83 35.25,8.94 70.86,-1.02 104.81,-10.54 31.89,-8.96 63.17,-20.15 94.78,-29.98 46.71,-14.54 -4.62,-9.68 -4.48,-9.84 -11.49,14.49 -37.79,19.06 -54.55,24.93 -23.63,8.34 -123.04,27.04 -119.99,66.23 1.47,18.79 51.79,20.87 63.6,20.57 57.16,-1.53 113.6,-14.53 169.63,-24.94 14.19,-2.65 28.41,-5.06 42.66,-7.34 43.74,-7.02 -5.5,-6.39 -2.64,-9.63 -14.65,16.61 -52.51,23.86 -72.59,30.85 -21.8,7.61 -247.84,82.16 -226.8,98.03 56.09,42.2 185.74,-32.86 235.98,-51.74 54.1,-20.33 108,-41.38 163.21,-58.43 35.65,-10.99 1.08,-15.72 -17.83,-0.73 -20.24,16.05 -44.19,28.15 -66.66,40.67 -61.66,34.36 -125.33,65.13 -188.11,97.38 -16.96,8.69 -86.16,32.92 -89.94,55.57 -0.57,3.43 4.89,5.74 6.92,6.93 42.99,24.91 106.57,-12.92 145.28,-28.3 93.86,-37.32 187.18,-83.24 285.07,-109.21 -41.88,11.1 -13.22,-18.3 -40.92,3.99 -14.91,11.99 -31.98,21.62 -48.3,31.51 -48.83,29.54 -99.54,56.14 -149.8,83.2 -49.59,26.75 -99.34,53.24 -148.17,81.39 -18.23,10.48 -51.98,24.3 -61.33,44.99 -3.31,7.33 47.64,22.38 53.64,9.07 13.95,-30.89 84.95,-56.18 112.23,-71.24 67.93,-37.53 136.82,-73.4 204.54,-111.38 28.7,-16.1 170.33,-94.58 56.78,-91.08 -40.43,1.24 -82.7,22.67 -119.66,36.87 -68.13,26.12 -135.3,54.72 -203.1,81.65 -22.01,8.76 -44.08,17.24 -66.57,24.63 -24.52,8.07 20.47,19.91 32.26,10.28 6.48,-5.3 14.39,-9.32 21.57,-13.55 60.58,-35.67 125.15,-65.08 187.59,-97.3 22.2,-11.45 216.21,-100.99 106.48,-110.49 -36.39,-3.14 -75.28,14.85 -108.63,26.5 -69.2,24.17 -137.26,51.59 -206.32,76.23 -23.42,8.37 -47.05,16.27 -71.18,22.38 39.46,-10.02 11.48,15.29 36.24,0.93 13.05,-7.57 28.8,-12.32 42.93,-17.54 69.17,-25.59 140.73,-44.19 209.59,-70.71 103.91,-40.04 -39.47,-40.93 -75.29,-34.73 -42.72,7.4 -85.17,16.16 -128.05,22.71 -78.59,12.02 37.22,-33.97 61.64,-42.08 25.95,-8.61 138.34,-52.78 52.29,-63 -61.42,-7.29 -130.7,33.32 -189.16,47.97 16.56,-4.15 166.57,-59.57 158.45,-79.98 -3.43,-8.54 -24.93,-10.38 -32.08,-11.09 -43.46,-4.25 -89.05,24.39 -128.4,39.06 -57.1,21.25 16.87,1.43 38.49,-9.63 16.7,-8.54 62.46,-21.73 66.69,-43.36 0.62,-3.21 -4.92,-6.08 -6.91,-6.91 -30.26,-12.66 -58.92,-7.57 -90.46,-1.89 -98.09,17.61 -1.15,-14.58 39.36,-26.38 13.81,-4.03 -33.12,-19.26 -44.98,-15.82z"/>
    <path class="fil0" d="M1098.81 600.82c-105.16,-48.11 -210.31,-96.21 -315.47,-144.3 -13.38,-6.13 -49.68,-0.09 -47.03,20.33 28.03,216.68 56.07,433.38 84.12,650.06 2.14,16.64 35.5,6.6 42.83,1.76 182.28,-120.48 364.55,-240.95 546.83,-361.42 6.94,-4.59 16.01,-16.69 4.19,-22.09 -105.15,-48.11 -210.31,-96.23 -315.47,-144.34 -16.68,-7.63 -64.52,16.07 -41.51,26.59 105.16,48.11 210.31,96.22 315.47,144.34 1.39,-7.37 2.78,-14.73 4.19,-22.09 -182.28,120.49 -364.56,240.94 -546.83,361.42 14.28,0.58 28.56,1.17 42.84,1.75 -28.04,-216.68 -56.07,-433.37 -84.12,-650.05 -15.67,6.76 -31.35,13.55 -47.02,20.33 105.16,48.11 210.31,96.2 315.47,144.3 16.7,7.63 64.53,-16.05 41.51,-26.59z"/>
    <path class="fil0" d="M3925.79 1277.3c89.14,0 178.29,0 267.42,0 20.51,0 41.01,0 61.52,0 30.63,0 -0.87,-3.35 3.28,-9.99 -15.87,25.46 -31.75,50.92 -47.64,76.37 -99.33,159.22 -198.62,318.41 -297.94,477.62 16.81,-2.58 33.62,-5.13 50.41,-7.71 -115.63,-185.37 -231.26,-370.77 -346.91,-556.14 -12.34,6.61 -24.7,13.23 -37.04,19.85 115.62,0 231.27,0 346.9,0 16.89,0 56.85,-25.61 21.56,-25.61 -115.63,0 -231.28,0 -346.9,0 -4.93,0 -44.13,8.51 -37.05,19.85 115.63,185.37 231.26,370.75 346.9,556.12 8.31,13.33 43.35,3.61 50.4,-7.7 115.63,-185.38 231.28,-370.76 346.93,-556.15 6.25,-10.01 -5.32,-12.12 -13.35,-12.12 -115.65,0 -231.3,0 -346.93,0 -16.9,0 -56.87,25.61 -21.56,25.61z"/>
    <path class="fil0" d="M4665.45 1246.91c115.16,-10.38 230.34,-20.73 345.53,-31.09 -7.54,-7.12 -15.07,-14.23 -22.58,-21.36 -98.54,194.99 -197.11,389.99 -295.67,584.98 16.39,-2.89 32.75,-5.8 49.15,-8.7 -131.8,-174.28 -263.58,-348.54 -395.35,-522.8 -8.85,10.01 -17.74,20.04 -26.61,30.07 115.2,-10.38 230.34,-20.75 345.53,-31.1 28.98,-2.61 40.9,-40.55 4.95,-37.31 -115.14,10.36 -230.33,20.73 -345.49,31.09 -12,1.09 -38.59,14.18 -26.59,30.06 131.79,174.28 263.56,348.54 395.35,522.82 11.48,15.18 41.62,6.19 49.13,-8.7 98.58,-195.01 197.15,-390 295.69,-585.01 7.53,-14.88 -10.73,-22.41 -22.56,-21.36 -115.17,10.37 -230.33,20.73 -345.53,31.1 -28.98,2.61 -40.89,40.54 -4.95,37.31z"/>
    <path class="fil1" d="M5674.1 1041.58c8.73,4.68 118.36,66.96 75.65,76.76 -21.38,4.9 -41.29,2.73 -62.49,-2.46 -17.39,-4.22 -34.11,-11.41 -50.71,-18.01 -10.01,-4.1 -20.04,-8.17 -30.09,-12.21 -22.08,-6.88 -17.01,-8.1 15.22,-3.62 11.97,17.43 135.2,90.11 59.02,93.3 -65,2.72 -102.61,-75.08 -158.51,-81.19 11.23,-1.43 22.44,-2.86 33.64,-4.28 -5.24,7.91 211.33,124.29 111.7,128.44 -36.31,1.52 -69.15,-15.53 -100.42,-31.81 -29.38,-15.31 -57.7,-32.66 -86.61,-48.77 -42.74,-23.79 6.49,-8.5 6.4,-8.7 8.27,16.52 33.06,26.38 48.26,35.58 21.42,13 114.9,51.68 103.88,89.42 -5.3,18.07 -54.99,9.82 -66.48,7.1 -55.63,-13.21 -108.2,-37.51 -160.92,-59.18 -13.33,-5.49 -26.73,-10.77 -40.22,-15.92 -41.41,-15.85 6.69,-5.13 4.53,-8.91 10.96,19.28 46.52,34.13 64.74,45.07 19.79,11.93 225.73,131.24 201.9,142.43 -63.55,29.83 -175.09,-70.22 -220.38,-99 -48.76,-30.99 -97.2,-62.63 -147.76,-90.64 -32.64,-18.06 2.17,-15.59 17.61,2.94 16.52,19.86 37.48,36.62 56.89,53.48 53.32,46.26 109.34,89.45 164.16,133.88 14.82,11.96 77.58,49.87 76.64,72.81 -0.15,3.48 -5.97,4.62 -8.2,5.35 -47.17,15.59 -101.65,-34.48 -136.38,-57.46 -84.22,-55.76 -166.14,-119.83 -256.63,-165.33 38.7,19.46 16.67,-15.18 39.25,12.29 12.11,14.8 26.84,27.73 40.8,40.75 41.71,38.92 85.93,75.35 129.54,112.15 43.05,36.32 86.34,72.47 128.36,110.01 15.69,14.02 45.9,34.45 50.8,56.61 1.75,7.86 -51.2,12.14 -54.35,-2.11 -7.31,-33.11 -71.64,-72.4 -95.25,-92.73 -58.79,-50.67 -118.88,-99.89 -177.36,-150.94 -24.79,-21.65 -147.33,-127.49 -36.91,-100.8 39.32,9.51 76.3,39.14 109.58,60.61 61.3,39.56 121.19,81.3 182.04,121.58 19.74,13.06 39.6,25.9 60.08,37.72 22.36,12.93 -24.1,15.31 -33.66,3.47 -5.26,-6.52 -12.17,-12.08 -18.33,-17.7 -52,-47.3 -109.18,-89.36 -163.67,-133.68 -19.39,-15.76 -190.93,-143.16 -81.58,-129.97 36.27,4.38 70.64,29.96 100.91,48.2 62.76,37.85 123.75,78.61 186.28,116.92 21.2,12.98 42.75,25.55 65.09,36.48 -36.56,-17.89 -14.35,12.63 -35.66,-6.5 -11.22,-10.09 -25.65,-17.96 -38.4,-25.99 -62.46,-39.23 -128.69,-72.09 -190.64,-112.15 -93.51,-60.5 46.99,-31.97 80.81,-18.55 40.27,15.99 80.05,33.26 120.67,48.47 74.45,27.86 -29.47,-40.89 -51.72,-53.82 -23.61,-13.77 -124.57,-80.05 -38.27,-72.4 61.63,5.46 121.13,59.39 175.31,85.73 -15.36,-7.46 -150.81,-92.46 -138.65,-110.75 5.05,-7.66 26.49,-5.07 33.64,-4.29 43.41,4.75 82.16,42.13 117.66,64.55 51.54,32.52 -16.8,-2.05 -35.69,-17.32 -14.6,-11.79 -56.68,-34.06 -56.38,-56.11 0.03,-3.25 6.05,-4.93 8.15,-5.35 32.25,-6.17 59.24,4.68 88.96,16.7 92.36,37.36 4.1,-14.04 -33.13,-33.9 -12.68,-6.76 36.37,-12.06 47.28,-6.25z"/>
    <path class="fil0" d="M5428.51 1110.13c112.78,-25.53 225.54,-51.07 338.34,-76.6 -10.06,-3.78 -20.13,-7.55 -30.19,-11.32 -71.85,206.34 -143.7,412.69 -215.57,619.01 16.9,-4.52 33.8,-9.05 50.69,-13.56 -153.72,-155.28 -307.43,-310.55 -461.13,-465.83 -6.83,8.29 -13.67,16.6 -20.49,24.91 112.76,-25.56 225.55,-51.08 338.35,-76.61 32.24,-7.31 24.14,-35.8 -7.69,-28.6 -112.79,25.54 -225.55,51.05 -338.33,76.59 -7.47,1.7 -31.32,13.96 -20.47,24.9 153.69,155.27 307.4,310.54 461.14,465.82 13.02,13.2 44.95,2.77 50.65,-13.59 71.87,-206.34 143.72,-412.66 215.55,-619 5.26,-15.09 -23.86,-12.73 -30.18,-11.32 -112.76,25.53 -225.56,51.07 -338.36,76.6 -32.25,7.31 -24.14,35.8 7.69,28.6z"/>
    <path class="fil0" d="M6134.63 916.43c110.05,-35.54 220.1,-71.09 330.16,-106.62 -10.43,-5.07 -20.84,-10.17 -31.25,-15.25 -53.08,211.95 -106.16,423.91 -159.23,635.84 15.65,-5.68 31.27,-11.34 46.92,-17.03 -167.01,-140.86 -334.03,-281.73 -501.04,-422.6 -5.22,10.75 -10.46,21.5 -15.67,32.26 110.03,-35.53 220.07,-71.07 330.11,-106.6 31.58,-10.21 22.75,-45.18 -9.33,-34.82 -110.03,35.54 -220.07,71.07 -330.12,106.62 -13.56,4.38 -31.35,19.04 -15.66,32.28 167,140.85 334.01,281.73 501.03,422.6 14.29,12.06 42.78,-0.47 46.92,-17.03 53.06,-211.94 106.16,-423.89 159.22,-635.83 3.99,-15.98 -21.92,-18.27 -31.24,-15.26 -110.05,35.55 -220.11,71.07 -330.15,106.62 -31.56,10.19 -22.74,45.18 9.33,34.82z"/>
    <path class="fil1" d="M7049.86 509.91c9.54,2.78 129.59,41.26 89.79,59.61 -19.91,9.2 -39.85,11.14 -61.68,10.41 -17.88,-0.58 -35.7,-4.15 -53.3,-7.23 -10.64,-1.96 -21.29,-3.88 -31.95,-5.79 -23.05,-2.21 -18.32,-4.44 14.14,-6.67 15.31,14.63 150.81,60.51 76.88,79.25 -63.04,15.97 -115.81,-52.49 -171.78,-46.99 10.7,-3.7 21.38,-7.4 32.05,-11.1 -3.5,8.83 232.33,78.34 135.67,102.83 -35.26,8.94 -70.86,-1.02 -104.82,-10.54 -31.87,-8.96 -63.17,-20.15 -94.78,-29.98 -46.72,-14.54 4.62,-9.68 4.5,-9.84 11.48,14.49 37.77,19.06 54.55,24.93 23.63,8.34 123.01,27.04 119.96,66.23 -1.45,18.79 -51.77,20.87 -63.58,20.57 -57.16,-1.53 -113.6,-14.53 -169.64,-24.94 -14.19,-2.65 -28.41,-5.06 -42.65,-7.34 -43.74,-7.02 5.5,-6.39 2.63,-9.63 14.65,16.61 52.5,23.86 72.6,30.85 21.81,7.61 247.83,82.16 226.78,98.03 -56.06,42.2 -185.74,-32.86 -235.96,-51.74 -54.12,-20.33 -108,-41.38 -163.2,-58.43 -35.67,-10.99 -1.11,-15.72 17.81,-0.73 20.24,16.05 44.22,28.15 66.66,40.67 61.65,34.36 125.33,65.13 188.1,97.38 16.98,8.69 86.18,32.92 89.95,55.57 0.58,3.43 -4.9,5.74 -6.93,6.93 -42.96,24.91 -106.56,-12.92 -145.26,-28.3 -93.86,-37.32 -187.19,-83.24 -285.06,-109.21 41.85,11.1 13.2,-18.3 40.89,3.99 14.93,11.99 31.99,21.62 48.33,31.51 48.82,29.54 99.53,56.14 149.76,83.2 49.62,26.75 99.36,53.24 148.2,81.39 18.23,10.48 51.96,24.3 61.32,44.99 3.33,7.33 -47.64,22.38 -53.63,9.07 -13.96,-30.89 -84.98,-56.18 -112.22,-71.24 -67.97,-37.53 -136.83,-73.4 -204.57,-111.38 -28.69,-16.1 -170.32,-94.58 -56.77,-91.08 40.44,1.24 82.71,22.67 119.67,36.87 68.13,26.12 135.3,54.72 203.09,81.65 22,8.76 44.09,17.24 66.56,24.63 24.54,8.07 -20.48,19.91 -32.24,10.28 -6.49,-5.3 -14.4,-9.32 -21.58,-13.55 -60.58,-35.67 -125.16,-65.08 -187.58,-97.3 -22.21,-11.45 -216.2,-100.99 -106.47,-110.49 36.36,-3.14 75.27,14.85 108.63,26.5 69.19,24.17 137.23,51.59 206.31,76.23 23.41,8.37 47.02,16.27 71.2,22.38 -39.48,-10.02 -11.48,15.29 -36.25,0.93 -13.06,-7.57 -28.8,-12.32 -42.95,-17.54 -69.15,-25.59 -140.73,-44.19 -209.57,-70.71 -103.93,-40.04 39.44,-40.93 75.28,-34.73 42.72,7.4 85.16,16.16 128.05,22.71 78.6,12.02 -37.23,-33.97 -61.64,-42.08 -25.95,-8.61 -138.35,-52.78 -52.3,-63 61.44,-7.29 130.72,33.32 189.17,47.97 -16.58,-4.15 -166.6,-59.57 -158.43,-79.98 3.39,-8.54 24.9,-10.38 32.04,-11.09 43.47,-4.25 89.05,24.39 128.4,39.06 57.11,21.25 -16.85,1.43 -38.49,-9.63 -16.7,-8.54 -62.45,-21.73 -66.66,-43.36 -0.65,-3.21 4.91,-6.08 6.89,-6.91 30.25,-12.66 58.91,-7.57 90.48,-1.89 98.07,17.61 1.12,-14.58 -39.36,-26.38 -13.82,-4.03 33.12,-19.26 44.96,-15.82z"/>
    <path class="fil0" d="M6827.54 626.03c105.15,-48.09 210.31,-96.21 315.48,-144.3 -12.35,-2.97 -24.68,-5.97 -37.03,-8.94 -28.05,216.7 -56.09,433.37 -84.13,650.05 15.73,-5.42 31.41,-10.84 47.12,-16.26 -182.28,-120.47 -364.55,-240.95 -546.81,-361.42 -3.36,8.42 -6.73,16.81 -10.09,25.21 105.17,-48.11 210.32,-96.23 315.46,-144.34 33.17,-15.16 2.96,-34.94 -21.36,-23.83 -105.15,48.12 -210.29,96.23 -315.46,144.34 -9.61,4.41 -23.47,16.36 -10.07,25.21 182.26,120.47 364.54,240.94 546.82,361.41 11.78,7.78 45.01,-0.12 47.11,-16.28 28.04,-216.68 56.07,-433.36 84.11,-650.05 2.34,-18 -28.22,-12.95 -37.03,-8.93 -105.16,48.1 -210.31,96.21 -315.48,144.3 -33.15,15.18 -2.94,34.97 21.36,23.83z"/>
   </g>
   <path class="fil0" d="M676.36 1756.92c29.77,27.98 59.54,55.97 89.31,83.95 16.3,15.33 46.7,58.41 70.1,62.93 24.63,4.73 60.43,-10.88 83.73,-15.92 45.48,-9.87 90.94,-19.74 136.41,-29.6 -7.41,-2.34 -14.82,-4.68 -22.24,-7.02 -29.87,63.4 -59.74,126.8 -89.61,190.2 -11.07,23.5 90.34,157.76 105.87,184.38 10.61,-5.26 21.22,-10.52 31.82,-15.78 -40.53,-5.13 -81.06,-10.28 -121.6,-15.41 -29.3,-3.72 -71.95,-18.06 -101.66,-10.1 -25.47,6.82 -46.78,44.05 -62.81,62 -30.99,34.71 -61.98,69.42 -92.98,104.14 12.68,-1.69 25.34,-3.36 38.01,-5.03 -6.53,-34.42 -13.08,-68.84 -19.64,-103.28 -4.24,-22.36 -4.44,-88.77 -21.03,-105.62 -17.63,-17.92 -60.36,-27.18 -82.85,-37.08 -25.29,-11.12 -50.6,-22.28 -75.89,-33.41 -7.34,-3.23 -14.7,-6.45 -22.05,-9.7 -22,-9.69 0.22,-1.2 -16.17,7.82 35.27,-19.37 70.54,-38.74 105.8,-58.11 22.06,-12.13 67.76,-26.04 83.01,-47.53 12.88,-18.18 8.02,-68.73 10.17,-90.06 4.1,-40.64 8.2,-81.3 12.3,-121.96 1.57,-15.5 -38.05,-7.86 -39.36,5.11 -6.98,69.1 -13.95,138.21 -20.93,207.32 0.88,-8.7 -0.61,-1.92 -15.92,6.5 -22.96,12.6 -45.92,25.22 -68.88,37.83 -30.72,16.86 -61.44,33.73 -92.15,50.6 -5.24,2.86 -12.06,11.24 -3.57,14.98 63.59,28 127.15,55.98 190.73,83.96 15.02,6.62 31.24,172.77 37.04,203.19 2.79,14.71 32.92,0.69 38.01,-5.01 46.67,-52.26 93.35,-104.55 140.04,-156.83 -10.15,3.41 -20.29,6.82 -30.44,10.22 69.52,8.82 139.05,17.65 208.58,26.46 5.1,0.66 38.58,-4.2 31.83,-15.77 -34.98,-60.01 -69.95,-120.02 -104.95,-180.03 -11.85,-20.35 76.09,-162.46 88.65,-189.09 4.87,-10.36 -19.04,-7.72 -22.24,-7.02 -67.89,14.72 -135.77,29.45 -203.65,44.17 22.35,-4.84 17.85,1.2 -0.28,-15.83 -19.09,-17.95 -38.18,-35.89 -57.27,-53.84 -25.54,-24 -51.06,-48.01 -76.59,-72 -9.93,-9.32 -46.96,5.57 -36.65,15.27z"/>
   <path class="fil0" d="M2473.87 351.16c6.64,26.2 11.05,101.39 30.85,118.58 10.83,9.4 33.84,12.99 46.94,17.83 15.34,5.69 30.7,11.37 46.06,17.04 22.92,8.51 10.39,5.57 25.01,-3.64 -31.72,20 -82.37,39.32 -106.62,68.01 -16.86,19.97 -5.38,98.29 -6.45,125.02 12.69,-4.17 25.42,-8.34 38.11,-12.51 -23.61,-19.68 -67.99,-75.35 -98.49,-79.18 -39.02,-4.9 -93.18,23.46 -130.45,33.93 7.26,1.69 14.5,3.37 21.75,5.06 9.61,-24.08 51.27,-89.91 44.77,-114.07 -9.04,-33.82 -48.44,-72.7 -68.04,-102.08 -10.28,5.55 -20.56,11.08 -30.83,16.63 40.59,2.68 94.94,17.19 134.65,6.54 36.95,-9.88 68.14,-74.59 90.56,-102.97 9.55,-12.11 -29.42,-7.58 -36.22,1.04 -24.86,31.46 -49.72,62.94 -74.59,94.43 10.17,-3.32 20.35,-6.62 30.52,-9.92 -40.04,-2.65 -80.07,-5.3 -120.09,-7.93 -6.46,-0.43 -38.9,4.57 -30.85,16.63 21.93,32.9 43.87,65.78 65.79,98.68 4.98,7.45 -38.42,92.9 -44.84,108.93 -3.76,9.4 18.69,5.93 21.74,5.08 38.05,-10.7 76.12,-21.38 114.18,-32.06 -17.72,4.97 -22.43,-4.23 -7.98,7.81 11.77,9.79 23.56,19.59 35.33,29.4 15.41,12.84 30.83,25.66 46.25,38.5 8.57,7.15 37.63,-0.09 38.13,-12.49 1.58,-39.52 3.18,-79.02 4.77,-118.5 -0.27,6.89 -10.84,9.69 4.21,0.2 12.95,-8.16 25.91,-16.32 38.88,-24.5 16.96,-10.7 33.93,-21.4 50.91,-32.08 4.06,-2.57 13.02,-9.59 4.12,-12.87 -37.07,-13.74 -74.14,-27.46 -111.21,-41.17 -7.2,-2.67 -23.03,-96.48 -27.46,-113.93 -2.88,-11.41 -42.34,-1.03 -39.41,10.56z"/>
   <path class="fil1" d="M1259.58 386.07c0,22.19 -17.99,40.19 -40.18,40.19 -22.2,0 -40.2,-18 -40.2,-40.19 0,-22.2 18,-40.19 40.2,-40.19 22.19,0 40.18,17.99 40.18,40.19z"/>
   <path class="fil1" d="M1936.91 1997.37c0,29.13 -23.61,52.74 -52.72,52.74 -29.14,0 -52.75,-23.61 -52.75,-52.74 0,-29.14 23.61,-52.75 52.75,-52.75 29.11,0 52.72,23.61 52.72,52.75z"/>
   <path class="fil1" d="M415.96 946.9c0,22.17 -18,40.18 -40.16,40.18 -22.21,0 -40.21,-18.01 -40.21,-40.18 0,-22.22 18,-40.21 40.21,-40.21 22.16,0 40.16,17.99 40.16,40.21z"/>
   <path class="fil0" d="M7205.9 1744.88c-50.62,47.57 -101.22,95.14 -151.83,142.7 16.86,-15.84 35,-4.33 0.56,-11.8 -25.59,-5.55 -51.19,-11.1 -76.78,-16.65 -34.26,-7.43 -68.52,-14.87 -102.74,-22.29 -7.2,-1.57 -37.99,3.31 -31.48,17.14 29.62,62.84 59.21,125.69 88.83,188.51 6.89,14.64 -87.16,147.97 -103.99,176.81 -6.18,10.62 8.65,14.74 16.32,13.78 68.9,-8.74 137.81,-17.48 206.72,-26.22 -17.37,2.21 -10.92,-1.07 3.61,15.19 17.47,19.55 34.91,39.1 52.36,58.63 23.34,26.14 46.68,52.29 70.02,78.42 8.99,10.06 35.45,3.3 38.01,-10.19 12.98,-68.23 25.97,-136.47 38.94,-204.69 -2.51,13.16 -10.36,9.48 13.02,-0.82 23.99,-10.55 47.97,-21.11 71.94,-31.66 32.08,-14.11 64.14,-28.24 96.22,-42.35 6.86,-3.03 18.16,-14.07 7.24,-20.08 -60.88,-33.44 -121.78,-66.88 -182.64,-100.3 -12.31,-6.75 -15.32,-173.41 -18.52,-205 -1.55,-15.42 -41.11,-6.29 -39.41,10.55 3.53,34.88 7.04,69.73 10.56,104.61 2.29,22.8 -3.35,89.22 12.08,107.47 16.54,19.56 57.6,32.35 79.58,44.41 35.81,19.68 71.61,39.33 107.43,59.01 2.41,-6.69 4.84,-13.38 7.23,-20.08 -37.37,16.45 -74.79,32.92 -112.18,49.39 -25.15,11.08 -68.15,20.42 -88.14,40.62 -16.66,16.85 -15.95,70.89 -20.09,92.56 -7.64,40.15 -15.27,80.29 -22.9,120.42 12.67,-3.39 25.33,-6.78 38.01,-10.17 -27.22,-30.49 -54.44,-60.96 -81.67,-91.44 -14.9,-16.7 -41.73,-62.8 -64.81,-69.11 -27.22,-7.46 -69.49,6.96 -96.48,10.39 -40.55,5.13 -81.07,10.28 -121.59,15.41 5.41,4.59 10.86,9.18 16.3,13.77 17.64,-30.27 35.29,-60.56 52.95,-90.82 15.25,-26.16 48.73,-63.81 54.19,-94.11 3.57,-19.73 -29.4,-65.41 -37.47,-82.57 -17.42,-36.96 -34.83,-73.92 -52.25,-110.89 -10.48,5.73 -20.96,11.44 -31.46,17.15 39.94,8.67 79.87,17.34 119.79,25.99 27.25,5.91 71.93,25.9 100.52,18.25 24.32,-6.53 47.38,-39.43 64.52,-55.52 33.89,-31.86 67.81,-63.74 101.71,-95.6 17.37,-16.33 -21.39,-19.03 -32.23,-8.82z"/>
   <path class="fil0" d="M5403.55 348.84c-9.72,38.32 -19.42,76.62 -29.14,114.94 1.87,-7.4 17.74,-9.78 -1.51,-2.65 -14.36,5.31 -28.72,10.63 -43.1,15.96 -18.83,6.94 -37.65,13.91 -56.46,20.87 -2.37,0.89 -18.24,9.07 -11.12,13.56 33.47,21.08 66.91,42.17 100.35,63.24 11.44,7.2 4.39,102.43 5.06,119.24 0.47,11.27 31.39,-0.2 35.18,-3.35 30.81,-25.66 61.64,-51.32 92.49,-76.99 -10.48,2.21 -20.95,4.45 -31.41,6.68 38.63,10.84 77.25,21.68 115.86,32.53 6.01,1.69 40.43,-1.94 35.66,-13.89 -14.69,-36.71 -29.36,-73.41 -44.01,-110.12 -3.72,-9.27 53.49,-80.5 64.49,-97 4.82,-7.22 -4.09,-9.49 -10,-9.07 -39.44,2.6 -78.89,5.21 -118.33,7.8 13.16,-0.87 -20.04,-33.75 -28.71,-44.72 -12.42,-15.75 -24.86,-31.49 -37.29,-47.23 -7.12,-8.99 -44.92,4.26 -36.88,14.46 18.08,22.86 50.23,86.14 77.09,95.8 33.15,11.94 91.25,-4.51 126.17,-6.81 -16.43,1.07 -4.45,-14.93 -16.13,2.63 -8.5,12.74 -17.01,25.48 -25.49,38.23 -10.52,15.75 -28.64,34.43 -34.86,52.51 -7.51,21.75 35.57,91.68 44.52,114.09 11.88,-4.64 23.76,-9.26 35.66,-13.89 -36.4,-10.23 -90.68,-38.83 -128.64,-33.08 -39.97,6.06 -81.37,59.45 -111.11,84.2 11.72,-1.12 23.45,-2.23 35.16,-3.33 -1.63,-40.1 -3.23,-80.18 -4.84,-120.26 -0.62,-15.34 -88.01,-56.6 -103.12,-66.12 -3.71,4.52 -7.41,9.05 -11.11,13.57 36.83,-13.64 89.59,-22.35 121.03,-46.17 22.38,-16.98 26.77,-94.27 33.68,-121.55 2.99,-11.78 -36.2,-5.67 -39.14,5.92z"/>
   <path class="fil1" d="M6657.13 386.07c0,22.19 17.99,40.19 40.17,40.19 22.19,0 40.2,-18 40.2,-40.19 0,-22.2 -18.01,-40.19 -40.2,-40.19 -22.18,0 -40.17,17.99 -40.17,40.19z"/>
   <path class="fil1" d="M4500.66 906.69c0,22.2 17.99,40.19 40.17,40.19 22.2,0 40.18,-17.99 40.18,-40.19 0,-22.2 -17.98,-40.19 -40.18,-40.19 -22.18,0 -40.17,17.99 -40.17,40.19z"/>
   <path class="fil1" d="M3494.01 517.29c0,22.2 17.99,40.19 40.17,40.19 22.2,0 40.21,-17.99 40.21,-40.19 0,-22.18 -18.01,-40.17 -40.21,-40.17 -22.18,0 -40.17,17.99 -40.17,40.17z"/>
   <path class="fil1" d="M5979.78 1997.37c0,29.13 23.59,52.74 52.72,52.74 29.14,0 52.77,-23.61 52.77,-52.74 0,-29.14 -23.63,-52.75 -52.77,-52.75 -29.13,0 -52.72,23.61 -52.72,52.75z"/>
   <path class="fil1" d="M7500.74 946.9c0,22.17 17.99,40.18 40.15,40.18 22.21,0 40.21,-18.01 40.21,-40.18 0,-22.22 -18,-40.21 -40.21,-40.21 -22.16,0 -40.15,17.99 -40.15,40.21z"/>
  </g>
 </g>
</svg>
