<?xml version="1.0" encoding="UTF-8"?>
<!DOCTYPE svg PUBLIC "-//W3C//DTD SVG 1.1//EN" "http://www.w3.org/Graphics/SVG/1.1/DTD/svg11.dtd">
<!-- Creator: CorelDRAW -->
<svg xmlns="http://www.w3.org/2000/svg" xml:space="preserve" width="36.538mm" height="37.0165mm" version="1.1" style="shape-rendering:geometricPrecision; text-rendering:geometricPrecision; image-rendering:optimizeQuality; fill-rule:evenodd; clip-rule:evenodd"
viewBox="0 0 1460 1479.12"
 xmlns:xlink="http://www.w3.org/1999/xlink"
 xmlns:xodm="http://www.corel.com/coreldraw/odm/2003">
 <defs>
  <style type="text/css">
   <![CDATA[
    .fil2 {fill:none}
    .fil0 {fill:#00193f}
    .fil1 {fill:#00193f;fill-rule:nonzero}
   ]]>
  </style>
 </defs>
 <g id="Capa_x0020_1">
  <metadata id="CorelCorpID_0Corel-Layer"/>
  <g id="_2708241256608">
   <g>
    <path class="fil0" d="M405.71 966.83c-8.57,-6.69 -16.73,7.14 -9.47,12.39 32.65,23.59 44.41,55.93 20.49,79.47 -41.39,40.74 -78.47,16.19 -97.75,-9.47 -24.72,-32.92 -14.08,-69.11 0,-99.14 49.62,-105.8 64.96,-201.81 52.82,-291.62 -14.77,-109.25 -108.24,-143.69 -167.12,-119.56 -19.18,7.86 -5.56,31.96 16.56,20.41 53.17,-27.77 108.78,2.49 125.34,75.09 21.38,93.69 -1.15,191.73 -51.24,299.63 -21.59,46.52 -20.11,95.91 14.19,129.04 43.16,41.69 94.84,46.69 129.29,7.29 30.26,-34.6 5.71,-73.21 -33.11,-103.52zm-161.39 -467.26c-15.56,14.92 -34.3,-2.98 -19.88,-17.15 18.96,-18.6 29.82,-47.31 31.8,-84.54 6.19,-116.79 -47.49,-238.78 17.23,-350.44 30.03,-51.81 83.1,-55.14 131.17,-6.13 37.31,38.04 36.64,81.06 -3.97,109.05 -32.02,22.08 -66.92,8.6 -98.05,-33.08 -10.66,-14.28 5.66,-24.3 15.89,-7.35 18.48,30.62 47.81,41.21 76.85,17.15 23.39,-19.38 26.4,-50.84 -1.33,-77.2 -33.89,-32.23 -80.4,-29.97 -106,6.13 -58.23,82.12 -22.52,172.18 -19.88,258.54 2.13,69.3 24.75,138.41 -23.84,185.02zm1042.57 786.37c9.12,9.1 8.14,0.28 2.73,-10.66 -10.89,-22 -10.57,-43.52 4.38,-63.93 8.27,-11.3 19.04,-20.85 31.18,-29.46 27.4,16.51 55.06,32.32 84.1,43.69 13.75,5.37 17.6,-9.56 3.65,-15.21 -25.56,-10.37 -49.79,-23.69 -73.54,-37.8 41.53,-25.49 92.74,-44.13 117,-80.95 11.75,-17.84 -8.06,-27 -19.2,-9.63 -24.49,38.17 -73.22,55.81 -112.76,81.58 -64.6,-39.29 -126.82,-80.95 -203.92,-79.96 -83.46,1.07 -155.57,26.62 -206.52,82.83 -11.6,12.8 2.41,23.07 18.27,9.29 55.08,-47.88 119.19,-71.43 188.25,-73.52 70.95,-2.15 130.47,34.54 190.27,70.96 -10.35,7.9 -19.67,16.69 -27.2,27.04 -20.56,28.23 -20.71,61.77 3.3,85.74zm-545.38 -111.5c8.2,9.45 17.35,5.73 13.6,-7.03 -9.96,-33.89 -37.59,-49.14 -69.75,-26.24 -33.29,23.68 -36.94,62.05 -10.33,94.44 47.98,58.41 127.36,55.22 203.23,26.05 77.16,-29.67 159.46,-87.69 218.28,-97.14 51.52,-8.28 89.75,4.47 102.32,34.07 17.03,40.09 -17.15,72.14 -51.15,57.25 -22.49,-9.85 -49.03,20.03 -3.07,29.33 23.58,4.77 45.32,-3.21 60.37,-30.75 13.33,-24.4 12.08,-50.93 -5.62,-80.43 -19.26,-32.1 -58.1,-43.43 -111.53,-32.17 -48.54,10.23 -147.4,85.06 -227.53,104.25 -78.99,18.92 -141.56,13.55 -177.14,-22.4 -17.57,-17.75 -20.24,-42.94 6.66,-58.67 18.06,-10.57 37.48,-6.94 51.67,9.45zm-269.6 -15.38c-12.24,-8.1 -18.4,-3.75 -10.75,6.87 19.06,26.43 40.39,52.08 104.36,49.2 52.16,-2.35 81.06,-63.59 119.7,-98.88 10.33,-9.43 -7.07,-28 -19.95,-13.73 -25.65,28.41 -40.69,65.44 -78.28,84.22 -25.32,12.65 -54.82,15.91 -80.31,4.73 -14.87,-6.51 -21.42,-23.56 -34.78,-32.41z"/>
    <path class="fil1" d="M167.65 165.66c-2.29,2.17 -2.23,5.66 0.11,7.78 2.35,2.12 6.12,2.07 8.41,-0.1 11.07,-10.57 20.79,-21.1 30.05,-31.14 15.94,-17.29 30.6,-33.16 48.39,-45.02 2.66,-1.77 3.26,-5.21 1.34,-7.66 -1.91,-2.46 -5.63,-3.01 -8.29,-1.24 -19.01,12.67 -34.09,28.99 -50.48,46.77 -9.11,9.88 -18.7,20.25 -29.55,30.61zm132.82 -156.66c2.09,-2.33 1.75,-5.79 -0.77,-7.73 -2.52,-1.94 -6.26,-1.61 -8.36,0.71 -16.2,18.04 -33.21,33.55 -50.86,47.02 -17.59,13.42 -35.89,24.88 -54.67,34.85 -2.85,1.5 -3.84,4.88 -2.21,7.52 1.62,2.64 5.27,3.55 8.13,2.05 19.25,-10.21 38.08,-22.02 56.3,-35.92 18.16,-13.87 35.71,-29.87 52.44,-48.5zm841.96 1224.58c-2.11,2.32 -1.8,5.8 0.7,7.75 2.51,1.95 6.27,1.67 8.38,-0.65 8.54,-9.33 15.58,-19.29 21.16,-29.81 5.57,-10.52 9.7,-21.56 12.38,-33.04 0.7,-2.97 -1.35,-5.91 -4.56,-6.55 -3.21,-0.64 -6.39,1.25 -7.08,4.22 -2.51,10.7 -6.3,20.91 -11.4,30.54 -5.13,9.65 -11.64,18.85 -19.58,27.53zm-66.6 53.29c-0.77,2.94 1.19,5.92 4.38,6.63 3.18,0.72 6.4,-1.1 7.17,-4.04 5.94,-22.65 14.8,-44.02 25.89,-64.38 11.1,-20.39 24.45,-39.81 39.36,-58.5 1.94,-2.45 1.37,-5.89 -1.28,-7.69 -2.65,-1.8 -6.37,-1.27 -8.32,1.18 -15.25,19.14 -28.96,39.08 -40.39,60.06 -11.45,21.05 -20.63,43.19 -26.81,66.74zm-59.94 -2.98c-2.08,2.35 -1.72,5.81 0.82,7.74 2.53,1.93 6.28,1.59 8.36,-0.76 16.99,-19.06 30.82,-39.58 42.32,-61.13 11.44,-21.46 20.63,-44 28.39,-67.15 0.96,-2.9 -0.8,-5.98 -3.94,-6.86 -3.13,-0.89 -6.47,0.74 -7.42,3.64 -7.58,22.6 -16.53,44.59 -27.7,65.52 -11.11,20.83 -24.46,40.65 -40.84,59.01zm-70.19 17.29c-1.61,2.64 -0.59,5.99 2.26,7.48 2.85,1.48 6.48,0.55 8.08,-2.09 9.62,-15.75 17.97,-31.71 24.56,-47.86 6.66,-16.32 11.59,-32.92 14.37,-49.79 0.48,-3 -1.77,-5.83 -5.01,-6.27 -3.25,-0.44 -6.3,1.63 -6.78,4.64 -2.65,16.15 -7.36,31.99 -13.71,47.55 -6.41,15.7 -14.48,31.15 -23.77,46.35zm-66.73 -1.4c-2.44,2.03 -2.64,5.51 -0.44,7.77 2.2,2.26 5.96,2.44 8.4,0.41 10.9,-9.05 19.67,-19.55 26.34,-31.4 6.62,-11.76 11.2,-24.9 13.76,-39.33 0.52,-3 -1.67,-5.83 -4.91,-6.31 -3.24,-0.49 -6.3,1.55 -6.82,4.54 -2.35,13.21 -6.54,25.26 -12.6,36.01 -6.02,10.69 -13.91,20.15 -23.72,28.3zm-66.73 5.99c-2.14,2.29 -1.87,5.77 0.61,7.76 2.48,1.98 6.25,1.73 8.38,-0.57 5.81,-6.21 10.91,-12.81 14.82,-19.97 3.97,-7.29 6.75,-15.18 7.83,-23.82 0.37,-3.01 -1.98,-5.76 -5.24,-6.09 -3.26,-0.34 -6.23,1.83 -6.59,4.84 -0.9,7.28 -3.26,13.95 -6.63,20.13 -3.44,6.3 -7.98,12.17 -13.18,17.73zm-66.24 -0.76c-2.13,2.3 -1.84,5.78 0.65,7.75 2.49,1.97 6.25,1.7 8.38,-0.6 3.9,-4.18 7.33,-8.86 10.15,-14.11 2.79,-5.2 4.98,-10.98 6.44,-17.4 0.66,-2.97 -1.4,-5.89 -4.61,-6.51 -3.21,-0.62 -6.37,1.29 -7.03,4.26 -1.24,5.46 -3.1,10.39 -5.46,14.78 -2.34,4.36 -5.23,8.28 -8.52,11.82zm-52.87 2.63c-1.96,2.43 -1.43,5.88 1.18,7.7 2.62,1.81 6.36,1.33 8.32,-1.09 4.56,-5.62 7.99,-11.27 10.49,-16.91 2.55,-5.72 4.16,-11.37 5.09,-16.95 0.5,-3 -1.74,-5.83 -4.99,-6.29 -3.25,-0.46 -6.31,1.61 -6.8,4.61 -0.81,4.88 -2.18,9.72 -4.28,14.45 -2.14,4.81 -5.08,9.65 -9.01,14.5zm-60.37 -12.48c-1.91,2.47 -1.29,5.92 1.37,7.69 2.67,1.77 6.41,1.2 8.32,-1.27 5.5,-7.1 10.34,-15.24 14.59,-24.18 4.19,-8.79 7.79,-18.39 10.91,-28.58 0.88,-2.92 -0.97,-5.96 -4.12,-6.78 -3.16,-0.82 -6.45,0.9 -7.33,3.81 -2.97,9.7 -6.39,18.81 -10.34,27.12 -3.87,8.17 -8.31,15.62 -13.4,22.18zm-57.6 -5.03c-1.16,2.84 0.38,6.03 3.45,7.11 3.07,1.07 6.53,-0.35 7.69,-3.19 8.28,-20.04 17.41,-38.96 27.32,-56.75 9.96,-17.89 20.75,-34.74 32.29,-50.48 1.84,-2.5 1.13,-5.92 -1.58,-7.62 -2.71,-1.7 -6.4,-1.04 -8.24,1.46 -11.88,16.2 -22.92,33.42 -33.05,51.61 -10.18,18.27 -19.5,37.57 -27.88,57.86zm-61.99 4.91c-1.99,2.41 -1.48,5.87 1.13,7.71 2.61,1.84 6.35,1.37 8.34,-1.04 8.89,-10.78 16.49,-22.23 22.34,-34.49 5.87,-12.3 9.99,-25.45 11.93,-39.6 0.4,-3 -1.91,-5.77 -5.15,-6.14 -3.24,-0.37 -6.23,1.76 -6.64,4.77 -1.78,13.02 -5.6,25.17 -11.03,36.54 -5.45,11.41 -12.56,22.12 -20.92,32.25zm-90.06 7.94c-1.94,2.45 -1.37,5.89 1.28,7.69 2.65,1.8 6.37,1.27 8.32,-1.18 12.08,-15.15 23.07,-30.76 32.66,-46.94 9.59,-16.18 17.77,-32.92 24.21,-50.35 1.05,-2.87 -0.62,-6 -3.72,-6.97 -3.11,-0.97 -6.49,0.57 -7.54,3.44 -6.19,16.74 -14.09,32.91 -23.38,48.58 -9.27,15.68 -20,30.89 -31.83,45.72zm-55.55 -15.44c-2.25,2.2 -2.13,5.69 0.25,7.77 2.39,2.07 6.16,1.97 8.4,-0.24 12.5,-12.33 24.23,-25.48 34.58,-40.01 10.38,-14.58 19.31,-30.51 26.13,-48.28 1.09,-2.87 -0.54,-6.02 -3.63,-7.02 -3.1,-1.01 -6.51,0.5 -7.6,3.36 -6.51,16.98 -15,32.11 -24.82,45.92 -9.87,13.87 -21.2,26.54 -33.32,38.51zm-30.46 -33.65c-1.71,2.59 -0.82,5.98 1.98,7.56 2.8,1.58 6.47,0.76 8.18,-1.83 17.69,-26.75 34.13,-53.86 49.44,-81.22 15.26,-27.28 29.42,-54.89 42.61,-82.75 1.3,-2.78 -0.07,-6.03 -3.07,-7.23 -3,-1.21 -6.52,0.06 -7.82,2.84 -13.05,27.55 -27.1,54.95 -42.29,82.11 -15.13,27.07 -31.44,53.94 -49.02,80.52zm-84.98 4.58c-2.26,2.2 -2.17,5.69 0.21,7.78 2.37,2.09 6.15,2.01 8.41,-0.19 22.2,-21.57 42.05,-44.49 58.46,-69.26 16.48,-24.86 29.52,-51.6 38.07,-80.7 0.86,-2.93 -1.02,-5.97 -4.2,-6.76 -3.17,-0.79 -6.46,0.95 -7.31,3.88 -8.25,28.09 -20.83,53.88 -36.72,77.85 -15.93,24.06 -35.26,46.37 -56.92,67.41zm-51.09 -13.63c-1.49,2.71 -0.32,6.03 2.61,7.41 2.93,1.38 6.53,0.3 8.02,-2.41 13.99,-25.34 29.05,-49.48 45.48,-72.02 16.42,-22.53 34.23,-43.49 53.69,-62.51 2.26,-2.19 2.17,-5.69 -0.21,-7.78 -2.37,-2.09 -6.15,-2.01 -8.41,0.19 -19.99,19.52 -38.21,40.97 -54.95,63.93 -16.74,22.96 -32.05,47.49 -46.24,73.18zm-13.87 -92.18c-1.49,2.69 -0.33,6.01 2.58,7.39 2.91,1.38 6.5,0.3 7.99,-2.39 11.14,-20.06 23.94,-37.66 38.12,-53.22 14.18,-15.55 29.75,-29.06 46.42,-40.95 2.59,-1.85 3.07,-5.31 1.07,-7.71 -2,-2.4 -5.75,-2.84 -8.34,-0.99 -17.34,12.36 -33.53,26.4 -48.25,42.54 -14.71,16.13 -28.01,34.43 -39.61,55.32zm0.7 -78.22c-1.17,2.82 0.35,6.02 3.4,7.1 3.05,1.08 6.51,-0.32 7.68,-3.14 9.75,-23.37 22.32,-44.95 36.89,-65.19 14.58,-20.25 31.22,-39.23 49.08,-57.38 2.21,-2.25 2.04,-5.74 -0.4,-7.78 -2.43,-2.04 -6.21,-1.88 -8.41,0.37 -18.2,18.49 -35.2,37.88 -50.19,58.71 -14.98,20.83 -27.95,43.1 -38.05,67.31zm1.82 -107.88c-2.16,2.27 -1.91,5.75 0.56,7.75 2.46,2 6.22,1.76 8.38,-0.51 23.8,-25.24 46.97,-51.55 69.51,-78.82 22.46,-27.17 44.51,-55.53 66.09,-84.91 1.84,-2.5 1.13,-5.92 -1.57,-7.62 -2.71,-1.7 -6.41,-1.04 -8.24,1.46 -21.28,28.96 -43.2,57.14 -65.74,84.41 -22.47,27.18 -45.46,53.3 -68.98,78.24zm-3.2 -85.55c-2.25,2.21 -2.13,5.7 0.25,7.77 2.39,2.07 6.16,1.97 8.4,-0.24 25.71,-25.35 50.4,-52.42 74.12,-80.98 23.68,-28.51 46.48,-58.63 68.45,-90.12 1.77,-2.55 0.97,-5.97 -1.79,-7.6 -2.76,-1.63 -6.45,-0.89 -8.22,1.66 -21.76,31.18 -44.38,61.06 -67.91,89.39 -23.51,28.31 -47.93,55.09 -73.31,80.12zm-2.32 -61.09c-2.05,2.36 -1.64,5.83 0.91,7.74 2.55,1.9 6.31,1.52 8.37,-0.84 10.75,-12.29 21.05,-23.62 31.32,-34.93 37.33,-41.07 74.68,-82.17 105.16,-135.34 1.52,-2.69 0.4,-6.03 -2.5,-7.43 -2.9,-1.41 -6.51,-0.38 -8.04,2.31 -29.87,52.09 -66.82,92.77 -103.74,133.4 -10.74,11.84 -21.51,23.7 -31.49,35.1zm20.36 -107.27c-2.19,2.25 -2.01,5.72 0.42,7.76 2.43,2.03 6.19,1.85 8.38,-0.39 18.24,-18.68 36.11,-37.69 53.32,-57.2 17.23,-19.52 33.9,-39.67 49.78,-60.61 1.87,-2.49 1.22,-5.91 -1.47,-7.64 -2.69,-1.73 -6.39,-1.13 -8.26,1.35 -15.62,20.6 -32.13,40.55 -49.28,59.97 -17.13,19.42 -34.87,38.29 -52.91,56.76zm-16.97 -38.31c-2.29,2.17 -2.24,5.66 0.11,7.78 2.35,2.12 6.12,2.07 8.41,-0.1 16.21,-15.44 32.21,-31.58 47.93,-48.43 15.72,-16.84 31.12,-34.37 46.14,-52.59 1.99,-2.42 1.48,-5.87 -1.13,-7.71 -2.61,-1.84 -6.35,-1.37 -8.34,1.04 -14.94,18.11 -30.18,35.47 -45.67,52.07 -15.5,16.62 -31.34,32.59 -47.45,47.94zm-9.52 -49.75c-1.99,2.41 -1.48,5.87 1.13,7.71 2.61,1.84 6.35,1.37 8.34,-1.04 8.74,-10.61 17.96,-20.85 27.53,-30.74 9.62,-9.93 19.76,-19.66 30.27,-29.17 2.34,-2.13 2.37,-5.61 0.06,-7.77 -2.3,-2.16 -6.06,-2.19 -8.4,-0.06 -10.61,9.61 -20.91,19.5 -30.78,29.67 -9.91,10.24 -19.35,20.7 -28.15,31.4zm0.15 -120.04c-2.38,2.09 -2.47,5.58 -0.21,7.78 2.26,2.2 6.04,2.29 8.41,0.19 11.87,-10.49 22.67,-22.76 32.66,-36.31 9.87,-13.39 19,-28.13 27.62,-43.69 1.49,-2.69 0.33,-6.01 -2.58,-7.39 -2.91,-1.38 -6.5,-0.3 -7.99,2.39 -8.36,15.1 -17.24,29.43 -26.87,42.49 -9.53,12.92 -19.8,24.61 -31.04,34.54zm68.97 -132.63c2.63,-1.81 3.18,-5.25 1.23,-7.68 -1.95,-2.43 -5.68,-2.94 -8.31,-1.13 -11.32,7.74 -21.91,16.73 -31.62,27.02 -9.73,10.29 -18.64,21.91 -26.62,34.87 -1.61,2.64 -0.62,6.01 2.23,7.5 2.86,1.49 6.5,0.58 8.11,-2.07 7.6,-12.36 16.04,-23.36 25.21,-33.06 9.16,-9.7 19.12,-18.16 29.76,-25.44zm-75.03 -5.31c-2.62,1.81 -3.15,5.27 -1.19,7.69 1.97,2.42 5.7,2.9 8.32,1.09 12.49,-8.65 23.98,-19.1 34.8,-30.63 10.68,-11.36 20.79,-23.91 30.64,-36.92 1.87,-2.48 1.22,-5.91 -1.47,-7.64 -2.69,-1.73 -6.39,-1.13 -8.26,1.35 -9.58,12.63 -19.43,24.87 -29.91,36.01 -10.31,10.98 -21.2,20.89 -32.94,29.03zm7.24 -69.57c-2.49,1.97 -2.78,5.45 -0.65,7.75 2.13,2.3 5.9,2.57 8.38,0.6 9.22,-7.34 18.57,-15.21 28.12,-24.4 9.55,-9.19 19.31,-19.71 29.38,-32.32 1.95,-2.43 1.4,-5.88 -1.23,-7.68 -2.63,-1.81 -6.36,-1.29 -8.31,1.13 -9.73,12.19 -19.18,22.36 -28.41,31.25 -9.22,8.87 -18.3,16.52 -27.29,23.68zm-9.55 -62.59c-1.84,2.52 -1.12,5.95 1.6,7.65 2.73,1.7 6.43,1.03 8.27,-1.49 9.22,-12.63 19.48,-24.25 30.48,-35.11 11.16,-11.01 23.06,-21.25 35.39,-30.96 2.49,-1.95 2.79,-5.43 0.68,-7.73 -2.11,-2.3 -5.87,-2.58 -8.36,-0.62 -12.79,10.08 -25.04,20.6 -36.37,31.77 -11.5,11.35 -22.18,23.43 -31.7,36.48z"/>
   </g>
   <path class="fil1" d="M140.92 182.71c0,-4.05 -3.3,-7.35 -7.35,-7.35 -4.06,0 -7.36,3.3 -7.36,7.35l0 1162.84c0,4.06 3.3,7.36 7.36,7.36l1162.84 0c4.05,0 7.35,-3.3 7.35,-7.36 0,-4.05 -3.3,-7.35 -7.35,-7.35l-1155.49 0 0 -1155.49z"/>
   <path class="fil1" d="M97.45 69.42c0,-2.03 -1.65,-3.68 -3.68,-3.68 -2.03,0 -3.68,1.65 -3.68,3.68l0 1315.93c0,2.03 1.65,3.68 3.68,3.68l1315.93 0c2.03,0 3.68,-1.65 3.68,-3.68 0,-2.03 -1.65,-3.68 -3.68,-3.68l-1312.25 0 0 -1312.25z"/>
   <path class="fil2" d="M93.77 1385.35l-93.77 0m0 0l0 93.77m0 0l93.77 0m0 0l0 -93.77"/>
  </g>
 </g>
</svg>
