<?xml version="1.0" encoding="UTF-8"?>
<!DOCTYPE svg PUBLIC "-//W3C//DTD SVG 1.1//EN" "http://www.w3.org/Graphics/SVG/1.1/DTD/svg11.dtd">
<!-- Creator: CorelDRAW -->
<svg xmlns="http://www.w3.org/2000/svg" xml:space="preserve" width="68.4388mm" height="68.4388mm" version="1.1" style="shape-rendering:geometricPrecision; text-rendering:geometricPrecision; image-rendering:optimizeQuality; fill-rule:evenodd; clip-rule:evenodd"
viewBox="0 0 6843.88 6843.88"
 xmlns:xlink="http://www.w3.org/1999/xlink"
 xmlns:xodm="http://www.corel.com/coreldraw/odm/2003">
 <defs>
  <style type="text/css">
   <![CDATA[
    .str0 {stroke:#373435;stroke-width:7.62;stroke-miterlimit:2.6131}
    .fil3 {fill:none}
    .fil4 {fill:#FEFEFE}
    .fil2 {fill:#373435}
    .fil1 {fill:#ED3237}
    .fil0 {fill:#373435;fill-rule:nonzero}
   ]]>
  </style>
 </defs>
 <g id="Capa_x0020_1">
  <metadata id="CorelCorpID_0Corel-Layer"/>
  <path class="fil0" d="M2162.57 5518.01c342.49,414.11 692.76,837.64 1257.41,837.64 564.68,0 914.95,-423.53 1257.43,-837.64 60.39,-73.01 120.54,-145.74 168.13,-200.98l0.03 -0.01 2.76 -3.19c0.03,-0.04 0.07,-0.06 0.1,-0.1l0 -0.02c423.19,-489.88 477.1,-1197.75 528.99,-1879.64 7.73,-101.29 15.38,-202.03 23.18,-290.72 0.25,-3.24 0.56,-6.49 0.85,-9.73 -0.67,-813.26 -114.13,-1462.87 -419.53,-1910.26 -300.49,-440.13 -794.59,-688.52 -1561.94,-709.51 -767.33,20.99 -1261.43,269.38 -1561.91,709.51 -305.44,447.43 -418.85,1097 -419.53,1910.29 8.18,92.32 16.07,196.07 24.02,300.42 51.91,681.89 105.81,1389.76 528.99,1879.64 48.05,55.63 109.42,129.81 171.02,204.3zm1257.41 1016.71c-650.17,0 -1027.94,-456.78 -1397.32,-903.4 -51.48,-62.24 -102.8,-124.3 -168.89,-200.81 -461.75,-534.49 -517.96,-1272.72 -572.09,-1983.85 -7.37,-96.86 -14.72,-193.24 -24.02,-302.18 0,-854.46 121.59,-1539.17 450.62,-2021.13 334.62,-490.15 875.84,-766.27 1709.6,-788.64l4.23 0c833.76,22.37 1374.96,298.49 1709.6,788.64 329.04,481.96 450.61,1166.67 450.61,2017.46l0 7.34c-0.29,3.28 -0.57,6.6 -0.89,9.91 -8.96,102.52 -16.01,195.32 -23.1,288.6 -54.15,711.13 -110.35,1449.34 -572.14,1983.85l-0.1 -0.08 0 0.02 0.1 0.09c-66.11,76.53 -117.4,138.54 -168.87,200.78 -369.36,446.62 -747.15,903.4 -1397.34,903.4z"/>
  <path class="fil1" d="M3419.98 6445.19c-703.9,0 -1080.94,-591.11 -1497.32,-1073.08 -506.4,-586.2 -505.34,-1448.58 -574.56,-2231.3 0,-1667.44 469.58,-2673.6 2071.88,-2716.56 1602.3,42.96 2071.92,1049.12 2071.92,2716.56 -69.25,782.72 -68.16,1645.1 -574.57,2231.3 -416.38,481.97 -793.43,1073.08 -1497.35,1073.08z"/>
  <g>
   <path class="fil0" d="M3404.31 3602.32l31.32 22.08 -31.32 0 -73.85 -98.54 -73.29 -97.99 -72.56 -97.39 -71.66 -96.83 -70.6 -96.24 -69.37 -95.66 -67.98 -95.06 -66.41 -94.45 -64.7 -93.86 -62.79 -93.25 -60.75 -92.63 -58.51 -92.01 -56.12 -91.41 -53.55 -90.78 -50.84 -90.14 -47.95 -89.53 -44.89 -88.89 -41.65 -88.27 -38.26 -87.62 -34.69 -87 -30.95 -86.34 -27.05 -85.72 -22.96 -85.07 -18.71 -84.43 -14.28 -83.79 -9.66 -83.12 -4.88 -82.46 0.09 -81.78 5.23 -81.09 10.54 -80.38 16.03 -79.63 21.69 -78.87 37.04 10.92 -21.01 76.39 -15.53 77.17 -10.22 77.94 -5.07 78.73 -0.09 79.54 4.76 80.32 9.44 81.14 13.96 81.95 18.33 82.73 22.54 83.53 26.61 84.3 30.49 85.08 34.23 85.84 37.82 86.58 41.21 87.33 44.45 88.05 47.55 88.77 50.46 89.48 53.21 90.18 55.8 90.87 58.21 91.55 60.47 92.23 62.55 92.89 64.48 93.54 66.23 94.19 67.82 94.84 69.23 95.46 70.5 96.1 71.58 96.71 72.5 97.33 73.25 97.93 73.85 98.54 -31.32 0zm31.32 22.08l-15.66 20.89 -15.66 -20.89 31.32 0zm1225.37 -2829.63l22.9 -30.28 7.07 9.68 21.69 78.87 16.03 79.63 10.54 80.38 5.23 81.09 0.08 81.78 -4.87 82.45 -9.66 83.13 -14.28 83.79 -18.71 84.43 -22.97 85.07 -27.04 85.72 -30.96 86.35 -34.69 86.99 -38.25 87.62 -41.66 88.27 -44.89 88.89 -47.95 89.53 -50.83 90.14 -53.56 90.78 -56.12 91.41 -58.51 92.01 -60.75 92.63 -62.79 93.25 -64.7 93.86 -66.41 94.45 -67.98 95.06 -69.37 95.66 -70.6 96.24 -71.66 96.83 -72.56 97.39 -73.29 97.99 -73.85 98.54 -31.32 -22.08 73.85 -98.54 73.25 -97.93 72.5 -97.33 71.58 -96.71 70.5 -96.1 69.23 -95.46 67.82 -94.84 66.23 -94.19 64.48 -93.54 62.55 -92.89 60.47 -92.23 58.21 -91.55 55.8 -90.87 53.22 -90.18 50.45 -89.48 47.55 -88.77 44.45 -88.05 41.22 -87.33 37.81 -86.58 34.23 -85.85 30.5 -85.07 26.6 -84.3 22.55 -83.53 18.33 -82.73 13.96 -81.95 9.44 -81.13 4.75 -80.33 -0.08 -79.54 -5.07 -78.73 -10.22 -77.94 -15.53 -77.17 -21.01 -76.39 7.07 9.68zm22.9 -30.28l5.2 3.7 1.87 5.98 -7.07 -9.68zm-677.98 -279.61l-37.82 8.1 23.16 -22.37 25.43 5.68 25.2 5.92 24.93 6.16 24.67 6.37 24.44 6.61 24.17 6.83 23.93 7.06 23.68 7.28 23.44 7.52 23.18 7.74 22.95 7.97 22.7 8.19 22.44 8.42 22.22 8.64 21.96 8.87 21.73 9.08 21.5 9.32 21.24 9.54 21.01 9.76 20.77 9.98 20.53 10.2 20.31 10.42 20.06 10.66 19.83 10.86 19.6 11.08 19.36 11.31 19.14 11.53 18.89 11.74 18.68 11.95 18.45 12.18 18.21 12.39 17.99 12.62 -22.9 30.28 -17.55 -12.3 -17.77 -12.09 -17.99 -11.88 -18.22 -11.67 -18.45 -11.46 -18.68 -11.25 -18.9 -11.03 -19.14 -10.82 -19.37 -10.62 -19.6 -10.4 -19.83 -10.18 -20.07 -9.98 -20.31 -9.76 -20.55 -9.54 -20.78 -9.34 -21.02 -9.1 -21.27 -8.9 -21.5 -8.69 -21.76 -8.46 -22 -8.24 -22.24 -8.03 -22.49 -7.81 -22.74 -7.6 -22.98 -7.36 -23.24 -7.16 -23.49 -6.92 -23.75 -6.71 -24 -6.49 -24.25 -6.27 -24.51 -6.04 -24.76 -5.82 -25.03 -5.6 23.16 -22.37zm-37.82 8.1l-6.56 -28.85 29.72 6.48 -23.16 22.37zm-566.49 3126.34l36.72 -11.92 -36.72 0 37.8 -109.59 37.47 -108.89 37.05 -108.17 36.53 -107.44 35.91 -106.72 35.2 -105.98 34.38 -105.22 33.46 -104.47 32.47 -103.7 31.36 -102.93 30.15 -102.13 28.86 -101.36 27.46 -100.55 25.97 -99.75 24.37 -98.93 22.7 -98.1 20.91 -97.27 19.01 -96.43 17.06 -95.58 14.97 -94.71 12.82 -93.84 10.54 -92.97 8.19 -92.09 5.73 -91.18 3.18 -90.29 0.54 -89.37 -2.19 -88.46 -5.04 -87.53 -7.96 -86.61 -10.99 -85.65 -14.1 -84.74 -17.32 -83.77 37.82 -8.1 17.6 85.19 14.34 86.1 11.15 86.99 8.08 87.87 5.1 88.75 2.23 89.62 -0.54 90.47 -3.22 91.31 -5.79 92.16 -8.27 92.99 -10.64 93.83 -12.92 94.64 -15.09 95.45 -17.18 96.26 -19.15 97.05 -21.03 97.85 -22.82 98.64 -24.49 99.41 -26.09 100.19 -27.56 100.95 -28.96 101.72 -30.25 102.47 -31.44 103.21 -32.55 103.96 -33.54 104.67 -34.44 105.42 -35.24 106.12 -35.95 106.84 -36.57 107.54 -37.07 108.23 -37.49 108.93 -37.8 109.61 -36.72 0zm-544.42 -3112.07l-8.5 -36.64 23.16 22.37 -17.32 83.77 -14.1 84.74 -10.99 85.65 -7.96 86.61 -5.04 87.53 -2.2 88.46 0.54 89.37 3.18 90.29 5.74 91.18 8.18 92.09 10.55 92.97 12.81 93.84 14.98 94.71 17.05 95.58 19.02 96.43 20.9 97.27 22.7 98.1 24.37 98.93 25.97 99.75 27.46 100.55 28.86 101.36 30.15 102.13 31.36 102.93 32.47 103.7 33.46 104.47 34.38 105.22 35.2 105.98 35.91 106.72 36.53 107.44 37.05 108.17 37.47 108.89 37.8 109.59 -36.72 11.92 -37.8 -109.61 -37.49 -108.93 -37.07 -108.23 -36.57 -107.54 -35.95 -106.84 -35.24 -106.12 -34.44 -105.42 -33.54 -104.67 -32.55 -103.96 -31.44 -103.21 -30.25 -102.47 -28.96 -101.72 -27.56 -100.95 -26.09 -100.19 -24.49 -99.41 -22.82 -98.64 -21.02 -97.85 -19.16 -97.05 -17.17 -96.26 -15.1 -95.45 -12.91 -94.64 -10.65 -93.83 -8.26 -92.99 -5.8 -92.16 -3.22 -91.31 -0.54 -90.47 2.24 -89.62 5.1 -88.75 8.08 -87.87 11.15 -86.99 14.34 -86.1 17.6 -85.19 23.16 22.37zm-8.5 -36.64l29.72 -6.48 -6.56 28.85 -23.16 -22.37zm-662.67 314.48l-37.04 -10.92 7.07 -9.68 17.99 -12.62 18.21 -12.39 18.45 -12.18 18.67 -11.95 18.9 -11.74 19.13 -11.53 19.36 -11.31 19.6 -11.08 19.83 -10.86 20.06 -10.66 20.31 -10.42 20.53 -10.2 20.77 -9.98 21.01 -9.76 21.24 -9.54 21.5 -9.32 21.72 -9.08 21.97 -8.87 22.21 -8.64 22.46 -8.42 22.69 -8.19 22.95 -7.97 23.18 -7.74 23.44 -7.52 23.68 -7.28 23.93 -7.06 24.18 -6.83 24.43 -6.61 24.68 -6.37 24.93 -6.16 25.2 -5.92 25.43 -5.68 8.5 36.64 -25.03 5.6 -24.76 5.82 -24.51 6.04 -24.26 6.27 -23.99 6.49 -23.76 6.71 -23.49 6.92 -23.24 7.16 -22.98 7.36 -22.74 7.6 -22.49 7.81 -22.25 8.03 -22 8.24 -21.75 8.46 -21.51 8.69 -21.26 8.9 -21.02 9.1 -20.78 9.34 -20.55 9.54 -20.31 9.76 -20.07 9.98 -19.83 10.18 -19.6 10.4 -19.37 10.62 -19.14 10.82 -18.9 11.03 -18.67 11.25 -18.46 11.46 -18.21 11.67 -17.99 11.88 -17.77 12.09 -17.55 12.3 7.07 -9.68zm-37.04 -10.92l1.87 -5.98 5.2 -3.7 -7.07 9.68zm1286.01 2187.28l-30.04 -23.7 -0.05 0.07 0.14 -0.19 0.32 -0.38 0.45 -0.56 29.78 24.02 0.09 -0.12 -0.04 0.06 -0.22 0.27 -0.43 0.53zm4.71 -19.62l-30.28 23.4 -0.07 -0.08 -0.52 -0.63 -0.52 -0.66 -0.54 -0.67 -0.49 -0.63 -0.48 -0.6 -0.48 -0.61 -0.44 -0.54 -0.48 -0.6 30.6 -23.02 0.48 0.6 0.52 0.66 0.48 0.61 0.48 0.6 0.47 0.59 0.44 0.55 0.44 0.54 0.46 0.57 -0.07 -0.08zm-30.28 23.4l-0.07 -0.08 -0.39 -0.48 0.46 0.56zm31.78 -21.57l-30.54 23.08 -0.13 -0.15 -0.17 -0.21 -0.17 -0.21 -0.03 -0.04 0.01 0.01 -0.33 -0.38 -0.34 -0.42 -0.08 -0.11 30.28 -23.4 0.26 0.31 0 0 0.03 0.04 0.35 0.41 0.31 0.38 0.17 0.21 0.17 0.21 0.21 0.27zm-200.69 95.31l-36.48 -12.6 22.42 -12.04 8.36 1.64 8.07 1.26 7.79 0.91 7.53 0.57 7.28 0.24 7.02 -0.06 6.79 -0.37 6.57 -0.65 6.37 -0.92 6.14 -1.19 5.99 -1.45 5.83 -1.68 5.65 -1.92 5.51 -2.14 5.39 -2.38 5.26 -2.59 5.15 -2.81 5.04 -3.01 4.93 -3.2 4.86 -3.41 4.76 -3.59 4.68 -3.77 4.61 -3.95 4.54 -4.11 4.46 -4.26 4.39 -4.4 4.33 -4.55 4.29 -4.68 4.22 -4.78 4.17 -4.89 4.13 -5 4.09 -5.07 30.64 22.96 -4.37 5.43 -4.47 5.4 -4.57 5.35 -4.66 5.28 -4.77 5.22 -4.89 5.13 -5.03 5.04 -5.16 4.92 -5.3 4.81 -5.45 4.67 -5.62 4.53 -5.78 4.35 -5.96 4.19 -6.15 4 -6.34 3.77 -6.53 3.55 -6.72 3.31 -6.93 3.06 -7.13 2.78 -7.35 2.5 -7.55 2.18 -7.73 1.87 -7.98 1.53 -8.17 1.18 -8.35 0.83 -8.57 0.47 -8.78 0.08 -8.96 -0.3 -9.17 -0.69 -9.37 -1.09 -9.59 -1.5 -9.8 -1.92 22.42 -12.04zm-36.48 -12.6l5.73 -15.62 16.69 3.58 -22.42 12.04zm-98.42 135.61l-38.3 5.46 13.18 -20.59 5.77 -1.89 5.63 -1.98 5.48 -2.07 5.3 -2.15 5.16 -2.25 5.03 -2.35 4.87 -2.44 4.74 -2.55 4.59 -2.65 4.47 -2.76 4.33 -2.87 4.22 -2.98 4.1 -3.1 3.98 -3.23 3.88 -3.35 3.76 -3.49 3.67 -3.62 3.58 -3.77 3.47 -3.92 3.39 -4.07 3.3 -4.24 3.2 -4.4 3.13 -4.58 3.04 -4.75 2.96 -4.93 2.87 -5.12 2.81 -5.34 2.72 -5.5 2.64 -5.72 2.56 -5.93 2.48 -6.12 2.41 -6.36 36.48 12.6 -2.69 7.1 -2.8 6.92 -2.92 6.73 -3.02 6.56 -3.16 6.38 -3.25 6.18 -3.39 6.04 -3.5 5.85 -3.64 5.69 -3.77 5.52 -3.9 5.34 -4.04 5.18 -4.15 5.01 -4.31 4.84 -4.42 4.67 -4.55 4.5 -4.7 4.35 -4.84 4.19 -4.96 4.01 -5.1 3.86 -5.22 3.7 -5.35 3.53 -5.47 3.38 -5.61 3.23 -5.74 3.09 -5.85 2.94 -5.97 2.79 -6.1 2.67 -6.24 2.53 -6.34 2.39 -6.47 2.28 -6.61 2.15 13.18 -20.59zm-38.3 5.46l-2.38 -15.7 15.56 -4.89 -13.18 20.59zm-30.76 128.93l-13.44 -35.22 3.35 -1.29 3.19 -1.39 3.03 -1.49 2.89 -1.59 2.76 -1.71 2.63 -1.8 2.5 -1.91 2.38 -2 2.26 -2.1 2.12 -2.18 2.01 -2.29 1.92 -2.42 1.8 -2.51 1.69 -2.62 1.58 -2.74 1.47 -2.85 1.36 -2.94 1.23 -3.07 1.15 -3.22 1.01 -3.3 0.88 -3.4 0.77 -3.53 0.64 -3.67 0.51 -3.77 0.38 -3.86 0.24 -4 0.1 -4.07 -0.04 -4.21 -0.18 -4.32 -0.33 -4.37 -0.48 -4.49 -0.62 -4.6 38.3 -5.46 0.78 5.64 0.6 5.61 0.41 5.57 0.22 5.48 0.06 5.41 -0.14 5.37 -0.32 5.28 -0.5 5.24 -0.71 5.15 -0.88 5.05 -1.07 4.99 -1.28 4.92 -1.49 4.82 -1.65 4.68 -1.87 4.63 -2.08 4.52 -2.27 4.39 -2.48 4.26 -2.67 4.16 -2.88 4.01 -3.06 3.86 -3.27 3.73 -3.48 3.58 -3.66 3.4 -3.82 3.22 -4.02 3.05 -4.17 2.86 -4.36 2.69 -4.53 2.51 -4.69 2.31 -4.81 2.09 -4.97 1.91zm402.49 -353.61l-30.38 23.28 -0.02 -0.02 -0.52 -0.63 -0.48 -0.6 -0.49 -0.6 -0.48 -0.6 -0.49 -0.6 -0.48 -0.6 -0.49 -0.6 -0.49 -0.62 30.5 -23.14 0.47 0.58 0.49 0.6 0.48 0.6 0.49 0.6 0.48 0.6 0.49 0.6 0.48 0.6 0.46 0.57 -0.02 -0.02zm-30.38 23.28l-0.02 -0.02 -1.62 -2 1.64 2.02zm227.25 60.33l-36.48 12.6 22.43 12.03 -9.52 1.87 -9.32 1.48 -9.12 1.09 -8.93 0.71 -8.74 0.35 -8.54 -0.03 -8.37 -0.38 -8.17 -0.73 -7.96 -1.07 -7.78 -1.4 -7.6 -1.71 -7.4 -2.02 -7.2 -2.32 -7.01 -2.6 -6.82 -2.86 -6.62 -3.11 -6.43 -3.35 -6.25 -3.56 -6.06 -3.78 -5.89 -3.95 -5.73 -4.14 -5.54 -4.3 -5.41 -4.44 -5.26 -4.6 -5.1 -4.7 -4.97 -4.81 -4.86 -4.92 -4.73 -5.01 -4.6 -5.07 -4.52 -5.15 -4.42 -5.2 -4.33 -5.25 30.38 -23.28 4.01 4.85 4.04 4.76 4.1 4.67 4.16 4.57 4.19 4.45 4.24 4.3 4.33 4.19 4.38 4.04 4.44 3.88 4.53 3.72 4.6 3.56 4.67 3.38 4.77 3.21 4.86 3.02 4.93 2.82 5.07 2.63 5.16 2.43 5.28 2.22 5.41 2 5.54 1.78 5.7 1.56 5.86 1.33 6.04 1.08 6.24 0.83 6.43 0.59 6.61 0.3 6.86 0.01 7.1 -0.27 7.33 -0.59 7.6 -0.91 7.84 -1.24 8.12 -1.59 22.43 12.03zm-22.43 -12.03l16.7 -3.59 5.73 15.62 -22.43 -12.03zm159.16 153.1l-38.3 -5.46 13.18 20.59 -6.61 -2.15 -6.47 -2.28 -6.34 -2.39 -6.24 -2.53 -6.1 -2.67 -5.97 -2.79 -5.85 -2.94 -5.74 -3.09 -5.61 -3.23 -5.47 -3.38 -5.35 -3.53 -5.22 -3.7 -5.1 -3.86 -4.96 -4.01 -4.84 -4.19 -4.69 -4.34 -4.56 -4.5 -4.44 -4.68 -4.29 -4.84 -4.16 -5.01 -4.04 -5.19 -3.89 -5.33 -3.77 -5.52 -3.63 -5.68 -3.52 -5.85 -3.39 -6.05 -3.26 -6.19 -3.14 -6.37 -3.03 -6.55 -2.92 -6.74 -2.8 -6.92 -2.69 -7.1 36.48 -12.6 2.41 6.36 2.48 6.12 2.56 5.92 2.65 5.73 2.72 5.51 2.8 5.33 2.87 5.11 2.96 4.93 3.05 4.76 3.13 4.58 3.21 4.41 3.28 4.23 3.4 4.07 3.47 3.92 3.56 3.76 3.68 3.62 3.77 3.5 3.88 3.35 3.98 3.23 4.1 3.1 4.22 2.98 4.33 2.87 4.47 2.76 4.59 2.65 4.74 2.55 4.87 2.44 5.03 2.35 5.16 2.25 5.3 2.15 5.48 2.07 5.63 1.98 5.77 1.89 13.18 20.59zm-13.18 -20.59l15.56 4.89 -2.38 15.7 -13.18 -20.59zm57.37 114.3l-13.44 35.22 -4.96 -1.91 -4.82 -2.09 -4.69 -2.32 -4.52 -2.5 -4.36 -2.69 -4.17 -2.86 -4.02 -3.05 -3.82 -3.22 -3.67 -3.41 -3.46 -3.57 -3.27 -3.71 -3.07 -3.88 -2.88 -4.01 -2.67 -4.16 -2.48 -4.26 -2.27 -4.41 -2.07 -4.5 -1.87 -4.61 -1.67 -4.72 -1.47 -4.8 -1.28 -4.9 -1.08 -5.01 -0.88 -5.05 -0.71 -5.15 -0.5 -5.24 -0.32 -5.28 -0.14 -5.37 0.06 -5.41 0.22 -5.48 0.41 -5.57 0.6 -5.61 0.78 -5.64 38.3 5.46 -0.62 4.6 -0.48 4.49 -0.33 4.37 -0.18 4.32 -0.04 4.21 0.1 4.07 0.24 4 0.38 3.86 0.51 3.77 0.64 3.67 0.76 3.51 0.9 3.42 1.01 3.32 1.13 3.18 1.25 3.09 1.35 2.96 1.47 2.83 1.58 2.74 1.69 2.62 1.8 2.51 1.91 2.4 2.03 2.31 2.12 2.19 2.25 2.09 2.38 2 2.5 1.91 2.63 1.8 2.76 1.71 2.9 1.6 3.01 1.48 3.2 1.39 3.34 1.29zm-701.95 -617.81l-38.16 -6.4 23.3 -15.13 16.82 3.27 16.21 2.42 15.61 1.58 15.03 0.82 14.44 0.06 13.89 -0.63 13.35 -1.31 12.81 -1.94 12.31 -2.55 11.82 -3.12 11.33 -3.66 10.88 -4.18 10.45 -4.66 10 -5.12 9.6 -5.55 9.2 -5.97 8.81 -6.34 8.4 -6.7 8.06 -7.04 7.67 -7.33 7.31 -7.61 6.96 -7.86 6.6 -8.07 6.26 -8.27 5.93 -8.41 5.57 -8.54 5.24 -8.64 4.92 -8.7 4.6 -8.73 4.28 -8.73 3.97 -8.69 3.67 -8.6 35.98 13.88 -4.05 9.52 -4.39 9.59 -4.74 9.65 -5.1 9.69 -5.48 9.68 -5.86 9.66 -6.27 9.6 -6.67 9.49 -7.08 9.35 -7.52 9.19 -7.96 8.98 -8.41 8.77 -8.89 8.47 -9.34 8.18 -9.84 7.82 -10.33 7.44 -10.82 7.01 -11.32 6.57 -11.84 6.04 -12.35 5.52 -12.86 4.94 -13.39 4.32 -13.88 3.66 -14.41 2.99 -14.91 2.26 -15.43 1.51 -15.93 0.73 -16.44 -0.08 -16.95 -0.92 -17.47 -1.78 -17.99 -2.68 -18.5 -3.59 23.3 -15.13zm-38.16 -6.4l3.46 -19.42 19.84 4.29 -23.3 15.13zm-203.35 202.93l-38.72 0.68 22.64 -18.85 10.46 1.46 10.25 0.86 10.06 0.29 9.83 -0.28 9.64 -0.82 9.45 -1.35 9.23 -1.86 9.03 -2.38 8.83 -2.85 8.61 -3.35 8.43 -3.82 8.2 -4.27 7.99 -4.74 7.75 -5.17 7.54 -5.62 7.31 -6.03 7.05 -6.45 6.8 -6.86 6.53 -7.25 6.26 -7.63 5.99 -8.01 5.68 -8.35 5.38 -8.7 5.07 -9.04 4.74 -9.35 4.41 -9.67 4.07 -9.94 3.71 -10.22 3.35 -10.48 2.97 -10.73 2.61 -10.97 2.2 -11.18 38.16 6.4 -2.48 12.52 -2.91 12.31 -3.35 12.09 -3.79 11.84 -4.21 11.58 -4.63 11.32 -5.03 11.01 -5.44 10.73 -5.83 10.4 -6.22 10.08 -6.62 9.73 -6.99 9.35 -7.36 8.97 -7.73 8.57 -8.1 8.16 -8.45 7.73 -8.79 7.27 -9.12 6.8 -9.47 6.31 -9.79 5.8 -10.1 5.27 -10.39 4.7 -10.69 4.15 -10.97 3.55 -11.21 2.94 -11.47 2.32 -11.69 1.67 -11.9 1.02 -12.11 0.34 -12.28 -0.35 -12.45 -1.04 -12.58 -1.76 22.64 -18.85zm-38.72 0.68l-0.43 -22.7 23.07 3.85 -22.64 18.85zm-179.97 232.04l1.46 -37.54 5.3 -0.09 5.76 -0.7 6.21 -1.32 6.62 -1.95 6.93 -2.59 7.21 -3.21 7.43 -3.82 7.58 -4.37 7.68 -4.93 7.75 -5.43 7.76 -5.88 7.73 -6.33 7.67 -6.71 7.55 -7.07 7.42 -7.39 7.25 -7.66 7.01 -7.88 6.77 -8.09 6.5 -8.26 6.16 -8.35 5.82 -8.43 5.43 -8.46 5.01 -8.44 4.57 -8.4 4.1 -8.28 3.58 -8.12 3.05 -7.92 2.49 -7.64 1.92 -7.33 1.33 -6.93 0.75 -6.51 0.17 -6.01 38.72 -0.68 -0.27 9.31 -1.07 9.41 -1.81 9.49 -2.5 9.55 -3.13 9.6 -3.71 9.64 -4.26 9.66 -4.78 9.66 -5.25 9.64 -5.69 9.6 -6.13 9.54 -6.5 9.43 -6.88 9.31 -7.2 9.14 -7.49 8.97 -7.79 8.76 -8.03 8.48 -8.24 8.21 -8.45 7.91 -8.63 7.55 -8.77 7.17 -8.9 6.76 -9.01 6.31 -9.12 5.83 -9.18 5.31 -9.25 4.74 -9.31 4.15 -9.37 3.49 -9.42 2.79 -9.47 2 -9.54 1.14 -9.54 0.17zm1108.65 -435.65l-38.16 6.4 23.3 15.13 -18.51 3.59 -17.99 2.68 -17.47 1.78 -16.95 0.92 -16.44 0.08 -15.93 -0.73 -15.43 -1.51 -14.92 -2.26 -14.4 -2.99 -13.88 -3.66 -13.39 -4.32 -12.87 -4.94 -12.34 -5.52 -11.84 -6.04 -11.33 -6.57 -10.82 -7.01 -10.33 -7.44 -9.84 -7.82 -9.34 -8.18 -8.89 -8.47 -8.41 -8.77 -7.96 -8.98 -7.51 -9.19 -7.1 -9.35 -6.67 -9.5 -6.26 -9.59 -5.87 -9.65 -5.48 -9.69 -5.1 -9.69 -4.74 -9.65 -4.39 -9.59 -4.05 -9.51 35.98 -13.9 3.67 8.61 3.97 8.69 4.28 8.73 4.6 8.73 4.92 8.69 5.25 8.65 5.58 8.55 5.91 8.4 6.26 8.27 6.61 8.07 6.96 7.86 7.31 7.61 7.67 7.33 8.06 7.04 8.4 6.7 8.81 6.34 9.2 5.97 9.59 5.55 10.02 5.12 10.44 4.66 10.89 4.18 11.33 3.66 11.82 3.12 12.3 2.55 12.82 1.94 13.35 1.31 13.89 0.63 14.44 -0.06 15.03 -0.82 15.61 -1.58 16.21 -2.42 16.83 -3.27 23.3 15.13zm-23.3 -15.13l19.84 -4.29 3.46 19.42 -23.3 -15.13zm265.37 218.75l-38.72 -0.7 22.64 18.86 -12.59 1.76 -12.45 1.04 -12.27 0.35 -12.12 -0.34 -11.9 -1.02 -11.69 -1.67 -11.47 -2.32 -11.22 -2.94 -10.96 -3.55 -10.7 -4.15 -10.38 -4.71 -10.1 -5.26 -9.79 -5.8 -9.47 -6.31 -9.13 -6.8 -8.79 -7.27 -8.46 -7.73 -8.08 -8.16 -7.72 -8.57 -7.38 -8.97 -6.98 -9.36 -6.62 -9.72 -6.22 -10.08 -5.83 -10.4 -5.44 -10.73 -5.04 -11.02 -4.61 -11.31 -4.21 -11.58 -3.79 -11.84 -3.35 -12.09 -2.91 -12.31 -2.48 -12.52 38.16 -6.4 2.2 11.18 2.61 10.97 2.97 10.73 3.35 10.48 3.71 10.22 4.07 9.95 4.4 9.66 4.74 9.35 5.07 9.04 5.38 8.7 5.68 8.36 5.98 8 6.26 7.63 6.54 7.25 6.8 6.86 7.04 6.45 7.31 6.03 7.53 5.62 7.77 5.17 7.99 4.74 8.2 4.28 8.42 3.81 8.62 3.35 8.82 2.85 9.04 2.38 9.23 1.86 9.45 1.35 9.64 0.82 9.84 0.28 10.05 -0.29 10.25 -0.86 10.47 -1.46 22.64 18.86zm-22.64 -18.86l23.08 -3.85 -0.44 22.71 -22.64 -18.86zm201.15 213.35l1.46 37.54 -9.54 -0.17 -9.54 -1.14 -9.47 -2 -9.42 -2.79 -9.38 -3.49 -9.31 -4.15 -9.24 -4.74 -9.19 -5.31 -9.11 -5.83 -9.01 -6.31 -8.9 -6.75 -8.78 -7.18 -8.62 -7.55 -8.45 -7.9 -8.26 -8.22 -8.03 -8.49 -7.78 -8.75 -7.5 -8.97 -7.2 -9.15 -6.87 -9.3 -6.5 -9.43 -6.12 -9.53 -5.71 -9.6 -5.25 -9.65 -4.77 -9.66 -4.26 -9.66 -3.71 -9.64 -3.13 -9.6 -2.5 -9.55 -1.81 -9.49 -1.07 -9.42 -0.26 -9.31 38.72 0.7 0.16 6.01 0.75 6.5 1.33 6.93 1.92 7.33 2.49 7.64 3.05 7.92 3.58 8.12 4.09 8.28 4.57 8.39 5.01 8.44 5.44 8.47 5.82 8.43 6.17 8.36 6.48 8.25 6.78 8.09 7.02 7.89 7.23 7.65 7.42 7.38 7.57 7.08 7.66 6.71 7.74 6.32 7.76 5.89 7.75 5.43 7.67 4.93 7.59 4.37 7.42 3.82 7.21 3.21 6.94 2.59 6.62 1.95 6.21 1.32 5.76 0.7 5.3 0.09zm-1214.55 -906.89l-38.16 -6.4 23.3 -15.13 16.73 3.02 17.01 1.88 17.26 0.8 17.48 -0.24 17.65 -1.25 17.78 -2.19 17.86 -3.12 17.9 -3.98 17.87 -4.79 17.78 -5.56 17.68 -6.3 17.51 -6.95 17.27 -7.56 17.01 -8.13 16.67 -8.63 16.31 -9.08 15.89 -9.48 15.41 -9.81 14.88 -10.11 14.31 -10.33 13.71 -10.5 13.02 -10.59 12.31 -10.66 11.55 -10.64 10.71 -10.56 9.86 -10.42 8.92 -10.2 7.98 -9.93 6.94 -9.56 5.87 -9.08 4.77 -8.52 3.62 -7.83 35.98 13.9 -4.92 10.63 -6.03 10.8 -7.07 10.94 -8.08 11.1 -9.02 11.25 -9.94 11.36 -10.82 11.44 -11.65 11.48 -12.45 11.48 -13.19 11.42 -13.92 11.33 -14.59 11.18 -15.21 10.97 -15.82 10.73 -16.37 10.43 -16.87 10.06 -17.33 9.66 -17.77 9.19 -18.15 8.67 -18.49 8.1 -18.81 7.47 -19.06 6.78 -19.3 6.04 -19.49 5.23 -19.62 4.36 -19.74 3.44 -19.8 2.45 -19.83 1.39 -19.8 0.28 -19.74 -0.92 -19.63 -2.18 -19.43 -3.5 23.3 -15.13zm-38.16 -6.4l3.46 -19.43 19.84 4.3 -23.3 15.13zm-357.11 261.67l-38.72 0.68 22.64 -18.85 10.21 1.22 11.09 0.4 11.88 -0.43 12.59 -1.26 13.21 -2.09 13.73 -2.88 14.18 -3.66 14.53 -4.4 14.83 -5.12 15.04 -5.8 15.17 -6.44 15.23 -7.05 15.21 -7.61 15.13 -8.16 14.98 -8.65 14.77 -9.11 14.47 -9.52 14.1 -9.9 13.69 -10.24 13.18 -10.52 12.63 -10.8 11.99 -10.99 11.3 -11.18 10.53 -11.27 9.69 -11.35 8.8 -11.36 7.86 -11.34 6.83 -11.24 5.78 -11.07 4.66 -10.85 3.53 -10.57 2.37 -10.26 38.16 6.4 -3.19 13.78 -4.55 13.69 -5.82 13.55 -6.98 13.39 -8.05 13.22 -9.04 13.06 -9.96 12.88 -10.83 12.67 -11.63 12.45 -12.34 12.2 -13.01 11.93 -13.61 11.64 -14.16 11.32 -14.65 10.96 -15.06 10.56 -15.43 10.16 -15.73 9.69 -15.96 9.23 -16.17 8.7 -16.27 8.15 -16.35 7.57 -16.35 6.94 -16.3 6.28 -16.21 5.6 -16.05 4.86 -15.86 4.08 -15.59 3.28 -15.31 2.41 -14.97 1.5 -14.58 0.53 -14.19 -0.52 -13.71 -1.64 22.64 -18.85zm-38.72 0.68l-0.43 -22.69 23.07 3.84 -22.64 18.85zm-239.54 280.99l1.46 -37.54 4.84 -0.19 5.94 -0.97 6.9 -1.86 7.73 -2.76 8.37 -3.66 8.94 -4.53 9.38 -5.33 9.73 -6.1 10.03 -6.78 10.21 -7.43 10.36 -8.01 10.42 -8.54 10.44 -9.01 10.39 -9.41 10.27 -9.76 10.11 -10.06 9.89 -10.3 9.61 -10.49 9.27 -10.59 8.88 -10.66 8.42 -10.65 7.93 -10.6 7.36 -10.47 6.74 -10.28 6.08 -10.01 5.33 -9.67 4.57 -9.24 3.73 -8.73 2.86 -8.1 1.98 -7.36 1.09 -6.46 0.28 -5.44 38.72 -0.68 -0.5 10.16 -1.73 10.26 -2.78 10.38 -3.72 10.56 -4.59 10.73 -5.37 10.92 -6.13 11.09 -6.8 11.21 -7.44 11.34 -8.02 11.41 -8.55 11.44 -9.04 11.43 -9.48 11.38 -9.85 11.27 -10.21 11.13 -10.49 10.92 -10.73 10.68 -10.93 10.38 -11.07 10.03 -11.16 9.63 -11.22 9.18 -11.22 8.69 -11.21 8.15 -11.13 7.54 -11.03 6.9 -10.9 6.19 -10.76 5.45 -10.63 4.64 -10.49 3.76 -10.4 2.78 -10.34 1.67 -10.34 0.37zm1613.02 -543.34l-38.16 6.4 23.3 15.13 -19.44 3.5 -19.62 2.18 -19.75 0.92 -19.8 -0.28 -19.83 -1.39 -19.81 -2.45 -19.74 -3.44 -19.63 -4.36 -19.47 -5.23 -19.31 -6.04 -19.06 -6.78 -18.81 -7.47 -18.49 -8.1 -18.15 -8.67 -17.76 -9.19 -17.35 -9.66 -16.87 -10.06 -16.36 -10.43 -15.81 -10.73 -15.23 -10.97 -14.58 -11.19 -13.91 -11.31 -13.21 -11.43 -12.44 -11.48 -11.66 -11.48 -10.81 -11.44 -9.94 -11.35 -9.04 -11.26 -8.06 -11.1 -7.07 -10.94 -6.04 -10.8 -4.92 -10.63 35.98 -13.9 3.62 7.83 4.76 8.52 5.89 9.08 6.94 9.56 7.96 9.92 8.94 10.21 9.85 10.42 10.72 10.56 11.54 10.64 12.31 10.65 13.03 10.61 13.7 10.49 14.31 10.33 14.89 10.11 15.42 9.81 15.87 9.48 16.31 9.08 16.68 8.63 17.01 8.13 17.27 7.56 17.51 6.95 17.68 6.3 17.79 5.56 17.87 4.79 17.89 3.98 17.86 3.12 17.79 2.19 17.65 1.25 17.48 0.24 17.27 -0.8 17 -1.88 16.74 -3.02 23.3 15.13zm-23.3 -15.13l19.84 -4.3 3.46 19.43 -23.3 -15.13zm419.13 277.48l-38.72 -0.68 22.64 18.85 -13.71 1.64 -14.19 0.52 -14.59 -0.53 -14.97 -1.5 -15.3 -2.41 -15.6 -3.28 -15.85 -4.08 -16.06 -4.86 -16.21 -5.6 -16.3 -6.28 -16.36 -6.94 -16.33 -7.57 -16.28 -8.15 -16.16 -8.7 -15.97 -9.23 -15.72 -9.7 -15.43 -10.15 -15.07 -10.56 -14.64 -10.96 -14.16 -11.31 -13.62 -11.65 -13.01 -11.93 -12.35 -12.21 -11.61 -12.44 -10.82 -12.67 -9.98 -12.88 -9.04 -13.06 -8.04 -13.22 -6.98 -13.39 -5.82 -13.55 -4.55 -13.69 -3.19 -13.78 38.16 -6.4 2.37 10.26 3.53 10.57 4.66 10.85 5.78 11.07 6.84 11.24 7.84 11.34 8.8 11.36 9.7 11.35 10.53 11.28 11.29 11.17 11.99 10.99 12.62 10.79 13.2 10.53 13.68 10.24 14.11 9.9 14.47 9.53 14.76 9.1 14.99 8.65 15.12 8.16 15.22 7.61 15.23 7.05 15.16 6.44 15.04 5.8 14.83 5.12 14.54 4.4 14.17 3.66 13.74 2.88 13.2 2.09 12.59 1.26 11.89 0.43 11.09 -0.4 10.21 -1.22 22.64 18.85zm-22.64 -18.85l23.07 -3.84 -0.43 22.69 -22.64 -18.85zm260.71 262.3l1.46 37.54 -10.34 -0.37 -10.35 -1.67 -10.4 -2.79 -10.49 -3.75 -10.62 -4.64 -10.75 -5.44 -10.92 -6.2 -11.03 -6.9 -11.14 -7.54 -11.19 -8.15 -11.23 -8.68 -11.22 -9.19 -11.16 -9.63 -11.07 -10.03 -10.93 -10.38 -10.73 -10.68 -10.49 -10.92 -10.2 -11.13 -9.86 -11.27 -9.47 -11.38 -9.05 -11.43 -8.55 -11.45 -8.01 -11.4 -7.44 -11.34 -6.8 -11.22 -6.12 -11.08 -5.37 -10.92 -4.59 -10.72 -3.73 -10.57 -2.78 -10.39 -1.72 -10.25 -0.5 -10.16 38.72 0.68 0.28 5.44 1.1 6.47 1.96 7.35 2.87 8.09 3.73 8.74 4.57 9.24 5.34 9.68 6.06 10 6.74 10.28 7.37 10.48 7.91 10.59 8.43 10.65 8.87 10.66 9.28 10.59 9.6 10.49 9.89 10.3 10.11 10.06 10.27 9.76 10.39 9.41 10.44 9.01 10.42 8.53 10.37 8.02 10.21 7.43 10.02 6.78 9.73 6.1 9.38 5.32 8.95 4.54 8.38 3.66 7.71 2.77 6.9 1.85 5.95 0.97 4.84 0.19zm-1700.02 -1123.61l-36.88 -11.46 19.49 -13.02 20.6 0.52 21.37 -0.54 22.06 -1.55 22.63 -2.52 23.11 -3.45 23.5 -4.32 23.78 -5.16 23.98 -5.94 24.07 -6.67 24.09 -7.33 24 -7.97 23.82 -8.54 23.57 -9.05 23.19 -9.51 22.75 -9.93 22.22 -10.28 21.58 -10.57 20.86 -10.82 20.05 -11.01 19.15 -11.14 18.15 -11.2 17.05 -11.21 15.87 -11.15 14.58 -11.04 13.22 -10.83 11.72 -10.55 10.13 -10.16 8.45 -9.66 6.68 -9.01 4.85 -8.13 3.01 -7.01 1.38 -5.67 38.4 4.82 -2.96 12.49 -5.17 12.11 -7.03 11.85 -8.7 11.73 -10.25 11.74 -11.73 11.76 -13.14 11.83 -14.46 11.85 -15.72 11.9 -16.91 11.89 -18.03 11.85 -19.05 11.76 -20.01 11.64 -20.87 11.45 -21.66 11.24 -22.38 10.97 -23 10.64 -23.55 10.27 -24.01 9.85 -24.39 9.37 -24.68 8.84 -24.9 8.27 -25.05 7.63 -25.09 6.95 -25.06 6.2 -24.96 5.42 -24.78 4.56 -24.51 3.65 -24.17 2.7 -23.76 1.67 -23.29 0.58 -22.7 -0.58 19.49 -13.02zm-36.88 -11.46l4.56 -13.8 14.93 0.78 -19.49 13.02zm-508.95 361.02l-38.5 -3.92 21.41 -16.7 7.44 0.19 9.93 -0.93 12.06 -2.2 13.83 -3.44 15.37 -4.68 16.71 -5.84 17.88 -6.91 18.9 -7.95 19.76 -8.89 20.49 -9.77 21.08 -10.59 21.55 -11.31 21.88 -11.98 22.08 -12.58 22.15 -13.11 22.12 -13.57 21.93 -13.95 21.63 -14.27 21.2 -14.51 20.64 -14.68 19.96 -14.78 19.16 -14.81 18.21 -14.76 17.15 -14.63 15.94 -14.42 14.61 -14.13 13.14 -13.73 11.55 -13.23 9.81 -12.61 7.94 -11.83 5.98 -10.85 3.96 -9.65 36.88 11.46 -5.76 14.09 -7.76 14.13 -9.58 14.27 -11.25 14.47 -12.81 14.69 -14.26 14.89 -15.59 15.07 -16.82 15.22 -17.93 15.31 -18.93 15.34 -19.82 15.33 -20.58 15.24 -21.24 15.1 -21.76 14.89 -22.17 14.63 -22.47 14.29 -22.64 13.89 -22.71 13.43 -22.64 12.9 -22.46 12.3 -22.17 11.65 -21.76 10.91 -21.23 10.13 -20.6 9.27 -19.86 8.35 -19.02 7.37 -18.09 6.3 -17.09 5.2 -16.03 4 -14.98 2.72 -14.03 1.29 -13.2 -0.41 21.41 -16.7zm-38.5 -3.92l2.04 -18.81 19.37 2.11 -21.41 16.7zm-339.59 405.32l4.52 -37.3 0.39 -0.13 3.99 -1.12 6.44 -2.75 8.23 -4.43 9.63 -5.98 10.75 -7.4 11.71 -8.72 12.52 -9.91 13.2 -10.99 13.77 -11.98 14.24 -12.84 14.6 -13.63 14.84 -14.29 15.01 -14.88 15.07 -15.36 15.03 -15.72 14.89 -16.01 14.67 -16.2 14.33 -16.28 13.9 -16.26 13.38 -16.15 12.77 -15.94 12.04 -15.61 11.23 -15.19 10.3 -14.65 9.28 -14.01 8.17 -13.24 6.95 -12.32 5.61 -11.25 4.18 -9.95 2.7 -8.4 1.25 -6.43 38.5 3.92 -2.19 11.67 -3.84 12 -5.26 12.53 -6.55 13.13 -7.75 13.78 -8.87 14.38 -9.9 14.93 -10.86 15.45 -11.71 15.85 -12.5 16.19 -13.17 16.44 -13.76 16.63 -14.28 16.68 -14.69 16.68 -15.01 16.58 -15.23 16.39 -15.39 16.1 -15.43 15.72 -15.39 15.26 -15.26 14.69 -15.04 14.05 -14.74 13.3 -14.35 12.46 -13.88 11.57 -13.34 10.55 -12.73 9.48 -12.09 8.32 -11.41 7.08 -10.83 5.81 -10.46 4.43 -10.57 2.84 -11.61 0.43zm898.56 -1353.06l-38.68 -1.48 16.81 -17.88 17.64 -2.61 18.85 -3.45 19.92 -4.25 20.89 -5.03 21.75 -5.72 22.46 -6.39 23.09 -7.01 23.59 -7.57 23.99 -8.09 24.28 -8.57 24.47 -8.98 24.55 -9.37 24.52 -9.67 24.39 -9.96 24.16 -10.18 23.8 -10.36 23.37 -10.49 22.82 -10.57 22.16 -10.59 21.38 -10.57 20.53 -10.5 19.53 -10.38 18.46 -10.2 17.25 -9.96 15.93 -9.67 14.51 -9.33 12.95 -8.89 11.24 -8.37 9.42 -7.74 7.41 -6.94 5.21 -5.84 2.91 -4.25 34.16 17.68 -6.29 9.37 -7.95 8.94 -9.53 8.94 -11.06 9.1 -12.58 9.37 -14.03 9.63 -15.41 9.91 -16.73 10.15 -17.93 10.36 -19.06 10.54 -20.09 10.66 -21.03 10.76 -21.86 10.81 -22.6 10.81 -23.24 10.77 -23.79 10.67 -24.22 10.54 -24.58 10.36 -24.81 10.12 -24.94 9.85 -24.99 9.53 -24.93 9.16 -24.78 8.73 -24.53 8.27 -24.17 7.77 -23.71 7.19 -23.18 6.59 -22.53 5.94 -21.79 5.23 -21 4.49 -20.09 3.67 -19.1 2.83 16.81 -17.88zm-38.68 -1.48l0.65 -15.81 16.16 -2.07 -16.81 17.88zm-635.08 443.45l-31.78 -21.44 17.74 -7.97 12.38 0.25 15.06 -1.4 17.4 -3.11 19.38 -4.77 21.14 -6.37 22.65 -7.89 23.96 -9.29 25.08 -10.59 25.99 -11.8 26.76 -12.91 27.35 -13.9 27.74 -14.81 28 -15.6 28.07 -16.29 27.99 -16.88 27.71 -17.37 27.3 -17.76 26.71 -18.03 25.96 -18.23 25.05 -18.29 23.95 -18.25 22.7 -18.13 21.27 -17.86 19.68 -17.52 17.92 -17.01 15.97 -16.39 13.84 -15.64 11.55 -14.68 9.04 -13.5 6.44 -12.04 3.76 -10.15 1.32 -7.83 38.68 1.48 -2.54 15.87 -5.78 15.77 -8.46 15.88 -10.86 16.22 -13.09 16.66 -15.16 17.12 -17.11 17.57 -18.9 17.95 -20.54 18.28 -22.07 18.52 -23.4 18.69 -24.61 18.77 -25.65 18.73 -26.54 18.63 -27.29 18.43 -27.86 18.12 -28.27 17.71 -28.55 17.22 -28.65 16.63 -28.6 15.94 -28.4 15.15 -28.05 14.26 -27.54 13.29 -26.89 12.2 -26.08 11.03 -25.16 9.75 -24.07 8.37 -22.9 6.91 -21.62 5.31 -20.28 3.61 -18.94 1.74 -17.64 -0.39 17.74 -7.97zm-31.78 -21.44l6.47 -9.02 11.27 1.05 -17.74 7.97zm-488.04 395.26l-4.3 -37.32 13.89 -1.93 14.4 -2.85 14.86 -3.72 15.28 -4.59 15.66 -5.43 15.98 -6.24 16.28 -7.01 16.5 -7.76 16.72 -8.48 16.87 -9.14 16.98 -9.79 17.07 -10.41 17.12 -10.96 17.11 -11.51 17.09 -12.01 17.02 -12.48 16.9 -12.9 16.76 -13.3 16.6 -13.67 16.37 -13.97 16.12 -14.28 15.84 -14.52 15.51 -14.73 15.16 -14.91 14.78 -15.07 14.35 -15.16 13.87 -15.23 13.39 -15.26 12.84 -15.27 12.29 -15.21 11.68 -15.13 11.05 -15.02 31.78 21.44 -11.57 15.74 -12.2 15.81 -12.79 15.83 -13.34 15.85 -13.87 15.82 -14.37 15.77 -14.83 15.66 -15.24 15.55 -15.64 15.39 -16.01 15.21 -16.34 14.96 -16.62 14.72 -16.89 14.43 -17.12 14.09 -17.32 13.76 -17.5 13.34 -17.62 12.92 -17.73 12.47 -17.81 11.97 -17.84 11.44 -17.85 10.87 -17.84 10.29 -17.79 9.64 -17.72 8.98 -17.62 8.28 -17.48 7.53 -17.32 6.76 -17.16 5.95 -16.96 5.09 -16.72 4.2 -16.5 3.25 -16.21 2.25zm2437.53 -817.28l-38.68 1.5 16.81 17.87 -19.1 -2.83 -20.09 -3.67 -20.99 -4.49 -21.8 -5.23 -22.52 -5.94 -23.18 -6.59 -23.71 -7.19 -24.17 -7.77 -24.53 -8.27 -24.78 -8.73 -24.93 -9.16 -24.99 -9.53 -24.94 -9.85 -24.81 -10.12 -24.57 -10.36 -24.22 -10.54 -23.8 -10.67 -23.24 -10.77 -22.59 -10.81 -21.87 -10.81 -21.02 -10.76 -20.1 -10.66 -19.05 -10.54 -17.93 -10.36 -16.73 -10.15 -15.41 -9.91 -14.03 -9.63 -12.58 -9.37 -11.07 -9.1 -9.53 -8.94 -7.95 -8.94 -6.29 -9.37 34.16 -17.68 2.91 4.25 5.21 5.84 7.41 6.94 9.41 7.74 11.26 8.37 12.95 8.89 14.51 9.33 15.93 9.67 17.25 9.96 18.45 10.2 19.54 10.38 20.52 10.5 21.39 10.57 22.15 10.59 22.82 10.57 23.36 10.49 23.82 10.36 24.15 10.18 24.39 9.96 24.52 9.67 24.55 9.37 24.47 8.98 24.28 8.57 23.99 8.09 23.59 7.57 23.09 7.01 22.46 6.39 21.74 5.72 20.9 5.03 19.91 4.25 18.85 3.45 17.64 2.61 16.81 17.87zm-16.81 -17.87l16.16 2.07 0.65 15.8 -16.81 -17.87zm683.69 439.89l-31.78 21.44 17.74 7.97 -17.64 0.39 -18.94 -1.74 -20.28 -3.61 -21.63 -5.31 -22.89 -6.91 -24.08 -8.37 -25.15 -9.75 -26.08 -11.03 -26.89 -12.2 -27.54 -13.29 -28.05 -14.26 -28.4 -15.15 -28.6 -15.94 -28.65 -16.63 -28.54 -17.22 -28.28 -17.71 -27.86 -18.12 -27.29 -18.43 -26.54 -18.63 -25.64 -18.73 -24.62 -18.76 -23.4 -18.7 -22.07 -18.52 -20.54 -18.28 -18.9 -17.95 -17.11 -17.57 -15.17 -17.12 -13.08 -16.66 -10.87 -16.22 -8.46 -15.89 -5.78 -15.75 -2.55 -15.87 38.68 -1.5 1.33 7.83 3.76 10.17 6.42 12.03 9.07 13.5 11.54 14.68 13.85 15.64 15.97 16.39 17.92 17.01 19.68 17.52 21.27 17.86 22.7 18.12 23.96 18.26 25.04 18.29 25.96 18.23 26.71 18.03 27.3 17.76 27.72 17.37 27.98 16.88 28.07 16.29 28 15.6 27.74 14.81 27.35 13.9 26.76 12.91 25.99 11.8 25.08 10.59 23.95 9.29 22.66 7.89 21.13 6.37 19.39 4.77 17.4 3.11 15.06 1.4 12.38 -0.25 17.74 7.97zm-17.74 -7.97l11.27 -1.05 6.47 9.02 -17.74 -7.97zm510.08 365.91l-4.3 37.32 -16.21 -2.25 -16.5 -3.25 -16.72 -4.2 -16.96 -5.09 -17.16 -5.95 -17.33 -6.76 -17.47 -7.53 -17.63 -8.28 -17.71 -8.98 -17.79 -9.64 -17.85 -10.29 -17.85 -10.87 -17.84 -11.44 -17.81 -11.97 -17.72 -12.47 -17.62 -12.92 -17.5 -13.34 -17.32 -13.76 -17.12 -14.09 -16.89 -14.43 -16.63 -14.72 -16.33 -14.97 -16.01 -15.2 -15.64 -15.39 -15.24 -15.55 -14.83 -15.66 -14.37 -15.77 -13.87 -15.82 -13.34 -15.85 -12.79 -15.83 -12.2 -15.81 -11.57 -15.74 31.78 -21.44 11.05 15.02 11.68 15.13 12.29 15.21 12.84 15.27 13.39 15.26 13.87 15.23 14.35 15.16 14.78 15.07 15.16 14.91 15.51 14.74 15.83 14.51 16.13 14.28 16.37 13.97 16.6 13.67 16.76 13.3 16.9 12.9 17.02 12.48 17.08 12.01 17.11 11.51 17.12 10.96 17.07 10.41 16.99 9.79 16.87 9.14 16.71 8.48 16.51 7.76 16.27 7.01 15.99 6.24 15.66 5.43 15.28 4.59 14.86 3.72 14.4 2.85 13.89 1.93zm-1186.37 -187.83l-36.88 11.46 19.49 13.02 -22.7 0.58 -23.29 -0.58 -23.75 -1.67 -24.18 -2.7 -24.51 -3.65 -24.77 -4.56 -24.96 -5.42 -25.07 -6.2 -25.09 -6.95 -25.04 -7.63 -24.9 -8.27 -24.69 -8.84 -24.38 -9.37 -24.02 -9.85 -23.55 -10.27 -22.99 -10.64 -22.38 -10.97 -21.66 -11.23 -20.88 -11.46 -20 -11.64 -19.05 -11.76 -18.03 -11.85 -16.91 -11.89 -15.72 -11.9 -14.46 -11.85 -13.14 -11.83 -11.73 -11.76 -10.26 -11.73 -8.7 -11.75 -7.02 -11.84 -5.18 -12.1 -2.96 -12.5 38.4 -4.82 1.38 5.66 3.02 7.02 4.84 8.14 6.68 8.99 8.46 9.67 10.13 10.16 11.72 10.55 13.22 10.83 14.58 11.04 15.87 11.15 17.05 11.21 18.15 11.2 19.14 11.14 20.06 11 20.86 10.83 21.58 10.57 22.21 10.28 22.75 9.93 23.2 9.51 23.56 9.05 23.83 8.54 24 7.97 24.08 7.33 24.07 6.67 23.99 5.94 23.78 5.16 23.49 4.32 23.11 3.45 22.64 2.52 22.05 1.55 21.37 0.54 20.6 -0.52 19.49 13.02zm-19.49 -13.02l14.93 -0.78 4.56 13.8 -19.49 -13.02zm566.96 370.12l-38.5 3.92 21.4 16.7 -13.19 0.41 -14.03 -1.29 -14.98 -2.72 -16.04 -4 -17.09 -5.2 -18.09 -6.3 -19.02 -7.37 -19.86 -8.35 -20.6 -9.27 -21.23 -10.13 -21.76 -10.91 -22.17 -11.65 -22.46 -12.3 -22.64 -12.9 -22.72 -13.43 -22.63 -13.89 -22.47 -14.29 -22.18 -14.63 -21.76 -14.89 -21.24 -15.1 -20.58 -15.24 -19.81 -15.33 -18.93 -15.34 -17.93 -15.31 -16.82 -15.22 -15.59 -15.07 -14.27 -14.89 -12.8 -14.69 -11.26 -14.47 -9.58 -14.27 -7.76 -14.13 -5.76 -14.09 36.88 -11.46 3.96 9.65 5.98 10.85 7.94 11.83 9.82 12.61 11.54 13.23 13.15 13.73 14.61 14.13 15.94 14.42 17.15 14.63 18.21 14.76 19.15 14.81 19.96 14.78 20.64 14.68 21.2 14.51 21.64 14.27 21.93 13.95 22.11 13.57 22.16 13.11 22.08 12.58 21.88 11.98 21.55 11.31 21.08 10.59 20.49 9.77 19.76 8.89 18.9 7.95 17.88 6.91 16.71 5.84 15.37 4.68 13.84 3.44 12.06 2.2 9.93 0.93 7.45 -0.19 21.4 16.7zm-21.4 -16.7l19.36 -2.1 2.04 18.8 -21.4 -16.7zm356.47 384.72l4.52 37.3 -11.61 -0.43 -10.57 -2.84 -10.46 -4.43 -10.83 -5.81 -11.41 -7.08 -12.09 -8.32 -12.73 -9.48 -13.34 -10.55 -13.88 -11.57 -14.35 -12.46 -14.74 -13.3 -15.04 -14.05 -15.26 -14.69 -15.39 -15.26 -15.43 -15.72 -15.39 -16.1 -15.23 -16.39 -15.01 -16.58 -14.69 -16.68 -14.28 -16.68 -13.76 -16.63 -13.17 -16.44 -12.5 -16.19 -11.71 -15.85 -10.86 -15.45 -9.9 -14.93 -8.87 -14.38 -7.75 -13.78 -6.55 -13.13 -5.26 -12.53 -3.84 -12 -2.19 -11.67 38.5 -3.92 1.25 6.43 2.7 8.4 4.18 9.95 5.61 11.25 6.95 12.32 8.17 13.24 9.28 14.01 10.3 14.65 11.23 15.19 12.04 15.61 12.77 15.94 13.38 16.15 13.9 16.26 14.33 16.28 14.67 16.2 14.89 16.01 15.03 15.72 15.07 15.36 15.01 14.88 14.84 14.29 14.6 13.63 14.24 12.84 13.77 11.98 13.2 10.99 12.52 9.91 11.71 8.72 10.75 7.4 9.63 5.98 8.23 4.43 6.44 2.75 3.99 1.12 0.39 0.13zm-2048.86 -1700.77l-22.74 -30.4 4.24 -2.26 4.92 -1.88 4.94 -1.88 4.97 -1.89 4.98 -1.87 5 -1.88 5.05 -1.88 5.06 -1.88 5.08 -1.87 5.11 -1.88 5.13 -1.86 5.15 -1.86 5.15 -1.86 5.18 -1.86 5.21 -1.85 5.23 -1.86 5.25 -1.84 13.16 35.32 -5.17 1.82 -5.15 1.82 -5.13 1.83 -5.12 1.84 -5.11 1.84 -5.09 1.84 -5.05 1.84 -5.03 1.84 -5.02 1.85 -4.98 1.84 -4.97 1.86 -4.96 1.86 -4.92 1.85 -4.89 1.85 -4.88 1.86 -4.84 1.86 4.24 -2.26zm-22.74 -30.4l1.98 -1.39 2.26 -0.87 -4.24 2.26zm-680.87 364.67l-31.78 -21.44 7.8 -6.34 19.13 -8.41 19.4 -8.3 19.65 -8.22 19.91 -8.16 20.14 -8.13 20.39 -8.12 20.6 -8.14 20.84 -8.19 21.05 -8.24 21.23 -8.33 21.44 -8.46 21.62 -8.59 21.79 -8.74 21.98 -8.95 22.13 -9.14 22.3 -9.38 22.43 -9.64 22.57 -9.92 22.71 -10.23 22.84 -10.56 22.94 -10.9 23.05 -11.29 23.15 -11.68 23.24 -12.12 23.33 -12.55 23.4 -13.03 23.47 -13.54 23.54 -14.05 23.58 -14.59 23.63 -15.16 23.67 -15.76 23.7 -16.37 22.74 30.4 -24.26 16.75 -24.21 16.12 -24.17 15.52 -24.12 14.91 -24.06 14.37 -23.97 13.82 -23.9 13.31 -23.81 12.81 -23.7 12.36 -23.59 11.9 -23.47 11.49 -23.34 11.1 -23.2 10.72 -23.03 10.39 -22.89 10.06 -22.73 9.76 -22.54 9.48 -22.35 9.24 -22.16 9.01 -21.95 8.82 -21.74 8.63 -21.5 8.48 -21.29 8.35 -21.03 8.24 -20.78 8.17 -20.52 8.1 -20.25 8.06 -19.96 8.07 -19.69 8.06 -19.37 8.1 -19.08 8.16 -18.75 8.25 7.8 -6.34zm-31.78 -21.44l3.02 -4.21 4.78 -2.13 -7.8 6.34zm-402.65 459.76l-19.62 -32.38 13.63 -8.08 13.87 -8.81 14.07 -9.51 14.24 -10.16 14.39 -10.78 14.5 -11.36 14.59 -11.9 14.65 -12.4 14.69 -12.85 14.69 -13.28 14.7 -13.66 14.65 -13.99 14.6 -14.29 14.51 -14.57 14.4 -14.77 14.27 -14.96 14.12 -15.1 13.93 -15.2 13.75 -15.28 13.52 -15.29 13.26 -15.28 13 -15.23 12.72 -15.14 12.4 -14.99 12.05 -14.83 11.7 -14.62 11.32 -14.37 10.91 -14.07 10.48 -13.75 10.04 -13.38 9.55 -12.97 9.07 -12.51 31.78 21.44 -9.25 12.79 -9.75 13.23 -10.22 13.62 -10.66 13.99 -11.09 14.31 -11.5 14.59 -11.88 14.84 -12.25 15.07 -12.6 15.23 -12.9 15.36 -13.2 15.47 -13.48 15.52 -13.74 15.55 -13.97 15.52 -14.19 15.48 -14.36 15.36 -14.55 15.26 -14.7 15.07 -14.81 14.87 -14.94 14.63 -15.01 14.33 -15.08 14.02 -15.13 13.66 -15.15 13.27 -15.17 12.82 -15.15 12.36 -15.12 11.84 -15.07 11.3 -15.02 10.72 -14.93 10.09 -14.83 9.43 -14.73 8.72zm2265.13 -802.99l-22.74 30.4 4.26 2.27 -4.85 -1.85 -4.87 -1.86 -4.89 -1.84 -4.93 -1.86 -4.95 -1.86 -4.95 -1.84 -5 -1.85 -5.03 -1.85 -5.03 -1.84 -5.05 -1.84 -5.09 -1.84 -5.1 -1.85 -5.11 -1.83 -5.13 -1.83 -5.14 -1.83 -5.17 -1.82 13.2 -35.3 5.23 1.84 5.22 1.85 5.19 1.85 5.19 1.87 5.14 1.85 5.13 1.86 5.13 1.86 5.11 1.88 5.07 1.87 5.06 1.87 5.05 1.88 5.01 1.88 4.97 1.86 4.97 1.88 4.93 1.88 4.91 1.87 4.26 2.27zm-4.26 -2.27l2.27 0.87 1.99 1.4 -4.26 -2.27zm716.89 345.5l-31.78 21.44 7.8 6.34 -18.75 -8.25 -19.08 -8.16 -19.37 -8.1 -19.69 -8.06 -19.96 -8.07 -20.25 -8.06 -20.52 -8.1 -20.78 -8.17 -21.03 -8.24 -21.29 -8.35 -21.5 -8.48 -21.74 -8.63 -21.95 -8.82 -22.16 -9.01 -22.35 -9.24 -22.54 -9.48 -22.72 -9.76 -22.88 -10.06 -23.05 -10.39 -23.2 -10.72 -23.33 -11.1 -23.47 -11.49 -23.59 -11.9 -23.7 -12.36 -23.81 -12.81 -23.9 -13.31 -23.97 -13.82 -24.05 -14.37 -24.12 -14.91 -24.17 -15.52 -24.22 -16.12 -24.25 -16.75 22.74 -30.4 23.69 16.37 23.68 15.76 23.63 15.16 23.58 14.59 23.53 14.05 23.47 13.54 23.4 13.03 23.33 12.55 23.24 12.12 23.15 11.68 23.05 11.29 22.95 10.9 22.82 10.56 22.71 10.23 22.58 9.92 22.42 9.64 22.3 9.38 22.13 9.14 21.98 8.95 21.79 8.74 21.62 8.59 21.44 8.46 21.23 8.33 21.05 8.24 20.84 8.19 20.6 8.14 20.39 8.12 20.14 8.13 19.91 8.16 19.65 8.22 19.4 8.3 19.13 8.41 7.8 6.34zm-7.8 -6.34l4.78 2.13 3.02 4.21 -7.8 -6.34zm429.93 433.65l-19.62 32.38 -14.73 -8.74 -14.83 -9.42 -14.93 -10.1 -15 -10.71 -15.07 -11.3 -15.12 -11.85 -15.15 -12.36 -15.15 -12.82 -15.15 -13.27 -15.13 -13.66 -15.07 -14.01 -15.01 -14.35 -14.92 -14.62 -14.81 -14.86 -14.7 -15.07 -14.54 -15.25 -14.36 -15.37 -14.19 -15.47 -13.96 -15.53 -13.73 -15.53 -13.48 -15.52 -13.2 -15.46 -12.91 -15.37 -12.57 -15.22 -12.24 -15.05 -11.89 -14.84 -11.49 -14.6 -11.09 -14.3 -10.66 -13.98 -10.21 -13.61 -9.74 -13.22 -9.26 -12.79 31.78 -21.44 9.06 12.51 9.56 12.96 10.03 13.37 10.48 13.74 10.91 14.08 11.31 14.36 11.69 14.6 12.06 14.83 12.39 15 12.71 15.13 13 15.22 13.26 15.28 13.51 15.29 13.74 15.27 13.93 15.19 14.12 15.11 14.26 14.95 14.4 14.77 14.51 14.56 14.58 14.3 14.65 13.99 14.69 13.65 14.69 13.28 14.69 12.85 14.65 12.4 14.59 11.9 14.5 11.37 14.37 10.78 14.24 10.17 14.07 9.5 13.85 8.82 13.63 8.08zm-1716.3 2338.71l13.14 35.34 -76.47 26.6 -75.44 25.96 -74.42 25.37 -73.4 24.77 -72.39 24.21 -71.39 23.67 -70.39 23.14 -69.39 22.64 -68.39 22.15 -67.41 21.68 -66.42 21.25 -65.45 20.82 -64.47 20.42 -63.51 20.02 -62.54 19.67 -61.58 19.34 -60.64 19 -59.68 18.71 -58.73 18.42 -57.79 18.16 -56.86 17.92 -55.92 17.7 -55 17.5 -54.07 17.32 -53.16 17.16 -52.25 17.01 -51.33 16.9 -50.45 16.81 -49.53 16.71 -48.64 16.66 -47.75 16.63 -46.86 16.6 -13.4 -35.24 47.08 -16.68 47.95 -16.69 48.82 -16.72 49.69 -16.77 50.57 -16.85 51.47 -16.94 52.35 -17.05 53.26 -17.2 54.15 -17.34 55.06 -17.52 55.98 -17.72 56.9 -17.92 57.81 -18.18 58.75 -18.42 59.68 -18.71 60.62 -19 61.56 -19.32 62.52 -19.67 63.47 -20.02 64.43 -20.4 65.39 -20.8 66.36 -21.23 67.35 -21.66 68.31 -22.13 69.31 -22.6 70.29 -23.12 71.29 -23.63 72.29 -24.17 73.3 -24.75 74.3 -25.33 75.34 -25.92 76.33 -26.56zm0 35.34l13.14 -35.34 76.34 26.56 75.33 25.92 74.3 25.33 73.3 24.75 72.3 24.17 71.28 23.63 70.29 23.12 69.31 22.6 68.32 22.13 67.34 21.66 66.37 21.23 65.39 20.8 64.43 20.4 63.47 20.02 62.51 19.67 61.57 19.32 60.61 19 59.68 18.71 58.75 18.42 57.82 18.18 56.89 17.92 55.98 17.72 55.06 17.52 54.16 17.34 53.25 17.2 52.35 17.05 51.47 16.94 50.57 16.85 49.68 16.77 48.82 16.72 47.95 16.69 47.08 16.68 -13.4 35.24 -46.86 -16.6 -47.75 -16.63 -48.64 -16.66 -49.54 -16.71 -50.43 -16.81 -51.33 -16.9 -52.25 -17.01 -53.15 -17.16 -54.08 -17.32 -55 -17.5 -55.92 -17.7 -56.85 -17.92 -57.8 -18.16 -58.73 -18.42 -59.68 -18.71 -60.63 -19 -61.59 -19.34 -62.53 -19.67 -63.51 -20.02 -64.47 -20.42 -65.45 -20.82 -66.43 -21.25 -67.4 -21.68 -68.4 -22.15 -69.39 -22.64 -70.39 -23.14 -71.38 -23.67 -72.4 -24.21 -73.4 -24.77 -74.42 -25.37 -75.43 -25.96 -76.48 -26.6zm-11.65 -24.03l36.44 12.72 -31.04 82.31 -32.24 83.22 -33.29 84.03 -34.13 84.76 -34.81 85.36 -35.3 85.89 -35.62 86.3 -35.74 86.62 -35.69 86.83 -35.46 86.95 -35.05 86.98 -34.46 86.89 -33.68 86.71 -32.72 86.42 -31.6 86.04 -30.27 85.56 -28.77 84.96 -27.1 84.27 -25.24 83.47 -23.21 82.58 -20.98 81.58 -18.59 80.47 -16.02 79.26 -13.27 77.94 -10.34 76.52 -7.23 74.98 -3.97 73.35 -0.52 71.62 3.08 69.76 6.87 67.83 10.81 65.78 14.92 63.66 -37.44 9.58 -15.5 -66.12 -11.19 -68.12 -7.09 -69.97 -3.18 -71.74 0.54 -73.4 4.05 -74.97 7.37 -76.44 10.52 -77.82 13.47 -79.12 16.22 -80.3 18.81 -81.41 21.2 -82.4 23.41 -83.32 25.44 -84.13 27.28 -84.85 28.95 -85.46 30.43 -86 31.72 -86.42 32.86 -86.74 33.78 -86.97 34.54 -87.11 35.11 -87.14 35.52 -87.07 35.71 -86.91 35.76 -86.64 35.6 -86.28 35.28 -85.81 34.75 -85.24 34.07 -84.58 33.19 -83.81 32.14 -82.94 30.9 -81.97zm2.69 -4.85l31.06 22.42 -57.99 74.42 -57.67 71.83 -57.28 69.45 -56.78 67.23 -56.19 65.21 -55.51 63.39 -54.75 61.74 -53.87 60.29 -52.92 59.03 -51.86 57.94 -50.73 57.06 -49.5 56.37 -48.17 55.84 -46.77 55.52 -45.26 55.4 -43.69 55.44 -42 55.68 -40.24 56.11 -38.4 56.72 -36.47 57.53 -34.45 58.55 -32.37 59.73 -30.18 61.11 -27.91 62.7 -25.58 64.49 -23.15 66.45 -20.63 68.63 -18.04 71.02 -15.35 73.59 -12.56 76.36 -9.7 79.34 -6.75 82.51 -38.64 -2.26 6.85 -83.93 9.88 -80.82 12.82 -77.88 15.67 -75.11 18.42 -72.56 21.09 -70.15 23.67 -67.95 26.14 -65.91 28.53 -64.08 30.82 -62.41 33.01 -60.93 35.11 -59.63 37.09 -58.53 39 -57.62 40.8 -56.89 42.52 -56.36 44.13 -56.02 45.66 -55.86 47.09 -55.92 48.43 -56.14 49.68 -56.57 50.85 -57.2 51.92 -58 52.9 -59.01 53.81 -60.21 54.61 -61.6 55.33 -63.19 55.97 -64.95 56.52 -66.93 56.98 -69.07 57.35 -71.43 57.65 -73.98zm4.58 -4.28l21.9 30.98 -89.48 58.81 -86.77 55.78 -84.1 52.99 -81.46 50.41 -78.83 48.07 -76.23 45.96 -73.66 44.06 -71.12 42.41 -68.58 40.97 -66.1 39.76 -63.63 38.78 -61.18 38.02 -58.76 37.49 -56.36 37.19 -54 37.09 -51.67 37.24 -49.36 37.61 -47.1 38.2 -44.87 39.01 -42.66 40.06 -40.51 41.33 -38.4 42.83 -36.33 44.57 -34.29 46.55 -32.32 48.77 -30.37 51.24 -28.46 53.93 -26.58 56.89 -24.72 60.08 -22.9 63.51 -21.11 67.18 -19.33 71.08 -37.6 -8.94 19.69 -72.4 21.55 -68.58 23.44 -65.01 25.36 -61.62 27.32 -58.49 29.3 -55.55 31.33 -52.84 33.34 -50.33 35.41 -48.05 37.47 -45.97 39.56 -44.13 41.65 -42.49 43.78 -41.1 45.91 -39.93 48.06 -38.98 50.24 -38.27 52.43 -37.8 54.66 -37.55 56.92 -37.55 59.2 -37.77 61.52 -38.24 63.87 -38.92 66.24 -39.86 68.66 -40.99 71.1 -42.41 73.58 -44.02 76.09 -45.86 78.63 -47.95 81.22 -50.27 83.82 -52.81 86.45 -55.58 89.14 -58.59zm-4.58 26.7l31.06 -22.42 57.65 73.98 57.35 71.43 56.98 69.07 56.52 66.93 55.97 64.95 55.34 63.19 54.6 61.6 53.81 60.21 52.9 59.01 51.93 58 50.84 57.2 49.68 56.57 48.44 56.14 47.09 55.92 45.66 55.87 44.12 56.01 42.52 56.36 40.81 56.89 39 57.62 37.09 58.53 35.11 59.63 33.01 60.93 30.82 62.41 28.53 64.08 26.14 65.91 23.67 67.95 21.1 70.15 18.42 72.56 15.67 75.11 12.82 77.88 9.88 80.82 6.85 83.93 -38.64 2.26 -6.75 -82.51 -9.7 -79.34 -12.56 -76.36 -15.35 -73.59 -18.04 -71.02 -20.64 -68.63 -23.15 -66.45 -25.58 -64.49 -27.91 -62.7 -30.18 -61.11 -32.37 -59.73 -34.45 -58.55 -36.47 -57.53 -38.4 -56.72 -40.25 -56.11 -42 -55.68 -43.68 -55.45 -45.26 -55.39 -46.77 -55.52 -48.18 -55.84 -49.5 -56.37 -50.72 -57.06 -51.87 -57.94 -52.92 -59.03 -53.87 -60.29 -54.74 -61.74 -55.52 -63.39 -56.19 -65.21 -56.78 -67.23 -57.28 -69.45 -57.67 -71.83 -57.99 -74.42zm4.58 4.28l21.9 -30.98 89.14 58.59 86.46 55.58 83.82 52.81 81.21 50.27 78.63 47.95 76.1 45.86 73.58 44.02 71.1 42.41 68.66 40.99 66.24 39.86 63.87 38.92 61.52 38.24 59.2 37.77 56.92 37.55 54.67 37.55 52.43 37.8 50.24 38.27 48.06 38.98 45.91 39.93 43.77 41.1 41.66 42.49 39.55 44.13 37.47 45.97 35.41 48.05 33.35 50.33 31.32 52.85 29.3 55.54 27.32 58.49 25.36 61.62 23.44 65.01 21.55 68.59 19.68 72.4 -37.6 8.92 -19.34 -71.08 -21.09 -67.17 -22.9 -63.51 -24.72 -60.08 -26.58 -56.89 -28.46 -53.94 -30.36 -51.23 -32.31 -48.77 -34.31 -46.55 -36.33 -44.57 -38.39 -42.83 -40.52 -41.33 -42.67 -40.06 -44.85 -39.01 -47.1 -38.2 -49.36 -37.61 -51.67 -37.24 -54.01 -37.09 -56.36 -37.19 -58.76 -37.49 -61.18 -38.02 -63.63 -38.78 -66.1 -39.76 -68.58 -40.97 -71.12 -42.41 -73.66 -44.06 -76.24 -45.96 -78.83 -48.07 -81.45 -50.41 -84.1 -52.99 -86.78 -55.78 -89.48 -58.81zm21.69 -31.11l-21.48 31.24 -79.27 -51.45 -78.17 -51.01 -77.07 -50.58 -75.96 -50.12 -74.9 -49.64 -73.8 -49.14 -72.73 -48.63 -71.66 -48.1 -70.59 -47.54 -69.54 -46.99 -68.48 -46.41 -67.43 -45.8 -66.39 -45.19 -65.35 -44.56 -64.31 -43.9 -63.3 -43.24 -62.27 -42.55 -61.26 -41.85 -60.23 -41.12 -59.24 -40.39 -58.23 -39.64 -57.24 -38.86 -56.26 -38.07 -55.25 -37.27 -54.3 -36.45 -53.31 -35.6 -52.34 -34.73 -51.38 -33.87 -50.42 -32.97 -49.46 -32.06 -48.52 -31.13 -47.57 -30.19 21.1 -31.48 47.75 30.29 48.68 31.23 49.6 32.16 50.54 33.05 51.5 33.93 52.44 34.81 53.39 35.66 54.36 36.49 55.33 37.31 56.3 38.11 57.28 38.88 58.27 39.66 59.26 40.41 60.25 41.14 61.26 41.85 62.27 42.55 63.28 43.22 64.31 43.9 65.33 44.54 66.35 45.17 67.41 45.78 68.44 46.39 69.48 46.95 70.55 47.52 71.6 48.06 72.67 48.59 73.74 49.1 74.82 49.58 75.9 50.08 76.99 50.52 78.09 50.97 79.17 51.39zm-4.73 -2.23l-12.02 35.7 -82.06 -26.17 -80.86 -26.11 -79.71 -26.02 -78.51 -25.91 -77.35 -25.78 -76.2 -25.61 -75.05 -25.46 -73.89 -25.25 -72.76 -25.05 -71.62 -24.8 -70.49 -24.54 -69.38 -24.26 -68.25 -23.97 -67.13 -23.64 -66.04 -23.29 -64.93 -22.93 -63.85 -22.55 -62.75 -22.15 -61.68 -21.71 -60.58 -21.27 -59.53 -20.8 -58.46 -20.29 -57.41 -19.8 -56.34 -19.25 -55.3 -18.71 -54.27 -18.12 -53.21 -17.53 -52.19 -16.91 -51.16 -16.27 -50.15 -15.61 -49.13 -14.93 -48.12 -14.22 11.14 -35.98 48.42 14.32 49.39 15.01 50.39 15.69 51.38 16.33 52.39 16.97 53.39 17.59 54.41 18.18 55.42 18.75 56.46 19.29 57.49 19.82 58.54 20.33 59.59 20.82 60.64 21.27 61.7 21.73 62.77 22.15 63.85 22.55 64.93 22.93 66.02 23.29 67.11 23.64 68.21 23.95 69.32 24.24 70.43 24.52 71.56 24.78 72.68 25.01 73.81 25.23 74.95 25.42 76.1 25.59 77.25 25.74 78.41 25.87 79.57 25.98 80.74 26.07 81.92 26.13zm-6.4 -0.93l0.78 37.56 -80.26 1.41 -79.11 1.1 -78 0.8 -76.87 0.53 -75.77 0.28 -74.65 0.05 -73.56 -0.16 -72.46 -0.35 -71.35 -0.51 -70.28 -0.65 -69.2 -0.78 -68.13 -0.87 -67.04 -0.95 -65.99 -1.01 -64.94 -1.05 -63.86 -1.05 -62.83 -1.05 -61.78 -1.02 -60.75 -0.96 -59.7 -0.9 -58.68 -0.79 -57.67 -0.68 -56.65 -0.55 -55.62 -0.38 -54.62 -0.2 -53.63 0.01 -52.64 0.23 -51.63 0.47 -50.65 0.75 -49.67 1.02 -48.69 1.35 -47.72 1.67 -1.56 -37.52 48.04 -1.69 48.97 -1.35 49.93 -1.04 50.87 -0.75 51.85 -0.47 52.8 -0.23 53.79 -0.01 54.76 0.2 55.76 0.38 56.73 0.55 57.75 0.68 58.74 0.79 59.76 0.9 60.77 0.96 61.8 1.02 62.83 1.05 63.86 1.05 64.9 1.05 65.95 1.01 67 0.95 68.07 0.87 69.12 0.78 70.2 0.65 71.27 0.51 72.36 0.35 73.44 0.16 74.55 -0.05 75.63 -0.28 76.75 -0.53 77.86 -0.8 78.97 -1.1 80.1 -1.41zm11.13 34.4l-21.48 -31.24 79.18 -51.39 78.08 -50.97 76.99 -50.52 75.91 -50.08 74.82 -49.58 73.74 -49.1 72.67 -48.59 71.61 -48.06 70.55 -47.52 69.48 -46.95 68.44 -46.39 67.41 -45.78 66.35 -45.17 65.33 -44.54 64.31 -43.9 63.28 -43.22 62.27 -42.55 61.27 -41.86 60.25 -41.13 59.25 -40.41 58.27 -39.66 57.28 -38.88 56.3 -38.11 55.33 -37.31 54.36 -36.49 53.39 -35.66 52.44 -34.81 51.49 -33.93 50.54 -33.05 49.61 -32.16 48.67 -31.23 47.75 -30.29 21.1 31.48 -47.57 30.19 -48.51 31.13 -49.47 32.06 -50.42 32.97 -51.37 33.87 -52.34 34.73 -53.31 35.6 -54.3 36.45 -55.25 37.27 -56.26 38.07 -57.24 38.86 -58.23 39.64 -59.23 40.39 -60.25 41.13 -61.25 41.84 -62.27 42.55 -63.3 43.24 -64.31 43.9 -65.35 44.56 -66.39 45.19 -67.43 45.8 -68.48 46.41 -69.54 46.99 -70.59 47.54 -71.67 48.1 -72.73 48.63 -73.8 49.14 -74.9 49.64 -75.97 50.12 -77.07 50.58 -78.16 51.01 -79.28 51.45zm-4.73 2.23l-12.02 -35.7 81.92 -26.13 80.75 -26.07 79.56 -25.98 78.41 -25.87 77.26 -25.74 76.1 -25.59 74.95 -25.42 73.81 -25.23 72.68 -25.01 71.56 -24.78 70.43 -24.52 69.32 -24.24 68.21 -23.95 67.12 -23.64 66.01 -23.29 64.94 -22.93 63.84 -22.55 62.78 -22.15 61.69 -21.73 60.65 -21.27 59.59 -20.82 58.54 -20.33 57.49 -19.82 56.46 -19.29 55.43 -18.75 54.4 -18.18 53.4 -17.59 52.39 -16.97 51.38 -16.33 50.39 -15.69 49.39 -15.01 48.42 -14.32 11.14 35.98 -48.12 14.22 -49.13 14.93 -50.15 15.61 -51.16 16.27 -52.19 16.91 -53.22 17.53 -54.26 18.12 -55.31 18.71 -56.34 19.25 -57.41 19.8 -58.46 20.29 -59.53 20.8 -60.59 21.27 -61.67 21.71 -62.76 22.15 -63.84 22.55 -64.94 22.93 -66.03 23.29 -67.14 23.64 -68.25 23.97 -69.38 24.26 -70.49 24.54 -71.62 24.8 -72.76 25.05 -73.89 25.25 -75.05 25.46 -76.2 25.61 -77.36 25.78 -78.51 25.91 -79.7 26.02 -80.87 26.11 -82.06 26.17zm-6.4 0.93l0.78 -37.56 80.1 1.41 78.97 1.1 77.86 0.8 76.75 0.53 75.63 0.28 74.55 0.05 73.44 -0.16 72.36 -0.35 71.28 -0.51 70.19 -0.65 69.13 -0.78 68.06 -0.87 67.01 -0.95 65.94 -1.01 64.9 -1.05 63.87 -1.05 62.82 -1.05 61.8 -1.02 60.77 -0.96 59.77 -0.9 58.74 -0.79 57.74 -0.68 56.74 -0.55 55.76 -0.38 54.76 -0.2 53.79 0.01 52.8 0.23 51.85 0.47 50.87 0.75 49.93 1.04 48.97 1.35 48.04 1.69 -1.56 37.52 -47.72 -1.67 -48.69 -1.35 -49.67 -1.02 -50.65 -0.75 -51.63 -0.47 -52.64 -0.23 -53.63 -0.01 -54.62 0.2 -55.62 0.38 -56.66 0.55 -57.66 0.68 -58.68 0.79 -59.71 0.9 -60.75 0.96 -61.78 1.02 -62.82 1.05 -63.87 1.05 -64.94 1.05 -65.98 1.01 -67.05 0.95 -68.12 0.87 -69.21 0.78 -70.27 0.65 -71.36 0.51 -72.46 0.35 -73.56 0.16 -74.65 -0.05 -75.77 -0.28 -76.87 -0.53 -78 -0.8 -79.11 -1.1 -80.26 -1.41zm-10.79 577.03l30.12 23.62 0.15 -0.19 -0.46 0.57 -0.48 0.6 -0.54 0.66 -0.48 0.59 -0.4 0.48 -0.48 0.61 -0.49 0.6 -0.4 0.52 -30.72 -22.88 0.56 -0.7 0.49 -0.6 0.48 -0.61 0.58 -0.72 0.48 -0.59 0.44 -0.54 0.48 -0.6 0.52 -0.63 0.15 -0.19zm-0.15 0.19l0.15 -0.19 0.18 -0.21 -0.33 0.4zm0.76 -0.94l30.42 23.24 -0.05 0.06 -0.31 0.39 -0.31 0.38 -0.24 0.3 -30.12 -23.62 0.14 -0.16 0.07 -0.08 0.07 -0.09 0.33 -0.42zm-219.35 -57.69l36.48 -12.6 -22.43 -12.03 9.85 -1.93 9.69 -1.51 9.55 -1.13 9.41 -0.72 9.23 -0.34 9.08 0.04 8.91 0.39 8.76 0.75 8.58 1.1 8.43 1.43 8.25 1.76 8.06 2.05 7.88 2.36 7.7 2.64 7.52 2.91 7.33 3.16 7.16 3.42 6.97 3.65 6.78 3.86 6.59 4.06 6.41 4.26 6.25 4.44 6.04 4.61 5.87 4.75 5.7 4.89 5.54 5.04 5.35 5.15 5.18 5.25 5.03 5.35 4.86 5.44 4.7 5.51 4.53 5.57 -30.64 22.96 -4.01 -4.93 -4.14 -4.85 -4.24 -4.76 -4.37 -4.65 -4.52 -4.57 -4.61 -4.43 -4.74 -4.32 -4.86 -4.17 -4.99 -4.05 -5.1 -3.87 -5.21 -3.72 -5.35 -3.54 -5.47 -3.38 -5.58 -3.18 -5.71 -2.99 -5.84 -2.78 -5.95 -2.58 -6.1 -2.35 -6.24 -2.14 -6.36 -1.9 -6.5 -1.67 -6.65 -1.42 -6.79 -1.15 -6.96 -0.88 -7.12 -0.61 -7.29 -0.33 -7.46 -0.02 -7.63 0.28 -7.81 0.6 -7.99 0.93 -8.19 1.29 -8.39 1.63 -22.43 -12.03zm22.43 12.03l-16.7 3.59 -5.73 -15.62 22.43 12.03zm-145.17 -151.43l38.3 5.48 -13.17 -20.6 6.61 2.17 6.4 2.28 6.22 2.4 6.06 2.54 5.86 2.67 5.69 2.8 5.52 2.95 5.34 3.1 5.19 3.26 5.01 3.41 4.83 3.55 4.69 3.71 4.53 3.89 4.34 4.01 4.22 4.2 4.03 4.34 3.91 4.48 3.77 4.67 3.61 4.79 3.48 4.94 3.36 5.09 3.26 5.25 3.16 5.41 3.05 5.57 2.95 5.71 2.89 5.87 2.81 6.05 2.74 6.21 2.7 6.37 2.65 6.56 2.62 6.74 2.59 6.93 -36.48 12.6 -2.43 -6.51 -2.44 -6.28 -2.45 -6.06 -2.46 -5.83 -2.48 -5.61 -2.51 -5.37 -2.53 -5.19 -2.57 -4.95 -2.61 -4.75 -2.64 -4.55 -2.7 -4.35 -2.76 -4.17 -2.82 -4 -2.87 -3.81 -2.93 -3.63 -3.03 -3.48 -3.11 -3.34 -3.2 -3.18 -3.32 -3.07 -3.41 -2.93 -3.55 -2.81 -3.71 -2.73 -3.83 -2.61 -3.99 -2.5 -4.18 -2.42 -4.36 -2.33 -4.57 -2.26 -4.76 -2.17 -4.98 -2.08 -5.22 -2.02 -5.46 -1.94 -5.69 -1.87 -13.17 -20.6zm13.17 20.6l-15.55 -4.9 2.38 -15.7 13.17 20.6zm-43.94 -152.91l-13.42 35.22 13.42 -35.22 5.05 1.94 4.91 2.18 4.72 2.39 4.55 2.59 4.4 2.8 4.2 2.99 4.04 3.2 3.82 3.36 3.66 3.55 3.46 3.73 3.24 3.87 3.05 4.01 2.85 4.17 2.64 4.29 2.45 4.41 2.24 4.53 2.05 4.65 1.85 4.75 1.64 4.82 1.46 4.93 1.27 5.05 1.06 5.1 0.88 5.16 0.69 5.24 0.51 5.33 0.31 5.37 0.14 5.45 -0.06 5.47 -0.22 5.54 -0.41 5.61 -0.6 5.64 -0.78 5.67 -38.3 -5.48 0.62 -4.59 0.48 -4.52 0.33 -4.41 0.18 -4.38 0.04 -4.29 -0.1 -4.19 -0.25 -4.11 -0.37 -3.99 -0.53 -3.92 -0.64 -3.84 -0.78 -3.7 -0.89 -3.57 -1.04 -3.49 -1.16 -3.4 -1.25 -3.25 -1.39 -3.13 -1.5 -3.03 -1.61 -2.91 -1.72 -2.79 -1.83 -2.67 -1.93 -2.55 -2.04 -2.43 -2.14 -2.31 -2.26 -2.19 -2.38 -2.1 -2.48 -1.96 -2.6 -1.85 -2.72 -1.74 -2.87 -1.63 -3 -1.51 -3.09 -1.38 -3.27 -1.26 13.42 -35.22zm69.07 134.37l-38.3 -5.48 0.62 -4.59 0.48 -4.49 0.33 -4.37 0.18 -4.31 0.04 -4.21 -0.1 -4.07 -0.24 -4 -0.38 -3.86 -0.51 -3.76 -0.64 -3.67 -0.77 -3.53 -0.88 -3.4 -1.01 -3.3 -1.15 -3.22 -1.23 -3.07 -1.36 -2.94 -1.47 -2.85 -1.58 -2.74 -1.69 -2.62 -1.79 -2.5 -1.93 -2.42 -2.02 -2.31 -2.1 -2.16 -2.27 -2.1 -2.38 -2.01 -2.5 -1.9 -2.63 -1.81 -2.75 -1.69 -2.9 -1.6 -3.05 -1.5 -3.17 -1.39 -3.34 -1.28 13.42 -35.22 4.98 1.9 4.83 2.11 4.67 2.3 4.52 2.5 4.37 2.69 4.17 2.87 4.02 3.04 3.82 3.23 3.65 3.38 3.5 3.6 3.26 3.73 3.05 3.84 2.89 4.02 2.67 4.16 2.48 4.26 2.27 4.39 2.08 4.52 1.87 4.63 1.65 4.68 1.49 4.82 1.28 4.92 1.07 4.99 0.88 5.05 0.71 5.14 0.5 5.24 0.32 5.28 0.14 5.37 -0.06 5.41 -0.22 5.47 -0.41 5.57 -0.6 5.61 -0.78 5.65zm507.83 124.74l36.48 12.6 -22.43 12.03 -8.39 -1.63 -8.19 -1.29 -8 -0.93 -7.81 -0.6 -7.63 -0.28 -7.46 0.02 -7.3 0.33 -7.11 0.61 -6.97 0.88 -6.77 1.15 -6.66 1.43 -6.52 1.66 -6.35 1.9 -6.24 2.14 -6.09 2.35 -5.96 2.58 -5.84 2.78 -5.71 2.99 -5.58 3.18 -5.47 3.38 -5.35 3.54 -5.22 3.72 -5.1 3.88 -4.99 4.04 -4.85 4.16 -4.74 4.33 -4.62 4.43 -4.5 4.57 -4.38 4.66 -4.26 4.76 -4.13 4.84 -4.01 4.93 -30.64 -22.96 4.53 -5.57 4.71 -5.52 4.86 -5.44 5.02 -5.34 5.18 -5.25 5.36 -5.15 5.52 -5.03 5.71 -4.9 5.87 -4.76 6.06 -4.6 6.24 -4.44 6.41 -4.26 6.59 -4.06 6.78 -3.86 6.97 -3.65 7.16 -3.42 7.34 -3.16 7.51 -2.91 7.7 -2.64 7.89 -2.36 8.06 -2.06 8.24 -1.75 8.43 -1.43 8.59 -1.1 8.75 -0.75 8.92 -0.39 9.08 -0.04 9.23 0.34 9.41 0.72 9.56 1.13 9.69 1.51 9.85 1.93 -22.43 12.03zm36.48 12.6l-5.73 15.62 -16.7 -3.59 22.43 -12.03zm84.42 -133.92l38.3 -5.48 -13.17 20.6 -5.69 1.87 -5.46 1.94 -5.22 2.02 -4.98 2.08 -4.76 2.17 -4.57 2.26 -4.36 2.33 -4.18 2.42 -3.99 2.5 -3.83 2.61 -3.7 2.72 -3.54 2.81 -3.43 2.95 -3.32 3.06 -3.18 3.17 -3.12 3.35 -3.03 3.48 -2.93 3.63 -2.87 3.81 -2.82 4 -2.75 4.16 -2.69 4.35 -2.65 4.56 -2.61 4.75 -2.57 4.95 -2.53 5.19 -2.51 5.37 -2.48 5.61 -2.46 5.83 -2.45 6.06 -2.44 6.28 -2.43 6.51 -36.48 -12.6 2.59 -6.93 2.62 -6.74 2.65 -6.56 2.7 -6.37 2.74 -6.21 2.81 -6.05 2.89 -5.87 2.95 -5.71 3.05 -5.57 3.15 -5.4 3.25 -5.25 3.37 -5.1 3.48 -4.94 3.61 -4.79 3.77 -4.67 3.91 -4.48 4.02 -4.33 4.22 -4.21 4.36 -4.02 4.51 -3.87 4.68 -3.71 4.84 -3.56 5.01 -3.41 5.19 -3.26 5.34 -3.1 5.52 -2.95 5.69 -2.8 5.86 -2.67 6.06 -2.54 6.22 -2.4 6.4 -2.28 6.61 -2.17 -13.17 20.6zm38.3 -5.48l2.38 15.7 -15.55 4.9 13.17 -20.6zm44.19 -97.09l-13.44 -35.22 13.44 35.22 -3.27 1.26 -3.1 1.38 -2.98 1.51 -2.88 1.63 -2.72 1.74 -2.6 1.85 -2.48 1.96 -2.38 2.1 -2.25 2.18 -2.14 2.32 -2.06 2.45 -1.92 2.53 -1.83 2.67 -1.72 2.79 -1.61 2.91 -1.49 3.02 -1.39 3.14 -1.27 3.27 -1.15 3.36 -1.03 3.51 -0.91 3.59 -0.77 3.68 -0.64 3.84 -0.53 3.92 -0.37 3.99 -0.25 4.11 -0.1 4.19 0.04 4.29 0.18 4.38 0.33 4.41 0.48 4.52 0.62 4.59 -38.3 5.48 -0.78 -5.67 -0.6 -5.64 -0.41 -5.61 -0.22 -5.54 -0.06 -5.47 0.14 -5.45 0.31 -5.37 0.51 -5.33 0.69 -5.24 0.88 -5.16 1.07 -5.12 1.27 -5.03 1.45 -4.91 1.65 -4.86 1.85 -4.73 2.03 -4.64 2.25 -4.54 2.45 -4.41 2.64 -4.29 2.85 -4.17 3.06 -4.03 3.24 -3.85 3.44 -3.72 3.67 -3.56 3.82 -3.36 4.04 -3.2 4.2 -2.99 4.4 -2.8 4.54 -2.59 4.72 -2.39 4.92 -2.18 5.03 -1.94 13.44 35.22zm-44.19 93.67l-38.3 5.48 -0.78 -5.65 -0.6 -5.61 -0.41 -5.57 -0.22 -5.47 -0.06 -5.41 0.14 -5.37 0.32 -5.28 0.5 -5.24 0.71 -5.14 0.88 -5.05 1.08 -5.01 1.28 -4.9 1.47 -4.8 1.67 -4.72 1.87 -4.61 2.07 -4.5 2.27 -4.41 2.48 -4.26 2.67 -4.16 2.89 -4.02 3.06 -3.86 3.26 -3.71 3.48 -3.59 3.66 -3.39 3.82 -3.23 4.02 -3.04 4.17 -2.87 4.37 -2.69 4.51 -2.49 4.67 -2.31 4.84 -2.11 4.96 -1.9 13.44 35.22 -3.34 1.28 -3.18 1.39 -3.03 1.49 -2.91 1.61 -2.75 1.69 -2.63 1.81 -2.5 1.9 -2.38 2.01 -2.26 2.09 -2.1 2.17 -2.04 2.33 -1.92 2.4 -1.79 2.5 -1.69 2.62 -1.58 2.74 -1.47 2.83 -1.35 2.96 -1.25 3.09 -1.13 3.18 -1.01 3.32 -0.9 3.42 -0.76 3.51 -0.64 3.67 -0.51 3.76 -0.38 3.86 -0.24 4 -0.1 4.07 0.04 4.21 0.18 4.31 0.33 4.37 0.48 4.49 0.62 4.59zm-748.05 526.18l38.16 -6.4 -23.3 -15.13 18.86 -3.55 18.59 -2.49 18.32 -1.45 18.01 -0.45 17.68 0.5 17.35 1.42 16.98 2.27 16.61 3.1 16.22 3.87 15.8 4.61 15.39 5.28 14.97 5.93 14.51 6.52 14.06 7.07 13.6 7.57 13.12 8.03 12.63 8.45 12.15 8.81 11.65 9.16 11.14 9.43 10.63 9.69 10.1 9.9 9.56 10.06 9.03 10.2 8.46 10.27 7.92 10.34 7.34 10.34 6.77 10.34 6.18 10.27 5.59 10.2 4.97 10.07 4.36 9.93 -35.98 13.88 -3.66 -8.33 -4.25 -8.61 -4.85 -8.84 -5.42 -9.03 -5.99 -9.14 -6.54 -9.22 -7.1 -9.26 -7.62 -9.25 -8.13 -9.2 -8.64 -9.08 -9.12 -8.94 -9.61 -8.75 -10.06 -8.53 -10.51 -8.26 -10.95 -7.95 -11.37 -7.59 -11.78 -7.21 -12.18 -6.79 -12.54 -6.31 -12.93 -5.8 -13.29 -5.27 -13.63 -4.68 -13.98 -4.07 -14.3 -3.43 -14.63 -2.72 -14.94 -2.01 -15.27 -1.24 -15.56 -0.44 -15.87 0.39 -16.16 1.29 -16.49 2.19 -16.76 3.17 -23.3 -15.13zm23.3 15.13l-19.84 4.29 -3.46 -19.42 23.3 15.13zm-264.17 -214.15l38.72 0.68 -22.64 -18.85 12.54 -1.76 12.4 -1.08 12.21 -0.41 12.05 0.24 11.84 0.91 11.63 1.53 11.41 2.16 11.17 2.77 10.92 3.37 10.63 3.95 10.35 4.5 10.07 5.07 9.73 5.58 9.43 6.08 9.1 6.59 8.75 7.05 8.43 7.52 8.06 7.96 7.69 8.38 7.32 8.77 6.97 9.17 6.58 9.56 6.19 9.9 5.8 10.25 5.41 10.58 5 10.9 4.6 11.2 4.19 11.48 3.76 11.76 3.35 12.03 2.9 12.28 2.47 12.5 -38.16 6.4 -2.21 -11.18 -2.58 -10.92 -2.95 -10.65 -3.34 -10.4 -3.67 -10.1 -4.04 -9.82 -4.36 -9.5 -4.69 -9.18 -5.02 -8.85 -5.31 -8.52 -5.62 -8.14 -5.91 -7.79 -6.2 -7.43 -6.45 -7.02 -6.72 -6.64 -6.97 -6.22 -7.23 -5.83 -7.46 -5.39 -7.69 -4.98 -7.93 -4.54 -8.13 -4.09 -8.37 -3.64 -8.57 -3.19 -8.78 -2.71 -9.01 -2.23 -9.21 -1.74 -9.45 -1.25 -9.64 -0.73 -9.85 -0.2 -10.09 0.33 -10.28 0.9 -10.5 1.48 -22.64 -18.85zm22.64 18.85l-23.07 3.85 0.43 -22.7 22.64 18.85zm-150.22 -193.85l-1.46 -37.54 9.14 0.1 9.03 0.94 8.85 1.73 8.64 2.45 8.42 3.12 8.17 3.74 7.91 4.3 7.67 4.82 7.44 5.3 7.18 5.75 6.93 6.13 6.68 6.52 6.45 6.87 6.18 7.19 5.93 7.47 5.67 7.74 5.39 7.97 5.13 8.18 4.83 8.37 4.55 8.52 4.24 8.67 3.93 8.76 3.61 8.85 3.28 8.92 2.93 8.95 2.57 8.97 2.19 8.96 1.81 8.93 1.41 8.89 0.97 8.8 0.55 8.71 0.08 8.6 -38.72 -0.68 -0.06 -6.6 -0.43 -6.87 -0.79 -7.1 -1.15 -7.27 -1.51 -7.45 -1.85 -7.54 -2.19 -7.63 -2.51 -7.69 -2.82 -7.68 -3.13 -7.67 -3.41 -7.62 -3.68 -7.51 -3.95 -7.4 -4.19 -7.25 -4.43 -7.06 -4.63 -6.85 -4.83 -6.58 -5.01 -6.33 -5.16 -5.99 -5.31 -5.67 -5.42 -5.28 -5.53 -4.91 -5.58 -4.47 -5.64 -4.02 -5.67 -3.56 -5.67 -3.08 -5.63 -2.58 -5.58 -2.08 -5.54 -1.57 -5.47 -1.07 -5.41 -0.56 -5.4 -0.06zm199.71 812.98l38.16 -6.4 -23.3 -15.13 19.91 -3.44 20.43 -1.89 20.86 -0.45 21.24 0.91 21.53 2.18 21.78 3.35 21.97 4.46 22.07 5.47 22.15 6.42 22.15 7.31 22.09 8.12 21.95 8.85 21.76 9.52 21.5 10.14 21.18 10.67 20.78 11.14 20.32 11.55 19.79 11.9 19.19 12.17 18.52 12.38 17.79 12.53 16.99 12.63 16.11 12.65 15.18 12.61 14.17 12.54 13.11 12.39 11.98 12.2 10.8 11.99 9.54 11.75 8.23 11.5 6.85 11.3 5.37 11.17 -35.98 13.9 -3.61 -7.49 -5.21 -8.56 -6.75 -9.44 -8.22 -10.11 -9.6 -10.67 -10.92 -11.12 -12.13 -11.47 -13.27 -11.72 -14.32 -11.91 -15.29 -12.01 -16.17 -12.03 -17.01 -11.97 -17.74 -11.86 -18.41 -11.67 -18.97 -11.42 -19.5 -11.07 -19.9 -10.68 -20.28 -10.21 -20.54 -9.68 -20.74 -9.08 -20.85 -8.41 -20.89 -7.68 -20.83 -6.87 -20.71 -6 -20.51 -5.09 -20.21 -4.1 -19.82 -3.05 -19.35 -1.96 -18.8 -0.81 -18.18 0.39 -17.45 1.61 -16.69 2.88 -23.3 -15.13zm23.3 15.13l-19.84 4.29 -3.46 -19.42 23.3 15.13zm-415.16 -253.72l38.72 0.68 -22.64 -18.85 13.48 -1.69 13.96 -0.74 14.4 0.17 14.78 1.02 15.13 1.83 15.42 2.59 15.68 3.32 15.89 4.01 16.04 4.69 16.14 5.31 16.19 5.93 16.19 6.51 16.12 7.07 15.99 7.59 15.81 8.1 15.58 8.57 15.28 9.04 14.92 9.46 14.51 9.87 14.04 10.25 13.51 10.63 12.9 10.98 12.26 11.29 11.55 11.62 10.75 11.92 9.91 12.2 9.01 12.48 8.02 12.76 6.95 13.02 5.8 13.29 4.55 13.53 3.18 13.74 -38.16 6.4 -2.36 -10.16 -3.47 -10.33 -4.58 -10.47 -5.65 -10.58 -6.68 -10.62 -7.67 -10.64 -8.63 -10.6 -9.49 -10.52 -10.31 -10.38 -11.08 -10.21 -11.76 -10 -12.39 -9.75 -12.96 -9.47 -13.45 -9.15 -13.88 -8.8 -14.26 -8.42 -14.54 -8.01 -14.77 -7.56 -14.93 -7.09 -15.02 -6.59 -15.05 -6.05 -14.99 -5.49 -14.9 -4.91 -14.7 -4.29 -14.43 -3.65 -14.1 -2.98 -13.7 -2.31 -13.21 -1.59 -12.62 -0.88 -11.98 -0.13 -11.24 0.58 -10.42 1.31 -22.64 -18.85zm22.64 18.85l-23.07 3.85 0.43 -22.7 22.64 18.85zm-376.87 -256.16l-9.54 -36.4 17.2 -3.37 17.39 -1.77 17.52 -0.25 17.56 1.16 17.55 2.46 17.48 3.67 17.38 4.78 17.24 5.83 17.06 6.75 16.84 7.63 16.6 8.4 16.29 9.13 15.96 9.76 15.58 10.33 15.17 10.82 14.71 11.26 14.19 11.6 13.65 11.9 13.05 12.1 12.42 12.27 11.72 12.36 11 12.37 10.22 12.34 9.41 12.25 8.53 12.1 7.63 11.91 6.66 11.67 5.65 11.41 4.59 11.16 3.43 10.93 2.16 10.77 0.65 10.66 -38.72 -0.68 -0.33 -5.12 -1.3 -6.45 -2.39 -7.59 -3.51 -8.52 -4.61 -9.29 -5.66 -9.91 -6.67 -10.41 -7.61 -10.8 -8.51 -11.09 -9.38 -11.3 -10.14 -11.43 -10.88 -11.46 -11.56 -11.41 -12.17 -11.3 -12.75 -11.1 -13.25 -10.84 -13.69 -10.48 -14.11 -10.06 -14.44 -9.57 -14.72 -9 -14.93 -8.37 -15.1 -7.66 -15.2 -6.87 -15.24 -6.05 -15.2 -5.13 -15.12 -4.16 -14.98 -3.15 -14.75 -2.08 -14.5 -0.96 -14.18 0.21 -13.85 1.39 -13.5 2.65zm599.84 1017.71l36.88 -11.46 -19.49 -13.02 23.16 -0.48 24.18 0.89 25.11 2.15 25.95 3.34 26.68 4.44 27.31 5.49 27.84 6.46 28.25 7.36 28.56 8.2 28.74 8.97 28.82 9.67 28.78 10.31 28.62 10.88 28.35 11.4 27.95 11.84 27.44 12.22 26.81 12.54 26.08 12.8 25.21 13 24.23 13.11 23.14 13.2 21.92 13.21 20.62 13.16 19.18 13.08 17.66 12.93 16.01 12.77 14.29 12.57 12.46 12.41 10.55 12.29 8.53 12.35 6.28 12.69 3.51 13.35 -38.4 4.82 -1.37 -5.01 -3.52 -7.01 -5.95 -8.57 -8.33 -9.71 -10.6 -10.53 -12.73 -11.21 -14.67 -11.69 -16.5 -12.09 -18.16 -12.38 -19.7 -12.58 -21.1 -12.71 -22.36 -12.74 -23.51 -12.73 -24.51 -12.64 -25.4 -12.46 -26.15 -12.24 -26.78 -11.92 -27.29 -11.56 -27.67 -11.12 -27.92 -10.62 -28.04 -10.05 -28.04 -9.41 -27.9 -8.71 -27.66 -7.94 -27.27 -7.1 -26.74 -6.2 -26.09 -5.25 -25.3 -4.22 -24.37 -3.14 -23.31 -1.99 -22.08 -0.81 -20.7 0.42 -19.49 -13.02zm19.49 13.02l-14.93 0.78 -4.56 -13.8 19.49 13.02zm-490.87 -344.36l36.08 13.66 -20.2 -25.49 12.65 -0.52 13.29 0.96 13.99 2.21 14.74 3.35 15.47 4.42 16.17 5.4 16.83 6.34 17.41 7.21 17.93 8.04 18.36 8.8 18.73 9.52 18.99 10.18 19.18 10.8 19.26 11.36 19.27 11.85 19.18 12.31 19 12.71 18.74 13.06 18.38 13.35 17.92 13.6 17.37 13.8 16.75 13.93 16.02 14.03 15.21 14.08 14.32 14.11 13.31 14.07 12.24 14 11.06 13.92 9.82 13.83 8.45 13.73 6.98 13.65 5.36 13.61 -36.88 11.46 -3.92 -9.93 -5.5 -10.75 -7.05 -11.45 -8.52 -11.99 -9.9 -12.44 -11.16 -12.78 -12.35 -13.05 -13.42 -13.21 -14.39 -13.32 -15.26 -13.37 -16.03 -13.35 -16.71 -13.26 -17.26 -13.1 -17.74 -12.89 -18.12 -12.62 -18.4 -12.31 -18.56 -11.91 -18.63 -11.47 -18.62 -10.96 -18.5 -10.42 -18.25 -9.8 -17.93 -9.12 -17.5 -8.38 -16.97 -7.6 -16.31 -6.75 -15.53 -5.86 -14.63 -4.9 -13.61 -3.88 -12.4 -2.83 -11.03 -1.75 -9.43 -0.68 -7.55 0.28 -20.2 -25.49zm20.2 25.49l-31.85 3.48 11.65 -28.97 20.2 25.49zm-399.46 -419.91l38.68 -1.48 -23.08 -17.69 16.66 -1.85 17.02 0.52 17.22 2.63 17.39 4.53 17.52 6.25 17.63 7.79 17.73 9.22 17.77 10.55 17.78 11.72 17.73 12.84 17.61 13.83 17.43 14.71 17.18 15.52 16.86 16.19 16.45 16.78 15.98 17.26 15.43 17.66 14.81 17.94 14.09 18.12 13.31 18.22 12.44 18.21 11.5 18.12 10.48 17.93 9.37 17.66 8.18 17.3 6.91 16.89 5.54 16.42 4.06 15.92 2.45 15.41 0.63 14.9 -1.47 14.37 -3.95 13.69 -36.08 -13.66 1.95 -6.81 0.85 -8.53 -0.45 -10.22 -1.87 -11.69 -3.32 -12.96 -4.74 -14.02 -6.11 -14.93 -7.4 -15.64 -8.61 -16.24 -9.74 -16.67 -10.8 -17 -11.76 -17.21 -12.63 -17.28 -13.41 -17.26 -14.11 -17.1 -14.73 -16.84 -15.24 -16.48 -15.67 -15.98 -16.02 -15.39 -16.26 -14.68 -16.43 -13.87 -16.49 -12.95 -16.43 -11.9 -16.3 -10.76 -16.05 -9.51 -15.67 -8.16 -15.17 -6.71 -14.54 -5.19 -13.73 -3.59 -12.82 -1.97 -11.78 -0.38 -10.7 1.19 -23.08 -17.69zm23.08 17.69l-22.19 4.24 -0.89 -21.93 23.08 17.69zm-408.95 -555.38l38.18 6.22 -10.04 -19.71 15.14 8.15 15.42 9.07 15.69 9.95 15.92 10.81 16.09 11.62 16.22 12.4 16.3 13.16 16.33 13.86 16.33 14.54 16.27 15.2 16.16 15.81 15.98 16.38 15.79 16.94 15.5 17.45 15.19 17.92 14.83 18.36 14.41 18.78 13.93 19.17 13.4 19.5 12.82 19.83 12.19 20.09 11.51 20.35 10.77 20.57 9.97 20.75 9.12 20.91 8.21 21.04 7.25 21.13 6.23 21.18 5.14 21.23 4 21.23 2.79 21.19 1.51 21.13 -38.68 1.48 -1.37 -18.91 -2.51 -19.13 -3.64 -19.31 -4.72 -19.45 -5.75 -19.56 -6.73 -19.63 -7.67 -19.64 -8.56 -19.63 -9.41 -19.57 -10.19 -19.47 -10.93 -19.33 -11.61 -19.15 -12.26 -18.93 -12.82 -18.66 -13.35 -18.37 -13.83 -18.02 -14.25 -17.66 -14.61 -17.24 -14.92 -16.77 -15.17 -16.3 -15.38 -15.76 -15.52 -15.19 -15.61 -14.58 -15.65 -13.94 -15.63 -13.26 -15.54 -12.54 -15.4 -11.78 -15.21 -10.98 -14.94 -10.15 -14.63 -9.27 -14.24 -8.37 -13.78 -7.43 -10.04 -19.71zm10.04 19.71l-12.36 -6.34 2.32 -13.37 10.04 19.71zm-83.93 -661.93l38.6 -2.98 -1.73 -6.4 6.95 15.13 6.72 15.76 6.5 16.39 6.24 16.97 6 17.51 5.74 18.03 5.5 18.54 5.22 19 4.96 19.45 4.67 19.84 4.4 20.24 4.1 20.59 3.79 20.91 3.49 21.21 3.17 21.47 2.86 21.71 2.52 21.91 2.18 22.09 1.83 22.23 1.48 22.35 1.11 22.43 0.74 22.5 0.36 22.52 -0.03 22.51 -0.43 22.49 -0.83 22.43 -1.25 22.33 -1.68 22.22 -2.1 22.06 -2.55 21.89 -3 21.68 -3.46 21.43 -38.18 -6.22 3.32 -20.61 2.9 -20.88 2.45 -21.13 2.04 -21.32 1.62 -21.5 1.21 -21.65 0.81 -21.75 0.41 -21.83 0.03 -21.89 -0.34 -21.9 -0.72 -21.88 -1.09 -21.83 -1.44 -21.75 -1.79 -21.65 -2.12 -21.51 -2.44 -21.31 -2.78 -21.13 -3.09 -20.89 -3.39 -20.61 -3.69 -20.31 -3.98 -19.97 -4.26 -19.62 -4.53 -19.22 -4.78 -18.79 -5.04 -18.32 -5.28 -17.82 -5.52 -17.31 -5.74 -16.75 -5.94 -16.15 -6.14 -15.51 -6.34 -14.86 -6.51 -14.17 -1.73 -6.4zm1.73 6.4l-1.45 -3.05 -0.28 -3.35 1.73 6.4zm-67.07 -416l37.92 -7.58 2.96 14.03 2.92 14.01 2.86 13.95 2.83 13.93 2.77 13.89 2.72 13.84 2.67 13.78 2.62 13.73 2.57 13.66 2.51 13.62 2.45 13.54 2.39 13.48 2.34 13.38 2.28 13.33 2.22 13.25 2.15 13.14 2.09 13.07 2.02 12.97 1.95 12.88 1.88 12.76 1.82 12.66 1.74 12.56 1.68 12.44 1.59 12.33 1.54 12.21 1.44 12.08 1.37 11.95 1.29 11.83 1.21 11.68 1.13 11.55 1.05 11.41 0.96 11.26 -38.6 2.98 -0.94 -11.02 -1.03 -11.19 -1.11 -11.33 -1.19 -11.48 -1.27 -11.63 -1.35 -11.77 -1.42 -11.9 -1.5 -12.03 -1.57 -12.15 -1.66 -12.28 -1.72 -12.4 -1.8 -12.5 -1.86 -12.64 -1.93 -12.72 -2 -12.83 -2.07 -12.93 -2.13 -13.02 -2.18 -13.11 -2.26 -13.19 -2.32 -13.28 -2.37 -13.36 -2.43 -13.42 -2.49 -13.5 -2.55 -13.56 -2.6 -13.63 -2.65 -13.68 -2.7 -13.74 -2.75 -13.77 -2.81 -13.83 -2.84 -13.87 -2.9 -13.91 -2.94 -13.93zm1334.32 2762l36.88 -11.46 -19.49 -13.02 23.35 -0.44 24.57 1.02 25.68 2.35 26.7 3.6 27.61 4.79 28.4 5.87 29.09 6.9 29.62 7.86 30.05 8.72 30.34 9.52 30.52 10.27 30.53 10.93 30.45 11.53 30.22 12.05 29.85 12.5 29.36 12.9 28.74 13.21 27.97 13.46 27.08 13.65 26.05 13.75 24.91 13.8 23.61 13.79 22.22 13.71 20.68 13.58 19.02 13.39 17.25 13.17 15.38 12.93 13.4 12.68 11.34 12.53 9.14 12.53 6.76 12.89 3.75 13.71 -38.4 4.82 -1.37 -4.73 -3.74 -7.05 -6.44 -8.77 -9.06 -10.01 -11.54 -10.92 -13.84 -11.63 -15.95 -12.17 -17.92 -12.61 -19.7 -12.94 -21.34 -13.17 -22.83 -13.33 -24.17 -13.4 -25.39 -13.39 -26.42 -13.31 -27.35 -13.16 -28.12 -12.93 -28.74 -12.62 -29.23 -12.24 -29.58 -11.81 -29.79 -11.27 -29.85 -10.69 -29.76 -10.01 -29.56 -9.28 -29.19 -8.48 -28.68 -7.6 -28.01 -6.64 -27.22 -5.63 -26.25 -4.55 -25.12 -3.4 -23.84 -2.19 -22.39 -0.92 -20.75 0.38 -19.49 -13.02zm19.49 13.02l-14.93 0.78 -4.56 -13.8 19.49 13.02zm-531.75 -408.99l38.5 -3.92 -21.42 -16.7 13.52 -0.28 14.04 1.71 14.77 3.35 15.56 4.84 16.42 6.17 17.24 7.44 18 8.62 18.73 9.73 19.34 10.76 19.88 11.7 20.31 12.56 20.66 13.37 20.89 14.07 21.03 14.71 21.05 15.26 20.98 15.74 20.8 16.13 20.52 16.45 20.12 16.69 19.62 16.84 19.01 16.93 18.31 16.93 17.49 16.86 16.57 16.71 15.55 16.5 14.43 16.22 13.2 15.88 11.87 15.49 10.44 15.06 8.93 14.61 7.29 14.22 5.49 13.86 -36.88 11.46 -4.01 -10.1 -5.87 -11.42 -7.65 -12.53 -9.32 -13.44 -10.89 -14.19 -12.32 -14.82 -13.65 -15.34 -14.85 -15.76 -15.93 -16.07 -16.89 -16.28 -17.75 -16.43 -18.49 -16.45 -19.12 -16.4 -19.62 -16.29 -20.02 -16.05 -20.32 -15.75 -20.48 -15.36 -20.53 -14.88 -20.49 -14.33 -20.31 -13.69 -20.02 -12.95 -19.61 -12.14 -19.1 -11.24 -18.44 -10.26 -17.67 -9.17 -16.76 -8.02 -15.68 -6.78 -14.46 -5.45 -13.02 -4.04 -11.33 -2.59 -9.32 -1.15 -6.92 0.1 -21.42 -16.7zm21.42 16.7l-19.38 2.12 -2.04 -18.82 21.42 16.7zm-435.81 -438.34l11.42 -35.88 16.26 5.56 16.57 6.98 16.86 8.29 17.14 9.48 17.39 10.61 17.58 11.65 17.74 12.59 17.86 13.47 17.9 14.26 17.9 14.96 17.84 15.59 17.72 16.12 17.53 16.6 17.3 16.95 16.98 17.27 16.61 17.46 16.18 17.61 15.69 17.64 15.13 17.61 14.5 17.49 13.82 17.3 13.07 17.01 12.26 16.67 11.38 16.22 10.46 15.73 9.47 15.17 8.41 14.53 7.29 13.86 6.13 13.16 4.88 12.47 3.57 11.87 2.05 11.42 -38.5 3.92 -1.23 -6.66 -2.57 -8.51 -3.94 -10.05 -5.27 -11.3 -6.53 -12.42 -7.73 -13.35 -8.85 -14.19 -9.9 -14.89 -10.88 -15.5 -11.78 -16.01 -12.61 -16.43 -13.38 -16.74 -14.08 -16.97 -14.71 -17.13 -15.25 -17.16 -15.76 -17.13 -16.17 -17 -16.52 -16.79 -16.8 -16.49 -17.03 -16.1 -17.14 -15.62 -17.24 -15.05 -17.22 -14.4 -17.16 -13.66 -17 -12.83 -16.78 -11.91 -16.46 -10.91 -16.07 -9.81 -15.58 -8.62 -15 -7.37 -14.27 -6.02 -13.48 -4.62zm-164.54 -339.73l33.86 -18.22 6.91 12.19 6.79 12.14 6.69 12.12 6.56 12.08 6.43 12.02 6.32 11.95 6.2 11.89 6.06 11.81 5.93 11.72 5.78 11.6 5.66 11.5 5.52 11.38 5.38 11.25 5.24 11.12 5.09 10.96 4.95 10.81 4.79 10.64 4.65 10.47 4.48 10.28 4.33 10.09 4.18 9.88 4.01 9.68 3.84 9.45 3.68 9.22 3.51 8.98 3.35 8.73 3.17 8.49 2.99 8.2 2.82 7.95 2.63 7.66 2.46 7.37 2.28 7.09 -37.04 10.96 -2.14 -6.67 -2.34 -7.01 -2.53 -7.34 -2.7 -7.63 -2.89 -7.92 -3.07 -8.21 -3.23 -8.47 -3.43 -8.74 -3.58 -8.98 -3.76 -9.23 -3.91 -9.46 -4.08 -9.66 -4.25 -9.89 -4.4 -10.08 -4.55 -10.27 -4.71 -10.44 -4.85 -10.61 -5.01 -10.78 -5.14 -10.92 -5.3 -11.07 -5.42 -11.2 -5.58 -11.3 -5.7 -11.44 -5.83 -11.52 -5.96 -11.61 -6.08 -11.69 -6.22 -11.77 -6.33 -11.82 -6.46 -11.88 -6.57 -11.92 -6.69 -11.96 -6.79 -11.97zm2200.29 -276.56l38.16 6.4 -23.3 15.13 -16.76 -3.17 -16.49 -2.19 -16.16 -1.29 -15.87 -0.39 -15.56 0.44 -15.26 1.24 -14.95 2.01 -14.62 2.72 -14.31 3.43 -13.98 4.07 -13.63 4.68 -13.28 5.27 -12.93 5.8 -12.56 6.31 -12.17 6.79 -11.78 7.21 -11.37 7.59 -10.95 7.95 -10.51 8.26 -10.06 8.53 -9.61 8.75 -9.12 8.94 -8.64 9.08 -8.14 9.2 -7.62 9.25 -7.09 9.26 -6.55 9.22 -5.99 9.14 -5.42 9.03 -4.85 8.84 -4.25 8.61 -3.66 8.34 -35.98 -13.9 4.36 -9.92 4.97 -10.07 5.59 -10.2 6.18 -10.27 6.77 -10.34 7.35 -10.34 7.91 -10.34 8.48 -10.27 9.02 -10.2 9.56 -10.06 10.1 -9.9 10.63 -9.69 11.14 -9.43 11.65 -9.16 12.15 -8.81 12.63 -8.45 13.12 -8.03 13.61 -7.57 14.06 -7.07 14.51 -6.52 14.96 -5.93 15.39 -5.28 15.8 -4.61 16.23 -3.87 16.6 -3.1 16.99 -2.27 17.34 -1.42 17.68 -0.5 18.01 0.45 18.32 1.45 18.59 2.49 18.86 3.55 -23.3 15.13zm38.16 6.4l-3.46 19.42 -19.84 -4.29 23.3 -15.13zm202.17 -198.34l38.72 -0.68 -22.64 18.85 -10.5 -1.48 -10.28 -0.9 -10.09 -0.33 -9.85 0.2 -9.64 0.73 -9.45 1.25 -9.21 1.74 -9.01 2.23 -8.78 2.71 -8.59 3.19 -8.36 3.64 -8.13 4.09 -7.93 4.54 -7.69 4.98 -7.46 5.39 -7.23 5.83 -6.97 6.22 -6.72 6.64 -6.47 7.03 -6.18 7.41 -5.91 7.79 -5.62 8.16 -5.33 8.51 -5.01 8.85 -4.69 9.18 -4.36 9.5 -4.04 9.82 -3.67 10.1 -3.34 10.4 -2.95 10.65 -2.58 10.92 -2.21 11.18 -38.16 -6.4 2.47 -12.5 2.9 -12.28 3.35 -12.03 3.76 -11.76 4.19 -11.48 4.6 -11.2 5 -10.9 5.41 -10.58 5.81 -10.25 6.19 -9.91 6.58 -9.54 6.95 -9.17 7.34 -8.79 7.69 -8.37 8.06 -7.96 8.43 -7.52 8.75 -7.05 9.1 -6.59 9.43 -6.08 9.73 -5.58 10.07 -5.07 10.36 -4.5 10.63 -3.95 10.92 -3.37 11.17 -2.77 11.41 -2.16 11.63 -1.53 11.84 -0.91 12.05 -0.24 12.21 0.41 12.4 1.08 12.54 1.76 -22.64 18.85zm38.72 -0.68l0.43 22.7 -23.07 -3.85 22.64 -18.85zm129.04 -212.54l-1.46 37.54 -5.4 0.06 -5.41 0.56 -5.47 1.07 -5.54 1.57 -5.58 2.08 -5.63 2.58 -5.67 3.08 -5.67 3.56 -5.64 4.02 -5.58 4.47 -5.54 4.91 -5.42 5.28 -5.3 5.67 -5.17 5.99 -5 6.32 -4.84 6.6 -4.63 6.84 -4.42 7.05 -4.19 7.26 -3.95 7.41 -3.69 7.51 -3.41 7.6 -3.12 7.67 -2.82 7.69 -2.51 7.69 -2.19 7.63 -1.85 7.54 -1.51 7.45 -1.15 7.28 -0.8 7.09 -0.42 6.86 -0.06 6.61 -38.72 0.68 0.08 -8.59 0.54 -8.72 0.98 -8.81 1.41 -8.88 1.81 -8.93 2.19 -8.96 2.57 -8.97 2.93 -8.95 3.28 -8.91 3.6 -8.85 3.93 -8.78 4.25 -8.67 4.55 -8.51 4.83 -8.36 5.12 -8.19 5.41 -7.98 5.66 -7.72 5.92 -7.48 6.19 -7.19 6.44 -6.87 6.7 -6.52 6.92 -6.13 7.18 -5.75 7.44 -5.3 7.67 -4.82 7.91 -4.3 8.17 -3.74 8.42 -3.12 8.64 -2.45 8.85 -1.73 9.03 -0.94 9.14 -0.1zm-239.36 844.12l38.16 6.4 -23.3 15.13 -16.69 -2.88 -17.45 -1.61 -18.18 -0.39 -18.8 0.81 -19.35 1.96 -19.82 3.05 -20.21 4.1 -20.51 5.09 -20.71 6 -20.83 6.87 -20.89 7.68 -20.85 8.41 -20.74 9.08 -20.54 9.68 -20.27 10.21 -19.92 10.68 -19.49 11.07 -18.97 11.42 -18.41 11.67 -17.74 11.86 -17 11.97 -16.18 12.03 -15.29 12.01 -14.32 11.91 -13.27 11.72 -12.13 11.47 -10.92 11.12 -9.6 10.67 -8.22 10.11 -6.75 9.44 -5.21 8.56 -3.61 7.49 -35.98 -13.9 5.37 -11.17 6.85 -11.3 8.23 -11.5 9.54 -11.75 10.8 -11.99 11.98 -12.2 13.11 -12.39 14.17 -12.54 15.18 -12.61 16.11 -12.65 17 -12.63 17.78 -12.53 18.52 -12.38 19.19 -12.17 19.79 -11.9 20.33 -11.55 20.78 -11.14 21.17 -10.67 21.5 -10.14 21.76 -9.52 21.95 -8.85 22.09 -8.12 22.15 -7.31 22.15 -6.42 22.07 -5.47 21.97 -4.46 21.78 -3.35 21.53 -2.18 21.24 -0.91 20.86 0.45 20.43 1.89 19.91 3.44 -23.3 15.13zm38.16 6.4l-3.46 19.42 -19.84 -4.29 23.3 -15.13zm353.17 -237.91l38.72 -0.68 -22.64 18.85 -10.42 -1.31 -11.24 -0.58 -11.98 0.13 -12.62 0.88 -13.21 1.59 -13.7 2.31 -14.1 2.98 -14.45 3.65 -14.69 4.29 -14.89 4.91 -15 5.49 -15.05 6.05 -15.02 6.59 -14.93 7.09 -14.77 7.56 -14.54 8.01 -14.25 8.42 -13.89 8.8 -13.45 9.15 -12.96 9.47 -12.39 9.75 -11.77 10 -11.07 10.21 -10.32 10.38 -9.5 10.52 -8.62 10.6 -7.67 10.64 -6.69 10.63 -5.65 10.57 -4.57 10.47 -3.49 10.33 -2.35 10.16 -38.16 -6.4 3.19 -13.74 4.55 -13.53 5.79 -13.29 6.97 -13.03 8.01 -12.75 9.01 -12.48 9.92 -12.2 10.76 -11.92 11.54 -11.62 12.25 -11.29 12.91 -10.98 13.51 -10.63 14.04 -10.25 14.51 -9.87 14.93 -9.46 15.27 -9.04 15.58 -8.57 15.81 -8.1 15.99 -7.59 16.12 -7.07 16.19 -6.51 16.2 -5.93 16.13 -5.31 16.05 -4.69 15.89 -4.01 15.68 -3.32 15.42 -2.59 15.13 -1.83 14.78 -1.02 14.4 -0.17 13.96 0.74 13.48 1.69 -22.64 18.85zm38.72 -0.68l0.43 22.7 -23.07 -3.85 22.64 -18.85zm363.73 -273.71l-9.54 36.4 -13.5 -2.65 -13.85 -1.39 -14.18 -0.21 -14.5 0.96 -14.75 2.08 -14.98 3.15 -15.11 4.16 -15.21 5.13 -15.23 6.04 -15.2 6.88 -15.1 7.66 -14.93 8.37 -14.72 9 -14.44 9.57 -14.1 10.06 -13.7 10.48 -13.25 10.84 -12.74 11.1 -12.17 11.3 -11.55 11.41 -10.89 11.47 -10.14 11.42 -9.36 11.3 -8.52 11.09 -7.61 10.8 -6.67 10.41 -5.66 9.9 -4.59 9.29 -3.52 8.53 -2.39 7.59 -1.3 6.45 -0.33 5.12 -38.72 0.68 0.65 -10.66 2.16 -10.77 3.43 -10.93 4.58 -11.15 5.65 -11.41 6.66 -11.68 7.63 -11.91 8.53 -12.1 9.4 -12.25 10.22 -12.34 11 -12.38 11.73 -12.35 12.41 -12.27 13.05 -12.1 13.64 -11.9 14.21 -11.6 14.7 -11.26 15.16 -10.82 15.58 -10.33 15.96 -9.76 16.29 -9.13 16.6 -8.4 16.84 -7.62 17.05 -6.76 17.25 -5.83 17.37 -4.78 17.48 -3.67 17.55 -2.46 17.56 -1.16 17.52 0.25 17.39 1.77 17.2 3.37zm-2961.04 -2434.16l33.28 -19.22 -33.28 19.22 -8.46 -13.84 -8.39 -13.82 -8.3 -13.8 -8.24 -13.77 -8.14 -13.75 -8.07 -13.73 -7.98 -13.7 -7.9 -13.69 -7.82 -13.65 -7.73 -13.64 -7.64 -13.62 -7.54 -13.59 -7.46 -13.58 -7.36 -13.55 -7.27 -13.53 -7.17 -13.51 -7.07 -13.48 -6.99 -13.47 -6.88 -13.45 -6.77 -13.43 -6.68 -13.4 -6.56 -13.39 -6.47 -13.36 -6.36 -13.34 -6.25 -13.32 -6.14 -13.31 -6.03 -13.28 -5.92 -13.27 -5.8 -13.24 -5.69 -13.22 -5.58 -13.21 -5.45 -13.19 35.98 -13.86 5.35 12.93 5.48 12.97 5.59 13 5.7 13.02 5.82 13.05 5.93 13.06 6.04 13.09 6.17 13.12 6.26 13.14 6.37 13.18 6.48 13.19 6.58 13.22 6.69 13.25 6.78 13.27 6.89 13.29 6.99 13.32 7.09 13.35 7.19 13.37 7.28 13.41 7.38 13.42 7.46 13.45 7.56 13.48 7.65 13.5 7.74 13.53 7.82 13.55 7.92 13.58 7.99 13.61 8.08 13.63 8.16 13.67 8.24 13.68 8.33 13.7 8.4 13.74 -33.28 19.22zm-190.13 -445.99l-35.98 13.86 35.98 -13.86 5.35 12.93 5.48 12.97 5.59 13 5.7 13.02 5.82 13.05 5.93 13.06 6.04 13.09 6.17 13.12 6.26 13.14 6.37 13.18 6.48 13.19 6.58 13.22 6.69 13.25 6.78 13.27 6.89 13.29 6.99 13.32 7.09 13.35 7.19 13.37 7.28 13.41 7.38 13.42 7.46 13.45 7.56 13.48 7.65 13.5 7.74 13.53 7.82 13.55 7.92 13.58 7.99 13.61 8.08 13.63 8.16 13.67 8.24 13.68 8.33 13.7 8.4 13.74 -33.28 19.22 -8.46 -13.84 -8.39 -13.82 -8.3 -13.8 -8.24 -13.77 -8.14 -13.75 -8.07 -13.73 -7.98 -13.7 -7.9 -13.69 -7.82 -13.65 -7.73 -13.64 -7.64 -13.62 -7.54 -13.59 -7.46 -13.58 -7.36 -13.55 -7.27 -13.53 -7.17 -13.51 -7.07 -13.48 -6.99 -13.47 -6.88 -13.45 -6.77 -13.43 -6.68 -13.4 -6.56 -13.39 -6.47 -13.36 -6.36 -13.34 -6.25 -13.32 -6.14 -13.31 -6.03 -13.28 -5.92 -13.27 -5.8 -13.24 -5.69 -13.22 -5.58 -13.21 -5.45 -13.19 35.98 -13.86zm1819.39 2017.91l26.38 27.5 -0.43 0.39 -0.33 0.28 -0.17 0.15 -0.3 0.28 -26.38 -27.5 0.32 -0.28 0.43 -0.39 0.29 -0.26 0.19 -0.17zm25.04 1l-26.16 27.7 -59.23 -51.9 -59.03 -50.34 -58.8 -48.89 -58.5 -47.52 -58.2 -46.24 -57.84 -45.06 -57.46 -43.96 -57.02 -42.98 -56.55 -42.07 -56.06 -41.26 -55.52 -40.53 -54.95 -39.91 -54.33 -39.38 -53.68 -38.94 -53 -38.59 -52.27 -38.33 -51.5 -38.18 -50.7 -38.1 -49.86 -38.13 -48.99 -38.25 -48.07 -38.47 -47.12 -38.76 -46.12 -39.17 -45.09 -39.66 -44.02 -40.25 -42.89 -40.93 -41.75 -41.7 -40.56 -42.57 -39.32 -43.53 -38.04 -44.58 -36.72 -45.73 -35.35 -46.96 31.62 -21.66 34.65 46 36 44.83 37.32 43.74 38.62 42.77 39.88 41.85 41.11 41.06 42.29 40.35 43.44 39.73 44.57 39.2 45.64 38.75 46.68 38.42 47.69 38.15 48.65 37.99 49.58 37.91 50.48 37.94 51.32 38.04 52.13 38.23 52.92 38.53 53.64 38.92 54.35 39.38 54.99 39.95 55.62 40.61 56.2 41.36 56.73 42.19 57.24 43.14 57.7 44.16 58.12 45.28 58.5 46.48 58.84 47.78 59.14 49.19 59.41 50.66 59.63 52.24zm1594.88 -1592.13l33.28 19.2 -33.28 -19.2 8.4 -13.74 8.32 -13.71 8.25 -13.68 8.15 -13.67 8.09 -13.63 7.99 -13.61 7.91 -13.58 7.83 -13.55 7.73 -13.53 7.65 -13.5 7.56 -13.48 7.46 -13.45 7.38 -13.42 7.28 -13.41 7.19 -13.37 7.09 -13.35 6.98 -13.31 6.89 -13.3 6.8 -13.27 6.68 -13.25 6.58 -13.22 6.48 -13.19 6.37 -13.18 6.26 -13.14 6.16 -13.12 6.05 -13.1 5.93 -13.05 5.82 -13.05 5.7 -13.02 5.59 -12.99 5.47 -12.98 5.36 -12.93 35.98 13.86 -5.46 13.19 -5.57 13.2 -5.69 13.23 -5.8 13.24 -5.92 13.27 -6.03 13.29 -6.15 13.3 -6.24 13.32 -6.36 13.34 -6.47 13.36 -6.56 13.39 -6.68 13.4 -6.78 13.43 -6.88 13.45 -6.97 13.46 -7.08 13.49 -7.17 13.51 -7.27 13.53 -7.36 13.55 -7.46 13.58 -7.54 13.59 -7.64 13.62 -7.73 13.64 -7.81 13.65 -7.91 13.69 -7.97 13.7 -8.07 13.73 -8.15 13.75 -8.23 13.77 -8.31 13.8 -8.38 13.81 -8.46 13.84 -33.28 -19.2zm259.38 -412.92l-35.98 -13.86 35.98 13.86 -5.46 13.19 -5.57 13.2 -5.69 13.23 -5.8 13.24 -5.92 13.27 -6.03 13.29 -6.15 13.3 -6.24 13.32 -6.36 13.34 -6.47 13.36 -6.56 13.39 -6.68 13.4 -6.78 13.43 -6.88 13.45 -6.97 13.46 -7.08 13.49 -7.17 13.51 -7.27 13.53 -7.36 13.55 -7.46 13.58 -7.54 13.59 -7.64 13.62 -7.73 13.64 -7.81 13.65 -7.91 13.69 -7.97 13.7 -8.07 13.73 -8.15 13.75 -8.23 13.77 -8.31 13.8 -8.38 13.81 -8.46 13.84 -33.28 -19.2 8.4 -13.74 8.32 -13.71 8.25 -13.68 8.15 -13.67 8.09 -13.63 7.99 -13.61 7.91 -13.58 7.83 -13.55 7.73 -13.53 7.65 -13.5 7.56 -13.48 7.46 -13.45 7.38 -13.42 7.28 -13.41 7.19 -13.37 7.09 -13.35 6.98 -13.31 6.89 -13.3 6.8 -13.27 6.68 -13.25 6.58 -13.22 6.48 -13.19 6.37 -13.18 6.26 -13.14 6.16 -13.12 6.05 -13.1 5.93 -13.05 5.82 -13.05 5.7 -13.02 5.59 -12.99 5.47 -12.98 5.36 -12.93 35.98 13.86zm-1854.26 2032.75l-26.16 -27.7 59.63 -52.24 59.42 -50.66 59.13 -49.19 58.85 -47.78 58.5 -46.48 58.12 -45.28 57.69 -44.16 57.25 -43.14 56.73 -42.19 56.2 -41.36 55.62 -40.61 54.99 -39.95 54.35 -39.38 53.65 -38.92 52.91 -38.53 52.13 -38.23 51.32 -38.04 50.48 -37.94 49.58 -37.91 48.65 -37.99 47.69 -38.15 46.67 -38.42 45.64 -38.75 44.57 -39.2 43.44 -39.73 42.29 -40.35 41.11 -41.06 39.87 -41.85 38.62 -42.77 37.33 -43.74 35.99 -44.83 34.65 -46 31.62 21.66 -35.35 46.96 -36.71 45.73 -38.05 44.58 -39.32 43.53 -40.55 42.57 -41.75 41.7 -42.89 40.93 -44.02 40.25 -45.09 39.66 -46.12 39.17 -47.11 38.76 -48.07 38.47 -48.99 38.25 -49.86 38.13 -50.7 38.1 -51.5 38.18 -52.27 38.33 -52.99 38.59 -53.69 38.94 -54.33 39.38 -54.95 39.91 -55.52 40.53 -56.06 41.26 -56.55 42.07 -57.03 42.98 -57.45 43.96 -57.84 45.06 -58.2 46.24 -58.51 47.52 -58.79 48.89 -59.04 50.34 -59.23 51.9zm-32.44 2817.98l0 -6020.95 38.72 0 0 6020.95 -38.72 0zm1.14 -2825.47l36.44 -12.72 30.9 81.97 32.14 82.94 33.19 83.81 34.07 84.58 34.76 85.24 35.27 85.81 35.6 86.28 35.76 86.64 35.72 86.91 35.52 87.07 35.11 87.14 34.54 87.11 33.79 86.97 32.84 86.74 31.72 86.42 30.44 86 28.95 85.46 27.28 84.85 25.44 84.13 23.4 83.32 21.21 82.4 18.8 81.41 16.23 80.3 13.46 79.12 10.52 77.82 7.38 76.44 4.05 74.97 0.54 73.4 -3.19 71.74 -7.08 69.97 -11.19 68.12 -15.5 66.12 -37.44 -9.58 14.92 -63.66 10.81 -65.78 6.86 -67.83 3.09 -69.76 -0.52 -71.62 -3.97 -73.35 -7.24 -74.98 -10.34 -76.52 -13.26 -77.94 -16.03 -79.26 -18.58 -80.47 -20.99 -81.58 -23.2 -82.58 -25.24 -83.47 -27.1 -84.27 -28.77 -84.96 -30.28 -85.56 -31.6 -86.04 -32.72 -86.42 -33.67 -86.71 -34.46 -86.89 -35.05 -86.98 -35.46 -86.95 -35.7 -86.83 -35.74 -86.62 -35.62 -86.3 -35.29 -85.89 -34.82 -85.36 -34.13 -84.76 -33.29 -84.03 -32.24 -83.22 -31.04 -82.31zm691.78 1883.68l36.88 11.46 -19.49 13.02 -20.7 -0.42 -22.08 0.81 -23.3 1.99 -24.37 3.14 -25.3 4.22 -26.1 5.25 -26.74 6.2 -27.26 7.1 -27.66 7.94 -27.9 8.71 -28.04 9.41 -28.04 10.05 -27.92 10.62 -27.66 11.12 -27.29 11.56 -26.78 11.92 -26.16 12.24 -25.39 12.46 -24.51 12.64 -23.51 12.73 -22.36 12.74 -21.1 12.71 -19.7 12.58 -18.17 12.38 -16.49 12.09 -14.68 11.69 -12.72 11.2 -10.6 10.55 -8.34 9.7 -5.94 8.56 -3.52 7.03 -1.38 5 -38.4 -4.82 3.52 -13.36 6.28 -12.67 8.52 -12.36 10.56 -12.3 12.46 -12.39 14.28 -12.58 16.02 -12.77 17.65 -12.93 19.19 -13.08 20.62 -13.16 21.92 -13.21 23.14 -13.2 24.23 -13.11 25.21 -13 26.07 -12.8 26.82 -12.54 27.44 -12.22 27.95 -11.84 28.34 -11.4 28.62 -10.88 28.78 -10.31 28.82 -9.67 28.74 -8.97 28.56 -8.2 28.24 -7.36 27.84 -6.46 27.32 -5.49 26.68 -4.44 25.95 -3.34 25.1 -2.15 24.18 -0.89 23.16 0.48 -19.49 13.02zm36.88 11.46l-4.56 13.8 -14.93 -0.78 19.49 -13.02zm435.32 -317.68l36.08 -13.66 -20.2 25.49 -7.56 -0.28 -9.41 0.68 -11.04 1.75 -12.4 2.83 -13.61 3.89 -14.64 4.89 -15.53 5.86 -16.31 6.75 -16.96 7.6 -17.51 8.39 -17.93 9.11 -18.26 9.8 -18.49 10.41 -18.62 10.97 -18.63 11.47 -18.57 11.91 -18.39 12.31 -18.12 12.62 -17.74 12.89 -17.28 13.1 -16.7 13.26 -16.03 13.35 -15.26 13.37 -14.39 13.32 -13.42 13.21 -12.35 13.05 -11.16 12.78 -9.9 12.44 -8.52 11.99 -7.05 11.45 -5.5 10.75 -3.92 9.93 -36.88 -11.46 5.36 -13.61 6.98 -13.65 8.45 -13.73 9.82 -13.83 11.06 -13.92 12.24 -14 13.31 -14.07 14.32 -14.11 15.21 -14.08 16.02 -14.03 16.75 -13.93 17.38 -13.8 17.92 -13.6 18.38 -13.35 18.72 -13.06 19.01 -12.71 19.19 -12.31 19.27 -11.85 19.26 -11.35 19.17 -10.81 19 -10.18 18.73 -9.53 18.37 -8.79 17.92 -8.04 17.41 -7.21 16.83 -6.34 16.18 -5.41 15.47 -4.41 14.74 -3.35 13.98 -2.21 13.29 -0.96 12.66 0.52 -20.2 25.49zm36.08 -13.66l11.65 28.97 -31.85 -3.48 20.2 -25.49zm340.57 -395.9l38.7 1.48 -23.09 17.69 -10.7 -1.19 -11.78 0.38 -12.82 1.97 -13.73 3.59 -14.54 5.19 -15.17 6.71 -15.67 8.16 -16.05 9.51 -16.3 10.76 -16.44 11.9 -16.48 12.95 -16.43 13.87 -16.26 14.68 -16.02 15.4 -15.68 15.98 -15.24 16.47 -14.73 16.84 -14.1 17.1 -13.42 17.26 -12.62 17.28 -11.76 17.21 -10.8 17 -9.74 16.68 -8.63 16.24 -7.39 15.63 -6.11 14.93 -4.74 14.02 -3.31 12.96 -1.87 11.69 -0.45 10.22 0.85 8.53 1.95 6.81 -36.08 13.66 -3.95 -13.69 -1.47 -14.37 0.63 -14.9 2.43 -15.41 4.07 -15.92 5.54 -16.42 6.91 -16.89 8.19 -17.31 9.37 -17.66 10.48 -17.92 11.5 -18.12 12.44 -18.21 13.3 -18.22 14.1 -18.12 14.8 -17.94 15.43 -17.66 15.98 -17.27 16.46 -16.78 16.86 -16.18 17.18 -15.52 17.43 -14.71 17.6 -13.83 17.74 -12.84 17.78 -11.72 17.77 -10.55 17.73 -9.22 17.63 -7.79 17.52 -6.25 17.39 -4.53 17.22 -2.63 17.02 -0.52 16.66 1.85 -23.09 17.69zm38.7 1.48l-0.89 21.93 -22.2 -4.24 23.09 -17.69zm347.69 -531.46l38.18 -6.24 -10.04 19.72 -13.79 7.43 -14.24 8.37 -14.63 9.27 -14.94 10.15 -15.21 10.98 -15.4 11.78 -15.55 12.55 -15.63 13.25 -15.65 13.94 -15.61 14.58 -15.52 15.19 -15.38 15.76 -15.18 16.3 -14.92 16.78 -14.61 17.23 -14.24 17.65 -13.83 18.03 -13.35 18.37 -12.83 18.66 -12.25 18.93 -11.62 19.15 -10.92 19.33 -10.19 19.47 -9.41 19.57 -8.56 19.63 -7.67 19.64 -6.73 19.63 -5.75 19.55 -4.71 19.46 -3.64 19.31 -2.51 19.13 -1.36 18.91 -38.7 -1.48 1.52 -21.13 2.79 -21.19 4 -21.23 5.13 -21.22 6.23 -21.19 7.25 -21.13 8.21 -21.04 9.12 -20.91 9.97 -20.75 10.77 -20.57 11.5 -20.35 12.2 -20.09 12.81 -19.83 13.41 -19.5 13.93 -19.17 14.41 -18.77 14.82 -18.37 15.19 -17.93 15.52 -17.44 15.78 -16.94 15.98 -16.38 16.16 -15.81 16.27 -15.2 16.33 -14.54 16.33 -13.87 16.31 -13.15 16.22 -12.4 16.09 -11.62 15.92 -10.81 15.69 -9.95 15.44 -9.07 15.13 -8.15 -10.04 19.72zm38.18 -6.24l2.32 13.38 -12.36 6.34 10.04 -19.72zm35.28 -645.19l38.6 2.98 -1.73 6.4 -6.51 14.17 -6.34 14.86 -6.14 15.51 -5.94 16.15 -5.74 16.75 -5.52 17.31 -5.28 17.82 -5.04 18.32 -4.78 18.79 -4.53 19.22 -4.26 19.62 -3.98 19.97 -3.69 20.31 -3.39 20.61 -3.08 20.89 -2.78 21.13 -2.45 21.32 -2.12 21.5 -1.79 21.65 -1.44 21.75 -1.08 21.83 -0.72 21.89 -0.35 21.9 0.03 21.88 0.41 21.83 0.81 21.75 1.22 21.65 1.61 21.5 2.04 21.32 2.46 21.13 2.89 20.88 3.33 20.6 -38.18 6.24 -3.47 -21.44 -2.99 -21.68 -2.56 -21.89 -2.1 -22.06 -1.67 -22.22 -1.26 -22.33 -0.83 -22.43 -0.43 -22.49 -0.03 -22.52 0.37 -22.52 0.74 -22.49 1.1 -22.43 1.48 -22.35 1.83 -22.23 2.18 -22.1 2.53 -21.9 2.84 -21.71 3.18 -21.47 3.49 -21.21 3.79 -20.91 4.1 -20.59 4.4 -20.24 4.67 -19.84 4.96 -19.45 5.22 -19 5.5 -18.54 5.74 -18.03 6 -17.51 6.24 -16.97 6.5 -16.39 6.72 -15.76 6.95 -15.13 -1.73 6.4zm38.6 2.98l-0.28 3.35 -1.45 3.05 1.73 -6.4zm27.29 -416.57l37.92 7.56 -2.93 13.92 -2.89 13.89 -2.85 13.84 -2.79 13.81 -2.75 13.77 -2.7 13.7 -2.64 13.66 -2.6 13.61 -2.54 13.54 -2.48 13.48 -2.43 13.41 -2.37 13.33 -2.31 13.26 -2.25 13.18 -2.18 13.09 -2.13 13 -2.06 12.9 -2 12.81 -1.93 12.72 -1.86 12.59 -1.79 12.5 -1.72 12.38 -1.65 12.27 -1.58 12.13 -1.49 12.01 -1.42 11.89 -1.35 11.74 -1.26 11.61 -1.19 11.48 -1.11 11.31 -1.02 11.16 -0.94 11.02 -38.6 -2.98 0.96 -11.24 1.04 -11.4 1.13 -11.53 1.21 -11.66 1.28 -11.81 1.37 -11.94 1.44 -12.07 1.53 -12.19 1.6 -12.31 1.67 -12.43 1.74 -12.54 1.81 -12.64 1.88 -12.75 1.95 -12.86 2.02 -12.95 2.08 -13.04 2.15 -13.14 2.22 -13.21 2.27 -13.3 2.33 -13.38 2.39 -13.45 2.45 -13.53 2.5 -13.58 2.56 -13.66 2.62 -13.71 2.66 -13.76 2.72 -13.82 2.77 -13.85 2.81 -13.91 2.87 -13.96 2.91 -13.97 2.95 -14zm-1333.15 2757.51l36.88 11.46 -19.49 13.02 -20.75 -0.38 -22.38 0.92 -23.85 2.19 -25.12 3.4 -26.25 4.55 -27.22 5.63 -28.01 6.64 -28.68 7.6 -29.19 8.48 -29.55 9.28 -29.78 10.01 -29.84 10.69 -29.79 11.27 -29.58 11.81 -29.23 12.24 -28.74 12.62 -28.12 12.93 -27.34 13.16 -26.44 13.31 -25.38 13.39 -24.17 13.4 -22.83 13.33 -21.34 13.17 -19.7 12.94 -17.92 12.61 -15.95 12.17 -13.84 11.63 -11.54 10.92 -9.07 10.01 -6.44 8.77 -3.73 7.05 -1.38 4.73 -38.4 -4.82 3.76 -13.71 6.75 -12.89 9.16 -12.53 11.33 -12.53 13.4 -12.68 15.38 -12.93 17.25 -13.17 19.02 -13.39 20.68 -13.58 22.22 -13.71 23.61 -13.79 24.91 -13.8 26.06 -13.75 27.08 -13.65 27.96 -13.46 28.74 -13.21 29.36 -12.9 29.85 -12.5 30.22 -12.05 30.45 -11.53 30.54 -10.93 30.52 -10.27 30.33 -9.52 30.05 -8.72 29.62 -7.86 29.09 -6.9 28.4 -5.87 27.61 -4.79 26.7 -3.6 25.69 -2.35 24.56 -1.02 23.35 0.44 -19.49 13.02zm36.88 11.46l-4.56 13.8 -14.93 -0.78 19.49 -13.02zm473.75 -399.89l38.5 3.92 -21.42 16.7 -6.92 -0.1 -9.32 1.15 -11.32 2.59 -13.02 4.04 -14.46 5.45 -15.68 6.78 -16.76 8.02 -17.66 9.17 -18.45 10.26 -19.09 11.24 -19.62 12.14 -20.02 12.95 -20.31 13.69 -20.48 14.33 -20.54 14.88 -20.48 15.36 -20.31 15.75 -20.02 16.05 -19.63 16.29 -19.11 16.4 -18.5 16.46 -17.75 16.42 -16.89 16.28 -15.93 16.07 -14.85 15.75 -13.64 15.35 -12.33 14.82 -10.89 14.19 -9.32 13.44 -7.65 12.53 -5.87 11.42 -4.01 10.1 -36.88 -11.46 5.49 -13.86 7.29 -14.22 8.93 -14.61 10.44 -15.06 11.87 -15.49 13.21 -15.88 14.42 -16.21 15.55 -16.51 16.57 -16.71 17.49 -16.86 18.31 -16.94 19.02 -16.92 19.61 -16.84 20.13 -16.69 20.52 -16.45 20.79 -16.13 20.98 -15.74 21.06 -15.26 21.02 -14.71 20.89 -14.07 20.66 -13.37 20.32 -12.56 19.87 -11.7 19.35 -10.76 18.72 -9.73 18 -8.62 17.24 -7.44 16.42 -6.17 15.56 -4.84 14.76 -3.35 14.04 -1.71 13.52 0.28 -21.42 16.7zm38.5 3.92l-2.04 18.82 -19.38 -2.12 21.42 -16.7zm402.89 -457.5l11.44 35.88 -13.48 4.63 -14.28 6.03 -14.99 7.37 -15.58 8.63 -16.08 9.81 -16.45 10.91 -16.78 11.91 -17 12.84 -17.16 13.66 -17.22 14.4 -17.23 15.05 -17.15 15.62 -17.01 16.1 -16.8 16.49 -16.52 16.78 -16.17 17.01 -15.76 17.12 -15.25 17.16 -14.7 17.12 -14.07 16.97 -13.38 16.74 -12.61 16.43 -11.78 16 -10.87 15.5 -9.9 14.89 -8.85 14.18 -7.72 13.35 -6.54 12.41 -5.26 11.3 -3.94 10.05 -2.57 8.5 -1.23 6.66 -38.5 -3.92 2.05 -11.42 3.57 -11.86 4.88 -12.47 6.12 -13.16 7.3 -13.85 8.4 -14.53 9.47 -15.16 10.44 -15.73 11.39 -16.22 12.26 -16.66 13.07 -17.01 13.82 -17.3 14.49 -17.49 15.12 -17.6 15.69 -17.64 16.18 -17.6 16.61 -17.47 16.98 -17.26 17.28 -16.95 17.53 -16.6 17.73 -16.12 17.83 -15.59 17.9 -14.96 17.9 -14.26 17.84 -13.46 17.74 -12.61 17.59 -11.65 17.38 -10.61 17.14 -9.49 16.85 -8.29 16.58 -6.99 16.26 -5.57zm141.97 -321.71l33.86 18.2 -6.77 11.95 -6.67 11.93 -6.55 11.89 -6.43 11.85 -6.32 11.81 -6.2 11.73 -6.07 11.66 -5.95 11.59 -5.82 11.5 -5.68 11.39 -5.55 11.29 -5.42 11.17 -5.29 11.04 -5.13 10.89 -4.98 10.75 -4.85 10.6 -4.7 10.42 -4.55 10.25 -4.39 10.05 -4.24 9.87 -4.07 9.65 -3.91 9.43 -3.75 9.21 -3.58 8.98 -3.42 8.71 -3.24 8.47 -3.07 8.19 -2.88 7.91 -2.71 7.62 -2.52 7.33 -2.34 7.01 -2.15 6.68 -37.02 -10.98 2.27 -7.08 2.46 -7.37 2.64 -7.65 2.81 -7.94 3 -8.21 3.17 -8.47 3.34 -8.71 3.5 -8.97 3.68 -9.2 3.83 -9.43 4.01 -9.67 4.17 -9.85 4.32 -10.07 4.49 -10.27 4.63 -10.43 4.78 -10.62 4.93 -10.78 5.08 -10.95 5.23 -11.09 5.37 -11.22 5.5 -11.35 5.65 -11.47 5.78 -11.59 5.92 -11.68 6.03 -11.77 6.17 -11.86 6.3 -11.93 6.42 -11.99 6.55 -12.05 6.65 -12.09 6.79 -12.13 6.89 -12.15z"/>
  </g>
  <path class="fil2" d="M3273.69 3593.25c-379.1,-729.12 -1069.4,-817.56 -1658.14,-1921.72 -358.77,921.07 -282.4,2173.83 496.04,2816.32 547.99,-96.53 914.14,-430.32 1162.1,-894.6z"/>
  <path class="fil3 str0" d="M3273.69 3593.25c-379.1,-729.12 -1069.4,-817.56 -1658.14,-1921.72 -358.77,921.07 -282.4,2173.83 496.04,2816.32 547.99,-96.53 914.14,-430.32 1162.1,-894.6z"/>
  <path class="fil4" d="M2936.88 3585.01c-256.01,-433.9 -832.7,-605.59 -1172.42,-1133.91 -168.45,396.98 -81.79,1260.82 425.22,1654.07 296.1,46.22 697.65,-164.03 747.2,-520.16z"/>
  <path class="fil3 str0" d="M2936.88 3585.01c-256.01,-433.9 -832.7,-605.59 -1172.42,-1133.91 -168.45,396.98 -81.79,1260.82 425.22,1654.07 296.1,46.22 697.65,-164.03 747.2,-520.16z"/>
  <path class="fil2" d="M3572.82 3593.25c379.1,-729.12 1069.41,-817.56 1658.13,-1921.72 358.77,921.07 282.4,2173.83 -496.04,2816.32 -547.97,-96.53 -914.16,-430.32 -1162.09,-894.6z"/>
  <path class="fil3 str0" d="M3572.82 3593.25c379.1,-729.12 1069.41,-817.56 1658.13,-1921.72 358.77,921.07 282.4,2173.83 -496.04,2816.32 -547.97,-96.53 -914.16,-430.32 -1162.09,-894.6z"/>
  <path class="fil4" d="M3909.62 3585.01c256.01,-433.9 832.73,-605.59 1172.42,-1133.91 168.45,396.98 81.81,1260.82 -425.2,1654.07 -296.09,46.22 -697.66,-164.03 -747.22,-520.16z"/>
  <path class="fil3 str0" d="M3909.62 3585.01c256.01,-433.9 832.73,-605.59 1172.42,-1133.91 168.45,396.98 81.81,1260.82 -425.2,1654.07 -296.09,46.22 -697.66,-164.03 -747.22,-520.16z"/>
 </g>
</svg>
